<?xml version="1.0" encoding="utf-8"?>
<!-- Generator: Adobe Illustrator 19.2.1, SVG Export Plug-In . SVG Version: 6.00 Build 0)  -->
<svg version="1.1" xmlns="http://www.w3.org/2000/svg" xmlns:xlink="http://www.w3.org/1999/xlink" x="0px" y="0px"
	 viewBox="0 0 168 364" enable-background="new 0 0 168 364" xml:space="preserve">
<g id="Ebene_1" display="none">
	<g display="inline">
		<path fill="#FAB117" d="M91.8,204.8h-1.9v29.2h1.9c0.4,0,0.7-0.1,1-0.4c0.3-0.3,0.4-0.6,0.4-1v-26.3c0-0.4-0.1-0.7-0.4-1
			C92.6,204.9,92.2,204.8,91.8,204.8z"/>
		<path fill="#FAB117" d="M142.7,285.7V149.5c-15.6,14-36.2,22.5-58.7,22.5s-43.1-8.5-58.7-22.5v136.2c5.6,0,10.1,4.5,10.1,10.1
			S30.9,306,25.3,306v15.5L83.9,364l58.8-42.6V306c-5.6,0-10.1-4.5-10.1-10.1S137.1,285.7,142.7,285.7z M136.7,310.8v7.6l-52.8,38.2
			l-52.6-38.2v-7.6c5.9-2.4,10.1-8.2,10.1-15s-4.2-12.6-10.1-15V161.8C46.8,172.3,65.1,178,84,178s37.2-5.7,52.7-16.2v119.1
			c-5.9,2.4-10.1,8.2-10.1,15S130.8,308.4,136.7,310.8z"/>
		<path fill="#FAB117" d="M84,6c43,0,78,35,78,78s-35,78-78,78S6,127,6,84S41,6,84,6 M84,0C37.6,0,0,37.6,0,84s37.6,84,84,84
			s84-37.6,84-84S130.4,0,84,0L84,0z"/>
		<g>
			<path fill="#FAB117" d="M50.1,267.9v-3.6h2.5v1.9c0.5,0.1,1.4,0.3,2.5,0.3c1.6,0,3-0.4,3-1.8c0-3.3-7.8-1.5-7.8-6.9
				c0-3.1,2.6-4.2,5.5-4.2c1.7,0,3.5,0.4,4.7,0.8v3.6h-2.5v-2c-0.5-0.1-1.3-0.2-2-0.2c-1.4,0-2.9,0.4-2.9,1.8c0,3.1,7.8,1.4,7.8,7
				c0,3.2-2.6,4.2-5.5,4.2C53.3,268.7,51.5,268.2,50.1,267.9z"/>
			<path fill="#FAB117" d="M62.7,266.2h2V256h-2v-2.2h6.7v2.2h-2v4h6.9v-4h-2v-2.2h6.7v2.2h-2v10.2h2v2.2h-6.7v-2.2h2v-3.9h-6.9v3.9
				h2v2.2h-6.7V266.2z"/>
			<path fill="#FAB117" d="M81,266.2h2V256h-2v-2.2h6.7v2.2h-2v10.2h2v2.2H81V266.2z"/>
			<path fill="#FAB117" d="M89.7,266.2h2V256h-2v-2.2h7.1c4.3,0,6,2.4,6,4.6c0,1.7-1,3.3-3,3.9l2.2,3.9h1.8v2.2h-3.7l-3-5.4h-2.6
				v3.1h2v2.2h-6.7V266.2z M96.8,260.9c2.3,0,3.1-1.2,3.1-2.4s-0.8-2.4-3.1-2.4h-2.4v4.9H96.8z"/>
			<path fill="#FAB117" d="M107.7,266.2h2.2V256h-2.7v2.2h-2.5v-4.4h13.3v4.4h-2.5V256h-2.7v10.2h2.2v2.2h-7.1V266.2z"/>
		</g>
		<path fill="#FAB117" d="M134.7,279.6V165.5c-13,8.1-27.6,12.9-42.8,14.2l-8,7.8l-7.6-7.8c-15.3-1.2-30-6-43-14.2v114.1
			c6.2,3,10.1,9.3,10.1,16.3s-3.9,13.2-10.1,16.3v5.2l50.6,36.8l50.8-36.8v-5.2c-6.2-3-10.1-9.3-10.1-16.3S128.5,282.6,134.7,279.6z
			 M104.2,227.5c0-0.6,0.3-0.9,0.8-1.1l5.5-1.4c0.5-0.2,0.8,0,0.8,0.6v7.4c0,0.4,0.1,0.7,0.4,1c0.3,0.3,0.6,0.4,1,0.4h0.5
			c0.4,0,0.7-0.1,1-0.4c0.3-0.3,0.4-0.6,0.4-1V225c0-0.5-0.1-1-0.2-1.4c-0.1-0.4-0.4-0.8-0.7-1.1l-7.7-5.9c-0.6-0.6-1-1.1-1.3-1.7
			c-0.3-0.6-0.4-1.3-0.4-2.2v-7.2c0-1,0.2-2,0.6-2.9c0.4-0.9,0.9-1.7,1.6-2.4c0.7-0.7,1.5-1.2,2.4-1.6c0.9-0.4,1.9-0.6,2.9-0.6h2.3
			c1,0,2,0.2,2.9,0.6c0.9,0.4,1.7,0.9,2.4,1.6c0.7,0.7,1.2,1.5,1.6,2.4c0.4,0.9,0.6,1.9,0.6,2.9v2.3c0,0.6-0.3,0.9-0.8,1.1l-5.5,1.4
			c-0.5,0.2-0.8,0-0.8-0.6v-3.9c0-0.4-0.1-0.7-0.4-1c-0.3-0.3-0.6-0.4-1-0.4h-0.5c-0.4,0-0.7,0.1-1,0.4c-0.3,0.3-0.4,0.6-0.4,1v5.5
			c0,0.4,0.1,0.8,0.2,1.1c0.1,0.3,0.3,0.6,0.7,1l7.9,5.9c0.6,0.6,1,1.1,1.2,1.7c0.2,0.6,0.3,1.2,0.4,2v10.3c0,1-0.2,2-0.6,2.9
			c-0.4,0.9-0.9,1.7-1.6,2.4c-0.7,0.7-1.5,1.2-2.4,1.6c-0.9,0.4-1.9,0.6-2.9,0.6h-2.3c-1,0-2-0.2-2.9-0.6c-0.9-0.4-1.7-0.9-2.4-1.6
			c-0.7-0.7-1.2-1.5-1.6-2.4c-0.4-0.9-0.6-1.9-0.6-2.9V227.5z M82.9,199.2c0-0.6,0.3-0.8,0.8-0.8h9c1,0,2,0.2,2.9,0.6
			c0.9,0.4,1.7,0.9,2.4,1.6c0.7,0.7,1.2,1.5,1.6,2.4c0.4,0.9,0.6,1.9,0.6,2.9v26.9c0,1-0.2,2-0.6,2.9c-0.4,0.9-0.9,1.7-1.6,2.4
			c-0.7,0.7-1.5,1.2-2.4,1.6c-0.9,0.4-1.9,0.6-2.9,0.6h-9c-0.6,0-0.8-0.3-0.8-0.8V199.2z M70.5,199.2c0-0.6,0.3-0.8,0.8-0.8h5.3
			c0.6,0,0.8,0.3,0.8,0.8v40.3c0,0.6-0.3,0.8-0.8,0.8h-5.3c-0.6,0-0.8-0.3-0.8-0.8V199.2z M46.3,199.2c0-0.6,0.3-0.8,0.8-0.8h5.3
			c0.6,0,0.8,0.3,0.8,0.8v12.9l5.5-13c0.2-0.5,0.6-0.7,1.1-0.7h6c0.2,0,0.4,0.1,0.5,0.3c0.1,0.2,0.1,0.4,0,0.6l-8,17.7l7.9,22.6
			c0.1,0.2,0.1,0.4-0.1,0.6c-0.1,0.2-0.3,0.3-0.5,0.3h-5.9c-0.2,0-0.5-0.1-0.7-0.2c-0.2-0.1-0.3-0.3-0.4-0.5l-4.4-13.6l-1,2.5v10.9
			c0,0.6-0.3,0.8-0.8,0.8h-5.3c-0.6,0-0.8-0.3-0.8-0.8V199.2z M88.2,328.8l-4.2-2.9l-4.2,2.9l1.5-4.9l-4.1-3.1l5.2-0.1l1.7-4.9
			l1.7,4.9l5.2,0.1l-4.1,3.1L88.2,328.8z M110.4,297.6H57.6v-1.5h17.6l8.8-8.8l8.8,8.8h17.5V297.6z M121.7,275.2H46.3V247h75.4
			V275.2z"/>
		<g>
			<path fill="#FAB117" d="M135.7,134.8c0.5-0.5,1.1-1.1,1.6-1.7c0.2-0.2,0.4-0.5,0.6-0.7c0.7-0.8,1.4-1.6,2-2.4c0,0,0,0,0,0
				c0.7-0.8,1.3-1.6,1.9-2.4c0.2-0.2,0.4-0.5,0.6-0.8c0.5-0.6,0.9-1.2,1.3-1.9c0.2-0.3,0.4-0.5,0.5-0.8c0.6-0.9,1.2-1.7,1.7-2.6
				c0,0,0,0,0,0c0.5-0.9,1.1-1.8,1.6-2.7c0.2-0.3,0.3-0.6,0.4-0.8c0.4-0.7,0.7-1.4,1.1-2.1c0.1-0.3,0.3-0.6,0.4-0.8
				c0.5-1,0.9-1.9,1.3-2.9c3.7-8.7,5.7-18.2,5.7-28.2c0-40-32.5-72.5-72.5-72.5S11.5,44,11.5,84c0,10,2,19.6,5.7,28.2
				c0.4,1,0.9,1.9,1.3,2.9c0.1,0.3,0.3,0.6,0.4,0.8c0.3,0.7,0.7,1.4,1.1,2.1c0.1,0.3,0.3,0.6,0.4,0.8c0.5,0.9,1,1.8,1.6,2.7
				c0,0,0,0,0,0c0.5,0.9,1.1,1.8,1.7,2.6c0.2,0.3,0.4,0.5,0.5,0.8c0.4,0.6,0.9,1.3,1.3,1.9c0.2,0.3,0.4,0.5,0.6,0.8
				c0.6,0.8,1.3,1.6,1.9,2.4c0,0,0,0,0,0c0.7,0.8,1.3,1.6,2,2.4c0.2,0.2,0.4,0.5,0.6,0.7c0.5,0.6,1.1,1.1,1.6,1.7
				c0.2,0.2,0.4,0.4,0.7,0.7c0.7,0.7,1.5,1.4,2.2,2.1c0,0,0,0,0,0c0.8,0.7,1.6,1.4,2.4,2c0.2,0.2,0.5,0.4,0.7,0.6
				c0.6,0.5,1.2,1,1.8,1.4c0.2,0.2,0.5,0.4,0.7,0.6c0.8,0.6,1.7,1.2,2.5,1.8c0,0,0,0,0,0c0.9,0.6,1.7,1.1,2.6,1.7
				c0.3,0.2,0.5,0.3,0.8,0.5c0.7,0.4,1.3,0.8,2,1.2c0.3,0.2,0.5,0.3,0.8,0.5c0.9,0.5,1.9,1,2.8,1.4c0,0,0,0,0,0
				c0.9,0.5,1.9,0.9,2.9,1.3c0.3,0.1,0.6,0.2,0.9,0.4c0.7,0.3,1.5,0.6,2.2,0.9c0.3,0.1,0.6,0.2,0.9,0.3c1,0.4,2,0.7,3,1c0,0,0,0,0,0
				c1,0.3,2.1,0.6,3.1,0.9c0.3,0.1,0.6,0.2,0.9,0.2c0.8,0.2,1.5,0.4,2.3,0.5c0.3,0.1,0.6,0.1,0.9,0.2c1.1,0.2,2.1,0.4,3.2,0.6
				c0,0,0,0,0,0c1.1,0.2,2.2,0.3,3.3,0.4c0.3,0,0.7,0.1,1,0.1c0.8,0.1,1.6,0.1,2.5,0.2c0.3,0,0.7,0,1,0.1c1.1,0.1,2.2,0.1,3.3,0.1
				c0,0,0,0,0,0s0,0,0,0c1.1,0,2.2,0,3.3-0.1c0.3,0,0.7,0,1-0.1c0.8,0,1.6-0.1,2.5-0.2c0.3,0,0.7-0.1,1-0.1c1.1-0.1,2.2-0.2,3.3-0.4
				c0,0,0,0,0,0c1.1-0.2,2.1-0.4,3.2-0.6c0.3-0.1,0.6-0.1,0.9-0.2c0.8-0.2,1.6-0.3,2.3-0.5c0.3-0.1,0.6-0.2,0.9-0.2
				c1-0.3,2.1-0.6,3.1-0.9c0,0,0,0,0,0c1-0.3,2-0.7,3-1c0.3-0.1,0.6-0.2,0.9-0.3c0.7-0.3,1.5-0.6,2.2-0.9c0.3-0.1,0.6-0.2,0.9-0.4
				c1-0.4,1.9-0.8,2.9-1.3c0,0,0,0,0,0c0.9-0.5,1.9-0.9,2.8-1.4c0.3-0.1,0.5-0.3,0.8-0.5c0.7-0.4,1.4-0.8,2-1.2
				c0.3-0.2,0.5-0.3,0.8-0.5c0.9-0.5,1.8-1.1,2.6-1.7c0,0,0,0,0,0c0.9-0.6,1.7-1.2,2.5-1.8c0.3-0.2,0.5-0.4,0.7-0.6
				c0.6-0.5,1.2-0.9,1.8-1.4c0.2-0.2,0.5-0.4,0.7-0.6c0.8-0.7,1.6-1.3,2.4-2c0,0,0,0,0,0c0.8-0.7,1.5-1.4,2.2-2.1
				C135.2,135.3,135.4,135.1,135.7,134.8z M84,12.5c39.4,0,71.5,32.1,71.5,71.5c0,9.9-2,19.4-5.7,28H18.2c-3.7-8.6-5.7-18.1-5.7-28
				C12.5,44.6,44.6,12.5,84,12.5z M51.3,137.7l1.8-16.1c0-0.2,0.2-0.3,0.4-0.3h3.2c0.2,0,0.4,0.1,0.4,0.3l1.8,16.1
				c0,0.2-0.1,0.3-0.3,0.3h-2.2c-0.2,0-0.3-0.1-0.4-0.3l-0.2-2.6h-1.5l-0.2,2.6c0,0.2-0.2,0.3-0.4,0.3h-2.2
				C51.4,138,51.3,137.9,51.3,137.7z M59.1,121.5c0-0.2,0.1-0.3,0.3-0.3H62c0.2,0,0.3,0.1,0.4,0.3l1,10.2h0.1l1-10.2
				c0-0.2,0.2-0.3,0.4-0.3h2.6c0.2,0,0.3,0.1,0.3,0.3l-2.8,16.1c0,0.2-0.2,0.3-0.4,0.3h-2.1c-0.2,0-0.4-0.1-0.4-0.3L59.1,121.5z
				 M68.1,137.7l1.8-16.1c0-0.2,0.2-0.3,0.4-0.3h3.2c0.2,0,0.4,0.1,0.4,0.3l1.8,16.1c0,0.2-0.1,0.3-0.3,0.3h-2.2
				c-0.2,0-0.3-0.1-0.4-0.3l-0.2-2.6h-1.5l-0.2,2.6c0,0.2-0.2,0.3-0.4,0.3h-2.2C68.2,138,68.1,137.9,68.1,137.7z M83.1,135.2
				c0.2,0,0.3,0.1,0.3,0.3v2.1c0,0.2-0.1,0.3-0.3,0.3h-3.2h0h0h-2.1c-0.2,0-0.3-0.1-0.3-0.3v-16.1c0-0.2,0.1-0.3,0.3-0.3h2.1
				c0.2,0,0.3,0.1,0.3,0.3v13.7H83.1z M84.6,137.7l1.8-16.1c0-0.2,0.2-0.3,0.4-0.3h3.2c0.2,0,0.4,0.1,0.4,0.3l1.8,16.1
				c0,0.2-0.1,0.3-0.3,0.3h-2.2c-0.2,0-0.3-0.1-0.4-0.3l-0.2-2.6h-1.5l-0.2,2.6c0,0.2-0.2,0.3-0.4,0.3h-2.2
				C84.6,138,84.5,137.9,84.6,137.7z M100,129.6c0.2,0.2,0.4,0.5,0.5,0.8c0.1,0.3,0.2,0.6,0.2,1v3.6c0,0.4-0.1,0.8-0.2,1.2
				s-0.4,0.7-0.6,1c-0.3,0.3-0.6,0.5-1,0.6c-0.4,0.2-0.8,0.2-1.2,0.2H94c-0.2,0-0.3-0.1-0.3-0.3v-16.1c0-0.2,0.1-0.3,0.3-0.3h3.6
				c0.4,0,0.8,0.1,1.2,0.2c0.4,0.2,0.7,0.4,1,0.6c0.3,0.3,0.5,0.6,0.6,1s0.2,0.8,0.2,1.2v2.4c0,0.7-0.2,1.4-0.7,1.8
				c-0.2,0.3-0.5,0.5-0.9,0.6C99.4,129.2,99.7,129.4,100,129.6z M108.3,135.2c0.2,0,0.3,0.1,0.3,0.3v2.1c0,0.2-0.1,0.3-0.3,0.3h-3.2
				h0h0h-2.1c-0.2,0-0.3-0.1-0.3-0.3v-16.1c0-0.2,0.1-0.3,0.3-0.3h2.1c0.2,0,0.3,0.1,0.3,0.3v13.7H108.3z M115.5,127.5
				c0.2,0,0.3,0.1,0.3,0.3v2.1c0,0.2-0.1,0.3-0.3,0.3h-2.4v4.9h2.7c0.2,0,0.3,0.1,0.3,0.3v2.1c0,0.2-0.1,0.3-0.3,0.3h-5.2
				c-0.2,0-0.3-0.1-0.3-0.3v-16.1c0-0.2,0.1-0.3,0.3-0.3h5.2c0.2,0,0.3,0.1,0.3,0.3v2.1c0,0.2-0.1,0.3-0.3,0.3h-2.7v3.5H115.5z"/>
			<polygon fill="#FAB117" points="88.4,125.9 88.2,125.9 87.8,132.4 88.9,132.4 			"/>
			<path fill="#FAB117" d="M97.2,130.5h-0.8v5h0.8c0.2,0,0.3-0.1,0.4-0.2c0.1-0.1,0.2-0.2,0.2-0.4V131c0-0.2-0.1-0.3-0.2-0.4
				C97.5,130.5,97.4,130.5,97.2,130.5z"/>
			<polygon fill="#FAB117" points="72,125.9 71.8,125.9 71.3,132.4 72.4,132.4 			"/>
			<polygon fill="#FAB117" points="55.2,125.9 55,125.9 54.5,132.4 55.6,132.4 			"/>
			<path fill="#FAB117" d="M97.2,123.8h-0.8v4.1h0.8c0.2,0,0.3-0.1,0.4-0.2c0.1-0.1,0.2-0.2,0.2-0.4v-2.9c0-0.2-0.1-0.3-0.2-0.4
				C97.5,123.8,97.4,123.8,97.2,123.8z"/>
		</g>
		<g>
			<path fill="#FAB117" d="M80.6,92.5c0,1.4-0.3,2.7-0.8,3.9c-0.5,1.2-1.3,2.3-2.2,3.2c-0.9,0.9-2,1.6-3.2,2.2
				c-1.2,0.5-2.5,0.8-3.9,0.8h-3c-1.4,0-2.7-0.3-3.9-0.8c-1.2-0.5-2.3-1.3-3.2-2.2c-0.9-0.9-1.6-2-2.2-3.2c-0.5-1.2-0.8-2.5-0.8-3.9
				v-37c0-1.4,0.3-2.7,0.8-3.9c0.5-1.2,1.3-2.3,2.2-3.2c0.9-0.9,2-1.6,3.2-2.2c1.2-0.5,2.5-0.8,3.9-0.8h3c1.4,0,2.7,0.3,3.9,0.8
				c1.2,0.5,2.3,1.3,3.2,2.2c0.9,0.9,1.6,2,2.2,3.2c0.5,1.2,0.8,2.5,0.8,3.9V92.5z M71.2,55.9c0-0.5-0.2-1-0.6-1.4
				c-0.4-0.4-0.8-0.6-1.4-0.6h-0.6c-0.5,0-1,0.2-1.4,0.6c-0.4,0.4-0.6,0.8-0.6,1.4v36.2c0,0.5,0.2,1,0.6,1.4
				c0.4,0.4,0.8,0.6,1.4,0.6h0.6c0.5,0,1-0.2,1.4-0.6c0.4-0.4,0.6-0.8,0.6-1.4V55.9z"/>
			<path fill="#FAB117" d="M104.6,66.4c1.9,0.5,3.3,1.5,4.2,2.9c1,1.4,1.4,3,1.4,5v18.2c0,1.4-0.3,2.7-0.8,3.9
				c-0.5,1.2-1.3,2.3-2.2,3.2c-0.9,0.9-2,1.6-3.2,2.2c-1.2,0.5-2.5,0.8-3.9,0.8h-3c-1.4,0-2.7-0.3-3.9-0.8c-1.2-0.5-2.3-1.3-3.2-2.2
				c-0.9-0.9-1.6-2-2.2-3.2c-0.5-1.2-0.8-2.5-0.8-3.9v-3.3c0-0.7,0.3-1.2,1-1.4l7.3-1.9c0.7-0.2,1,0.1,1,0.8v5.4
				c0,0.5,0.2,1,0.6,1.4c0.4,0.4,0.8,0.6,1.4,0.6h0.6c0.5,0,1-0.2,1.4-0.6c0.4-0.4,0.6-0.8,0.6-1.4V76.3c0-0.9-0.2-1.4-0.5-1.8
				c-0.1-0.1-0.3-0.2-0.5-0.4s-0.5-0.2-0.9-0.2h-0.6c-0.4,0-0.7,0.1-0.9,0.3c-0.2,0.2-0.4,0.3-0.5,0.4c-0.3,0.3-0.5,0.9-0.5,1.7v2.2
				c0,0.3-0.1,0.5-0.2,0.6s-0.4,0.2-0.6,0.1l-7.6-2c-0.6-0.2-0.9-0.6-0.9-1.1v-29c0-0.7,0.4-1.1,1.1-1.1h4.7h14.5
				c0.7,0,1.1,0.4,1.1,1.1v6.8c0,0.7-0.4,1.1-1.1,1.1h-11v12.1c1.6-0.7,3.3-1.1,5.2-1.1C102.6,66,103.6,66.1,104.6,66.4z"/>
		</g>
		<path fill="none" d="M71.3,240.4h5.3c0.6,0,0.8-0.3,0.8-0.8v-40.3c0-0.6-0.3-0.8-0.8-0.8h-5.3c-0.6,0-0.8,0.3-0.8,0.8v40.3
			C70.5,240.1,70.8,240.4,71.3,240.4z"/>
		<path fill="none" d="M82.9,199.2v40.3c0,0.6,0.3,0.8,0.8,0.8H84v-42h-0.3C83.2,198.4,82.9,198.6,82.9,199.2z"/>
		<path fill="none" d="M99.9,258.4c0-1.3-0.8-2.4-3.1-2.4h-2.4v4.9h2.4C99.1,260.9,99.9,259.7,99.9,258.4z"/>
		<path fill="none" d="M47.1,240.4h5.3c0.6,0,0.8-0.3,0.8-0.8v-10.9l1-2.5l4.4,13.6c0.1,0.2,0.2,0.4,0.4,0.5
			c0.2,0.1,0.4,0.2,0.7,0.2h5.9c0.2,0,0.4-0.1,0.5-0.3c0.1-0.2,0.1-0.4,0.1-0.6l-7.9-22.6l8-17.7c0.1-0.2,0.1-0.4,0-0.6
			c-0.1-0.2-0.2-0.3-0.5-0.3h-6c-0.6,0-0.9,0.2-1.1,0.7l-5.5,13v-12.9c0-0.6-0.3-0.8-0.8-0.8h-5.3c-0.6,0-0.8,0.3-0.8,0.8v40.3
			C46.3,240.1,46.6,240.4,47.1,240.4z"/>
		<path opacity="0.2" fill="#FFFFFF" d="M83.9,356.6l-52.6-38.2v-7.6c5.9-2.4,10.1-8.2,10.1-15s-4.2-12.6-10.1-15V161.8
			C46.8,172.3,65.1,178,84,178v-6c-22.5,0-43.1-8.5-58.7-22.5v136.2c5.6,0,10.1,4.5,10.1,10.1S30.9,306,25.3,306v15.5L83.9,364
			l0.1-0.1L83.9,356.6L83.9,356.6z"/>
		<path opacity="0.2" fill="#FFFFFF" d="M60.8,264.4c0-5.6-7.8-3.9-7.8-7c0-1.3,1.4-1.8,2.9-1.8c0.8,0,1.6,0.1,2,0.2v2h2.5v-3.6
			c-1.2-0.4-3-0.8-4.7-0.8c-2.9,0-5.5,1.2-5.5,4.2c0,5.4,7.8,3.6,7.8,6.9c0,1.4-1.5,1.8-3,1.8c-1.1,0-2-0.2-2.5-0.3v-1.9h-2.5v3.6
			c1.4,0.4,3.3,0.8,5.2,0.8C58.2,268.7,60.8,267.6,60.8,264.4z"/>
		<polygon opacity="0.2" fill="#FFFFFF" points="69.4,266.2 67.4,266.2 67.4,262.2 74.4,262.2 74.4,266.2 72.4,266.2 72.4,268.4 
			79.1,268.4 79.1,266.2 77.2,266.2 77.2,256 79.1,256 79.1,253.8 72.4,253.8 72.4,256 74.4,256 74.4,259.9 67.4,259.9 67.4,256 
			69.4,256 69.4,253.8 62.7,253.8 62.7,256 64.7,256 64.7,266.2 62.7,266.2 62.7,268.4 69.4,268.4 		"/>
		<polygon opacity="0.2" fill="#FFFFFF" points="81,253.8 81,256 83,256 83,266.2 81,266.2 81,268.4 84,268.4 84,253.8 		"/>
		<path opacity="0.2" fill="#FFFFFF" d="M79.8,328.8l1.5-4.9l-4.1-3.1l5.2-0.1l1.7-4.9v-18.2H57.6v-1.5h17.6l8.7-8.7v-12.3H46.3V247
			H84v-6.6h-0.3c-0.6,0-0.8-0.3-0.8-0.8v-40.3c0-0.6,0.3-0.8,0.8-0.8H84v-11l-0.1,0.1l-7.6-7.8c-15.3-1.2-30-6-43-14.2v114.1
			c6.2,3,10.1,9.3,10.1,16.3s-3.9,13.2-10.1,16.3v5.2l50.6,36.8l0.1-0.1v-28.2L79.8,328.8z M70.5,199.2c0-0.6,0.3-0.8,0.8-0.8h5.3
			c0.6,0,0.8,0.3,0.8,0.8v40.3c0,0.6-0.3,0.8-0.8,0.8h-5.3c-0.6,0-0.8-0.3-0.8-0.8V199.2z M46.3,199.2c0-0.6,0.3-0.8,0.8-0.8h5.3
			c0.6,0,0.8,0.3,0.8,0.8v12.9l5.5-13c0.2-0.5,0.6-0.7,1.1-0.7h6c0.2,0,0.4,0.1,0.5,0.3c0.1,0.2,0.1,0.4,0,0.6l-8,17.7l7.9,22.6
			c0.1,0.2,0.1,0.4-0.1,0.6c-0.1,0.2-0.3,0.3-0.5,0.3h-5.9c-0.2,0-0.5-0.1-0.7-0.2c-0.2-0.1-0.3-0.3-0.4-0.5l-4.4-13.6l-1,2.5v10.9
			c0,0.6-0.3,0.8-0.8,0.8h-5.3c-0.6,0-0.8-0.3-0.8-0.8V199.2z"/>
	</g>
</g>
<g id="Ebene_2" display="none">
	<g display="inline">
		<path fill="#F26651" d="M113.6,205.8h-0.5c-0.4,0-0.7,0.1-1,0.4c-0.3,0.3-0.4,0.6-0.4,1v26c0,0.4,0.1,0.7,0.4,1
			c0.3,0.3,0.6,0.4,1,0.4h0.5c0.4,0,0.7-0.1,1-0.4c0.3-0.3,0.4-0.6,0.4-1v-26c0-0.4-0.1-0.7-0.4-1C114.3,206,114,205.8,113.6,205.8z
			"/>
		<path fill="#F26651" d="M72.1,205.8h-0.5c-0.4,0-0.7,0.1-1,0.4c-0.3,0.3-0.4,0.6-0.4,1v26c0,0.4,0.1,0.7,0.4,1
			c0.3,0.3,0.6,0.4,1,0.4h0.5c0.4,0,0.7-0.1,1-0.4c0.3-0.3,0.4-0.6,0.4-1v-26c0-0.4-0.1-0.7-0.4-1C72.9,206,72.5,205.8,72.1,205.8z"
			/>
		<g>
			<path fill="#F26651" d="M84,6c43,0,78,35,78,78s-35,78-78,78S6,127,6,84S41,6,84,6 M84,0C37.6,0,0,37.6,0,84s37.6,84,84,84
				s84-37.6,84-84S130.4,0,84,0L84,0z"/>
		</g>
		<g>
			<path fill="#F26651" d="M142.7,285.7V149.5c-15.6,14-36.2,22.5-58.7,22.5s-43.1-8.5-58.7-22.5v136.2c5.6,0,10.1,4.5,10.1,10.1
				S30.9,306,25.3,306v15.5L83.9,364l58.8-42.6V306c-5.6,0-10.1-4.5-10.1-10.1S137.1,285.7,142.7,285.7z M136.7,310.8v7.6
				l-52.8,38.2l-52.6-38.2v-7.6c5.9-2.4,10.1-8.2,10.1-15s-4.2-12.6-10.1-15V161.8C46.8,172.3,65.1,178,84,178s37.2-5.7,52.7-16.2
				v119.1c-5.9,2.4-10.1,8.2-10.1,15S130.8,308.4,136.7,310.8z"/>
			<g>
				<path fill="#F26651" d="M50.1,267.9v-3.6h2.5v1.9c0.5,0.1,1.4,0.3,2.5,0.3c1.6,0,3-0.4,3-1.8c0-3.3-7.8-1.5-7.8-6.9
					c0-3.1,2.6-4.2,5.5-4.2c1.7,0,3.5,0.4,4.7,0.8v3.6h-2.5v-2c-0.5-0.1-1.3-0.2-2-0.2c-1.4,0-2.9,0.4-2.9,1.8c0,3.1,7.8,1.4,7.8,7
					c0,3.2-2.6,4.2-5.5,4.2C53.3,268.7,51.5,268.2,50.1,267.9z"/>
				<path fill="#F26651" d="M62.7,266.2h2V256h-2v-2.2h6.7v2.2h-2v4h6.9v-4h-2v-2.2h6.7v2.2h-2v10.2h2v2.2h-6.7v-2.2h2v-3.9h-6.9
					v3.9h2v2.2h-6.7V266.2z"/>
				<path fill="#F26651" d="M81,266.2h2V256h-2v-2.2h6.7v2.2h-2v10.2h2v2.2H81V266.2z"/>
				<path fill="#F26651" d="M89.7,266.2h2V256h-2v-2.2h7.1c4.3,0,6,2.4,6,4.6c0,1.7-1,3.3-3,3.9l2.2,3.9h1.8v2.2h-3.7l-3-5.4h-2.6
					v3.1h2v2.2h-6.7V266.2z M96.8,260.9c2.3,0,3.1-1.2,3.1-2.4s-0.8-2.4-3.1-2.4h-2.4v4.9H96.8z"/>
				<path fill="#F26651" d="M107.7,266.2h2.2V256h-2.7v2.2h-2.5v-4.4h13.3v4.4h-2.5V256h-2.7v10.2h2.2v2.2h-7.1V266.2z"/>
			</g>
			<path fill="#F26651" d="M134.7,279.6V165.5c-13,8.1-27.6,12.9-42.8,14.2l-8,7.8l-7.6-7.8c-15.3-1.2-30-6-43-14.2v114.1
				c6.2,3,10.1,9.3,10.1,16.3s-3.9,13.2-10.1,16.3v5.2l50.6,36.8l50.8-36.8v-5.2c-6.2-3-10.1-9.3-10.1-16.3S128.5,282.6,134.7,279.6
				z M84.3,206.9c0-1,0.2-1.9,0.6-2.8c0.4-0.9,0.9-1.6,1.6-2.3c0.7-0.7,1.4-1.2,2.3-1.6c0.9-0.4,1.8-0.6,2.8-0.6h2.2
				c1,0,1.9,0.2,2.8,0.6c0.9,0.4,1.7,0.9,2.3,1.6c0.7,0.7,1.2,1.4,1.6,2.3c0.4,0.9,0.6,1.8,0.6,2.8v1.8c0,0.5-0.3,0.9-0.7,1
				l-5.2,1.9c-0.5,0.2-0.7,0-0.7-0.6v-3.9c0-0.4-0.1-0.7-0.4-1c-0.3-0.3-0.6-0.4-1-0.4h-0.5c-0.4,0-0.7,0.1-1,0.4
				c-0.3,0.3-0.4,0.6-0.4,1v26c0,0.4,0.1,0.7,0.4,1c0.3,0.3,0.6,0.4,1,0.4h0.5c0.4,0,0.7-0.1,1-0.4c0.3-0.3,0.4-0.6,0.4-1V223h-1.6
				v-6.6h7.5c0.5,0,0.8,0.3,0.8,0.8v16.3c0,1-0.2,1.9-0.6,2.8c-0.4,0.9-0.9,1.7-1.6,2.3c-0.7,0.7-1.4,1.2-2.3,1.6s-1.8,0.6-2.8,0.6
				h-2.2c-1,0-1.9-0.2-2.8-0.6s-1.6-0.9-2.3-1.6c-0.7-0.7-1.2-1.4-1.6-2.3c-0.4-0.9-0.6-1.8-0.6-2.8V206.9z M63.6,206.9
				c0-1,0.2-1.9,0.6-2.8c0.4-0.9,0.9-1.6,1.6-2.3c0.7-0.7,1.4-1.2,2.3-1.6c0.9-0.4,1.8-0.6,2.8-0.6H73c1,0,1.9,0.2,2.8,0.6
				c0.9,0.4,1.6,0.9,2.3,1.6c0.7,0.7,1.2,1.4,1.6,2.3c0.4,0.9,0.6,1.8,0.6,2.8v26.6c0,1-0.2,1.9-0.6,2.8c-0.4,0.9-0.9,1.7-1.6,2.3
				c-0.7,0.7-1.4,1.2-2.3,1.6c-0.9,0.4-1.8,0.6-2.8,0.6h-2.2c-1,0-1.9-0.2-2.8-0.6s-1.7-0.9-2.3-1.6c-0.7-0.7-1.2-1.4-1.6-2.3
				c-0.4-0.9-0.6-1.8-0.6-2.8V206.9z M46.3,200.9c0-0.5,0.3-0.8,0.8-0.8h5.1c0.5,0,0.8,0.3,0.8,0.8v32.7h7.1c0.5,0,0.8,0.3,0.8,0.8
				v5.1c0,0.5-0.3,0.8-0.8,0.8h-7.8h-0.1h-0.1h-5.1c-0.5,0-0.8-0.3-0.8-0.8V200.9z M88.2,328.8l-4.2-2.9l-4.2,2.9l1.5-4.9l-4.1-3.1
				l5.2-0.1l1.7-4.9l1.7,4.9l5.2,0.1l-4.1,3.1L88.2,328.8z M110.4,297.6H57.6v-1.5h17.6l8.8-8.8l8.8,8.8h17.5V297.6z M121.7,275.2
				H46.3V247h75.4V275.2z M121.7,233.5c0,1-0.2,1.9-0.6,2.8c-0.4,0.9-0.9,1.7-1.6,2.3c-0.7,0.7-1.4,1.2-2.3,1.6s-1.8,0.6-2.8,0.6
				h-2.2c-1,0-1.9-0.2-2.8-0.6s-1.6-0.9-2.3-1.6c-0.7-0.7-1.2-1.4-1.6-2.3c-0.4-0.9-0.6-1.8-0.6-2.8v-26.6c0-1,0.2-1.9,0.6-2.8
				c0.4-0.9,0.9-1.6,1.6-2.3c0.7-0.7,1.4-1.2,2.3-1.6c0.9-0.4,1.8-0.6,2.8-0.6h2.2c1,0,1.9,0.2,2.8,0.6c0.9,0.4,1.7,0.9,2.3,1.6
				c0.7,0.7,1.2,1.4,1.6,2.3c0.4,0.9,0.6,1.8,0.6,2.8V233.5z"/>
		</g>
		<g>
			<path fill="#F26651" d="M135.7,134.8c0.5-0.5,1.1-1.1,1.6-1.7c0.2-0.2,0.4-0.5,0.6-0.7c0.7-0.8,1.4-1.6,2-2.4c0,0,0,0,0,0
				c0.7-0.8,1.3-1.6,1.9-2.4c0.2-0.2,0.4-0.5,0.6-0.8c0.5-0.6,0.9-1.2,1.3-1.9c0.2-0.3,0.4-0.5,0.5-0.8c0.6-0.9,1.2-1.7,1.7-2.6
				c0,0,0,0,0,0c0.5-0.9,1.1-1.8,1.6-2.7c0.2-0.3,0.3-0.6,0.4-0.8c0.4-0.7,0.7-1.4,1.1-2.1c0.1-0.3,0.3-0.6,0.4-0.8
				c0.5-1,0.9-1.9,1.3-2.9c3.7-8.7,5.7-18.2,5.7-28.2c0-40-32.5-72.5-72.5-72.5S11.5,44,11.5,84c0,10,2,19.6,5.7,28.2
				c0.4,1,0.9,1.9,1.3,2.9c0.1,0.3,0.3,0.6,0.4,0.8c0.3,0.7,0.7,1.4,1.1,2.1c0.1,0.3,0.3,0.6,0.4,0.8c0.5,0.9,1,1.8,1.6,2.7
				c0,0,0,0,0,0c0.5,0.9,1.1,1.8,1.7,2.6c0.2,0.3,0.4,0.5,0.5,0.8c0.4,0.6,0.9,1.3,1.3,1.9c0.2,0.3,0.4,0.5,0.6,0.8
				c0.6,0.8,1.3,1.6,1.9,2.4c0,0,0,0,0,0c0.7,0.8,1.3,1.6,2,2.4c0.2,0.2,0.4,0.5,0.6,0.7c0.5,0.6,1.1,1.1,1.6,1.7
				c0.2,0.2,0.4,0.4,0.7,0.7c0.7,0.7,1.5,1.4,2.2,2.1c0,0,0,0,0,0c0.8,0.7,1.6,1.4,2.4,2c0.2,0.2,0.5,0.4,0.7,0.6
				c0.6,0.5,1.2,1,1.8,1.4c0.2,0.2,0.5,0.4,0.7,0.6c0.8,0.6,1.7,1.2,2.5,1.8c0,0,0,0,0,0c0.9,0.6,1.7,1.1,2.6,1.7
				c0.3,0.2,0.5,0.3,0.8,0.5c0.7,0.4,1.3,0.8,2,1.2c0.3,0.2,0.5,0.3,0.8,0.5c0.9,0.5,1.9,1,2.8,1.4c0,0,0,0,0,0
				c0.9,0.5,1.9,0.9,2.9,1.3c0.3,0.1,0.6,0.2,0.9,0.4c0.7,0.3,1.5,0.6,2.2,0.9c0.3,0.1,0.6,0.2,0.9,0.3c1,0.4,2,0.7,3,1c0,0,0,0,0,0
				c1,0.3,2.1,0.6,3.1,0.9c0.3,0.1,0.6,0.2,0.9,0.2c0.8,0.2,1.5,0.4,2.3,0.5c0.3,0.1,0.6,0.1,0.9,0.2c1.1,0.2,2.1,0.4,3.2,0.6
				c0,0,0,0,0,0c1.1,0.2,2.2,0.3,3.3,0.4c0.3,0,0.7,0.1,1,0.1c0.8,0.1,1.6,0.1,2.5,0.2c0.3,0,0.7,0,1,0.1c1.1,0.1,2.2,0.1,3.3,0.1
				c0,0,0,0,0,0s0,0,0,0c1.1,0,2.2,0,3.3-0.1c0.3,0,0.7,0,1-0.1c0.8,0,1.6-0.1,2.5-0.2c0.3,0,0.7-0.1,1-0.1c1.1-0.1,2.2-0.2,3.3-0.4
				c0,0,0,0,0,0c1.1-0.2,2.1-0.4,3.2-0.6c0.3-0.1,0.6-0.1,0.9-0.2c0.8-0.2,1.6-0.3,2.3-0.5c0.3-0.1,0.6-0.2,0.9-0.2
				c1-0.3,2.1-0.6,3.1-0.9c0,0,0,0,0,0c1-0.3,2-0.7,3-1c0.3-0.1,0.6-0.2,0.9-0.3c0.7-0.3,1.5-0.6,2.2-0.9c0.3-0.1,0.6-0.2,0.9-0.4
				c1-0.4,1.9-0.8,2.9-1.3c0,0,0,0,0,0c0.9-0.5,1.9-0.9,2.8-1.4c0.3-0.1,0.5-0.3,0.8-0.5c0.7-0.4,1.4-0.8,2-1.2
				c0.3-0.2,0.5-0.3,0.8-0.5c0.9-0.5,1.8-1.1,2.6-1.7c0,0,0,0,0,0c0.9-0.6,1.7-1.2,2.5-1.8c0.3-0.2,0.5-0.4,0.7-0.6
				c0.6-0.5,1.2-0.9,1.8-1.4c0.2-0.2,0.5-0.4,0.7-0.6c0.8-0.7,1.6-1.3,2.4-2c0,0,0,0,0,0c0.8-0.7,1.5-1.4,2.2-2.1
				C135.2,135.3,135.4,135.1,135.7,134.8z M84,12.5c39.4,0,71.5,32.1,71.5,71.5c0,9.9-2,19.4-5.7,28H18.2c-3.7-8.6-5.7-18.1-5.7-28
				C12.5,44.6,44.6,12.5,84,12.5z M51.3,137.7l1.8-16.1c0-0.2,0.2-0.3,0.4-0.3h3.2c0.2,0,0.4,0.1,0.4,0.3l1.8,16.1
				c0,0.2-0.1,0.3-0.3,0.3h-2.2c-0.2,0-0.3-0.1-0.4-0.3l-0.2-2.6h-1.5l-0.2,2.6c0,0.2-0.2,0.3-0.4,0.3h-2.2
				C51.4,138,51.3,137.9,51.3,137.7z M59.1,121.5c0-0.2,0.1-0.3,0.3-0.3H62c0.2,0,0.3,0.1,0.4,0.3l1,10.2h0.1l1-10.2
				c0-0.2,0.2-0.3,0.4-0.3h2.6c0.2,0,0.3,0.1,0.3,0.3l-2.8,16.1c0,0.2-0.2,0.3-0.4,0.3h-2.1c-0.2,0-0.4-0.1-0.4-0.3L59.1,121.5z
				 M68.1,137.7l1.8-16.1c0-0.2,0.2-0.3,0.4-0.3h3.2c0.2,0,0.4,0.1,0.4,0.3l1.8,16.1c0,0.2-0.1,0.3-0.3,0.3h-2.2
				c-0.2,0-0.3-0.1-0.4-0.3l-0.2-2.6h-1.5l-0.2,2.6c0,0.2-0.2,0.3-0.4,0.3h-2.2C68.2,138,68.1,137.9,68.1,137.7z M83.1,135.2
				c0.2,0,0.3,0.1,0.3,0.3v2.1c0,0.2-0.1,0.3-0.3,0.3h-3.2h0h0h-2.1c-0.2,0-0.3-0.1-0.3-0.3v-16.1c0-0.2,0.1-0.3,0.3-0.3h2.1
				c0.2,0,0.3,0.1,0.3,0.3v13.7H83.1z M84.6,137.7l1.8-16.1c0-0.2,0.2-0.3,0.4-0.3h3.2c0.2,0,0.4,0.1,0.4,0.3l1.8,16.1
				c0,0.2-0.1,0.3-0.3,0.3h-2.2c-0.2,0-0.3-0.1-0.4-0.3l-0.2-2.6h-1.5l-0.2,2.6c0,0.2-0.2,0.3-0.4,0.3h-2.2
				C84.6,138,84.5,137.9,84.6,137.7z M100,129.6c0.2,0.2,0.4,0.5,0.5,0.8c0.1,0.3,0.2,0.6,0.2,1v3.6c0,0.4-0.1,0.8-0.2,1.2
				s-0.4,0.7-0.6,1c-0.3,0.3-0.6,0.5-1,0.6c-0.4,0.2-0.8,0.2-1.2,0.2H94c-0.2,0-0.3-0.1-0.3-0.3v-16.1c0-0.2,0.1-0.3,0.3-0.3h3.6
				c0.4,0,0.8,0.1,1.2,0.2c0.4,0.2,0.7,0.4,1,0.6c0.3,0.3,0.5,0.6,0.6,1s0.2,0.8,0.2,1.2v2.4c0,0.7-0.2,1.4-0.7,1.8
				c-0.2,0.3-0.5,0.5-0.9,0.6C99.4,129.2,99.7,129.4,100,129.6z M108.3,135.2c0.2,0,0.3,0.1,0.3,0.3v2.1c0,0.2-0.1,0.3-0.3,0.3h-3.2
				h0h0h-2.1c-0.2,0-0.3-0.1-0.3-0.3v-16.1c0-0.2,0.1-0.3,0.3-0.3h2.1c0.2,0,0.3,0.1,0.3,0.3v13.7H108.3z M115.5,127.5
				c0.2,0,0.3,0.1,0.3,0.3v2.1c0,0.2-0.1,0.3-0.3,0.3h-2.4v4.9h2.7c0.2,0,0.3,0.1,0.3,0.3v2.1c0,0.2-0.1,0.3-0.3,0.3h-5.2
				c-0.2,0-0.3-0.1-0.3-0.3v-16.1c0-0.2,0.1-0.3,0.3-0.3h5.2c0.2,0,0.3,0.1,0.3,0.3v2.1c0,0.2-0.1,0.3-0.3,0.3h-2.7v3.5H115.5z"/>
			<polygon fill="#F26651" points="88.4,125.9 88.2,125.9 87.8,132.4 88.9,132.4 			"/>
			<path fill="#F26651" d="M97.2,123.8h-0.8v4.1h0.8c0.2,0,0.3-0.1,0.4-0.2c0.1-0.1,0.2-0.2,0.2-0.4v-2.9c0-0.2-0.1-0.3-0.2-0.4
				C97.5,123.8,97.4,123.8,97.2,123.8z"/>
			<path fill="#F26651" d="M97.2,130.5h-0.8v5h0.8c0.2,0,0.3-0.1,0.4-0.2c0.1-0.1,0.2-0.2,0.2-0.4V131c0-0.2-0.1-0.3-0.2-0.4
				C97.5,130.5,97.4,130.5,97.2,130.5z"/>
			<polygon fill="#F26651" points="72,125.9 71.8,125.9 71.3,132.4 72.4,132.4 			"/>
			<polygon fill="#F26651" points="55.2,125.9 55,125.9 54.5,132.4 55.6,132.4 			"/>
		</g>
		<polygon fill="none" points="84,325.9 88.2,328.8 86.7,323.9 90.8,320.8 85.7,320.7 84,315.8 84,315.8 84,325.9 		"/>
		<path opacity="0.1" fill="#FFFFFF" d="M83.9,356.6l-52.6-38.2v-7.6c5.9-2.4,10.1-8.2,10.1-15s-4.2-12.6-10.1-15V161.8
			C46.8,172.3,65.1,178,84,178v-6c-22.5,0-43.1-8.5-58.7-22.5v136.2c5.6,0,10.1,4.5,10.1,10.1S30.9,306,25.3,306v15.5L83.9,364
			l0.1-0.1L83.9,356.6L83.9,356.6z"/>
		<path opacity="0.1" fill="#FFFFFF" d="M60.8,264.4c0-5.6-7.8-3.9-7.8-7c0-1.3,1.4-1.8,2.9-1.8c0.8,0,1.6,0.1,2,0.2v2h2.5v-3.6
			c-1.2-0.4-3-0.8-4.7-0.8c-2.9,0-5.5,1.2-5.5,4.2c0,5.4,7.8,3.6,7.8,6.9c0,1.4-1.5,1.8-3,1.8c-1.1,0-2-0.2-2.5-0.3v-1.9h-2.5v3.6
			c1.4,0.4,3.3,0.8,5.2,0.8C58.2,268.7,60.8,267.6,60.8,264.4z"/>
		<polygon opacity="0.1" fill="#FFFFFF" points="69.4,266.2 67.4,266.2 67.4,262.2 74.4,262.2 74.4,266.2 72.4,266.2 72.4,268.4 
			79.1,268.4 79.1,266.2 77.2,266.2 77.2,256 79.1,256 79.1,253.8 72.4,253.8 72.4,256 74.4,256 74.4,259.9 67.4,259.9 67.4,256 
			69.4,256 69.4,253.8 62.7,253.8 62.7,256 64.7,256 64.7,266.2 62.7,266.2 62.7,268.4 69.4,268.4 		"/>
		<polygon opacity="0.1" fill="#FFFFFF" points="81,253.8 81,256 83,256 83,266.2 81,266.2 81,268.4 84,268.4 84,253.8 		"/>
		<path opacity="0.1" fill="#FFFFFF" d="M79.8,328.8l1.5-4.9l-4.1-3.1l5.2-0.1l1.7-4.9v-18.2H57.6v-1.5h17.6l8.7-8.7v-12.3H46.3V247
			H84v-59.6l-0.1,0.1l-7.6-7.8c-15.3-1.2-30-6-43-14.2v114.1c6.2,3,10.1,9.3,10.1,16.3s-3.9,13.2-10.1,16.3v5.2l50.6,36.8l0.1-0.1
			v-28.2L79.8,328.8z M63.6,206.9c0-1,0.2-1.9,0.6-2.8c0.4-0.9,0.9-1.6,1.6-2.3c0.7-0.7,1.4-1.2,2.3-1.6c0.9-0.4,1.8-0.6,2.8-0.6H73
			c1,0,1.9,0.2,2.8,0.6c0.9,0.4,1.6,0.9,2.3,1.6c0.7,0.7,1.2,1.4,1.6,2.3c0.4,0.9,0.6,1.8,0.6,2.8v26.6c0,1-0.2,1.9-0.6,2.8
			c-0.4,0.9-0.9,1.7-1.6,2.3c-0.7,0.7-1.4,1.2-2.3,1.6c-0.9,0.4-1.8,0.6-2.8,0.6h-2.2c-1,0-1.9-0.2-2.8-0.6s-1.7-0.9-2.3-1.6
			c-0.7-0.7-1.2-1.4-1.6-2.3c-0.4-0.9-0.6-1.8-0.6-2.8V206.9z M46.3,200.9c0-0.5,0.3-0.8,0.8-0.8h5.1c0.5,0,0.8,0.3,0.8,0.8v32.7
			h7.1c0.5,0,0.8,0.3,0.8,0.8v5.1c0,0.5-0.3,0.8-0.8,0.8h-7.8h-0.1h-0.1h-5.1c-0.5,0-0.8-0.3-0.8-0.8V200.9z"/>
	</g>
</g>
<g id="Ebene_3">
	<g>
		<path fill="#2CB0D9" d="M142.7,285.7V149.5c-15.6,14-36.2,22.5-58.7,22.5s-43.1-8.5-58.7-22.5v136.2c5.6,0,10.1,4.5,10.1,10.1
			S30.9,306,25.3,306v15.5L83.9,364l58.8-42.6V306c-5.6,0-10.1-4.5-10.1-10.1S137.1,285.7,142.7,285.7z M136.7,310.8v7.6l-52.8,38.2
			l-52.6-38.2v-7.6c5.9-2.4,10.1-8.2,10.1-15s-4.2-12.6-10.1-15V161.8C46.8,172.3,65.1,178,84,178s37.2-5.7,52.7-16.2v119.1
			c-5.9,2.4-10.1,8.2-10.1,15S130.8,308.4,136.7,310.8z"/>
		<path fill="#2CB0D9" d="M84,6c43,0,78,35,78,78s-35,78-78,78S6,127,6,84S41,6,84,6 M84,0C37.6,0,0,37.6,0,84s37.6,84,84,84
			s84-37.6,84-84S130.4,0,84,0L84,0z"/>
		<g>
			<path fill="#2CB0D9" d="M50.1,267.9v-3.6h2.5v1.9c0.5,0.1,1.4,0.3,2.5,0.3c1.6,0,3-0.4,3-1.8c0-3.3-7.8-1.5-7.8-6.9
				c0-3.1,2.6-4.2,5.5-4.2c1.7,0,3.5,0.4,4.7,0.8v3.6h-2.5v-2c-0.5-0.1-1.3-0.2-2-0.2c-1.4,0-2.9,0.4-2.9,1.8c0,3.1,7.8,1.4,7.8,7
				c0,3.2-2.6,4.2-5.5,4.2C53.3,268.7,51.5,268.2,50.1,267.9z"/>
			<path fill="#2CB0D9" d="M62.7,266.2h2V256h-2v-2.2h6.7v2.2h-2v4h6.9v-4h-2v-2.2h6.7v2.2h-2v10.2h2v2.2h-6.7v-2.2h2v-3.9h-6.9v3.9
				h2v2.2h-6.7V266.2z"/>
			<path fill="#2CB0D9" d="M81,266.2h2V256h-2v-2.2h6.7v2.2h-2v10.2h2v2.2H81V266.2z"/>
			<path fill="#2CB0D9" d="M89.7,266.2h2V256h-2v-2.2h7.1c4.3,0,6,2.4,6,4.6c0,1.7-1,3.3-3,3.9l2.2,3.9h1.8v2.2h-3.7l-3-5.4h-2.6
				v3.1h2v2.2h-6.7V266.2z M96.8,260.9c2.3,0,3.1-1.2,3.1-2.4s-0.8-2.4-3.1-2.4h-2.4v4.9H96.8z"/>
			<path fill="#2CB0D9" d="M107.7,266.2h2.2V256h-2.7v2.2h-2.5v-4.4h13.3v4.4h-2.5V256h-2.7v10.2h2.2v2.2h-7.1V266.2z"/>
		</g>
		<g>
			<polygon fill="#2CB0D9" points="88.2,125.9 87.8,132.4 88.9,132.4 88.4,125.9 			"/>
			<path fill="#2CB0D9" d="M97.2,123.8h-0.8v4.1h0.8c0.2,0,0.3-0.1,0.4-0.2c0.1-0.1,0.2-0.2,0.2-0.4v-2.9c0-0.2-0.1-0.3-0.2-0.4
				C97.5,123.8,97.4,123.8,97.2,123.8z"/>
			<polygon fill="#2CB0D9" points="71.8,125.9 71.3,132.4 72.4,132.4 72,125.9 			"/>
			<polygon fill="#2CB0D9" points="55,125.9 54.5,132.4 55.6,132.4 55.2,125.9 			"/>
			<path fill="#2CB0D9" d="M97.2,130.5h-0.8v5h0.8c0.2,0,0.3-0.1,0.4-0.2c0.1-0.1,0.2-0.2,0.2-0.4V131c0-0.2-0.1-0.3-0.2-0.4
				C97.5,130.5,97.4,130.5,97.2,130.5z"/>
			<path fill="#2CB0D9" d="M84,11.5C44,11.5,11.5,44,11.5,84c0,10,2,19.6,5.7,28.2c0.4,1,0.9,1.9,1.3,2.9c0.1,0.3,0.3,0.6,0.4,0.8
				c0.3,0.7,0.7,1.4,1.1,2.1c0.1,0.3,0.3,0.6,0.4,0.8c0.5,0.9,1,1.8,1.6,2.7c0,0,0,0,0,0c0.5,0.9,1.1,1.8,1.7,2.6
				c0.2,0.3,0.4,0.5,0.5,0.8c0.4,0.6,0.9,1.3,1.3,1.9c0.2,0.3,0.4,0.5,0.6,0.8c0.6,0.8,1.3,1.6,1.9,2.4c0,0,0,0,0,0
				c0.7,0.8,1.3,1.6,2,2.4c0.2,0.2,0.4,0.5,0.6,0.7c0.5,0.6,1.1,1.1,1.6,1.7c0.2,0.2,0.4,0.4,0.7,0.7c0.7,0.7,1.5,1.4,2.2,2.1
				c0,0,0,0,0,0c0.8,0.7,1.6,1.4,2.4,2c0.2,0.2,0.5,0.4,0.7,0.6c0.6,0.5,1.2,1,1.8,1.4c0.2,0.2,0.5,0.4,0.7,0.6
				c0.8,0.6,1.7,1.2,2.5,1.8c0,0,0,0,0,0c0.9,0.6,1.7,1.1,2.6,1.7c0.3,0.2,0.5,0.3,0.8,0.5c0.7,0.4,1.3,0.8,2,1.2
				c0.3,0.2,0.5,0.3,0.8,0.5c0.9,0.5,1.9,1,2.8,1.4c0,0,0,0,0,0c0.9,0.5,1.9,0.9,2.9,1.3c0.3,0.1,0.6,0.2,0.9,0.4
				c0.7,0.3,1.5,0.6,2.2,0.9c0.3,0.1,0.6,0.2,0.9,0.3c1,0.4,2,0.7,3,1c0,0,0,0,0,0c1,0.3,2.1,0.6,3.1,0.9c0.3,0.1,0.6,0.2,0.9,0.2
				c0.8,0.2,1.5,0.4,2.3,0.5c0.3,0.1,0.6,0.1,0.9,0.2c1.1,0.2,2.1,0.4,3.2,0.6c0,0,0,0,0,0c1.1,0.2,2.2,0.3,3.3,0.4
				c0.3,0,0.7,0.1,1,0.1c0.8,0.1,1.6,0.1,2.5,0.2c0.3,0,0.7,0,1,0.1c1.1,0.1,2.2,0.1,3.3,0.1c0,0,0,0,0,0s0,0,0,0
				c1.1,0,2.2,0,3.3-0.1c0.3,0,0.7,0,1-0.1c0.8,0,1.6-0.1,2.5-0.2c0.3,0,0.7-0.1,1-0.1c1.1-0.1,2.2-0.2,3.3-0.4c0,0,0,0,0,0
				c1.1-0.2,2.1-0.4,3.2-0.6c0.3-0.1,0.6-0.1,0.9-0.2c0.8-0.2,1.6-0.3,2.3-0.5c0.3-0.1,0.6-0.2,0.9-0.2c1-0.3,2.1-0.6,3.1-0.9
				c0,0,0,0,0,0c1-0.3,2-0.7,3-1c0.3-0.1,0.6-0.2,0.9-0.3c0.7-0.3,1.5-0.6,2.2-0.9c0.3-0.1,0.6-0.2,0.9-0.4c1-0.4,1.9-0.8,2.9-1.3
				c0,0,0,0,0,0c0.9-0.5,1.9-0.9,2.8-1.4c0.3-0.1,0.5-0.3,0.8-0.5c0.7-0.4,1.4-0.8,2-1.2c0.3-0.2,0.5-0.3,0.8-0.5
				c0.9-0.5,1.8-1.1,2.6-1.7c0,0,0,0,0,0c0.9-0.6,1.7-1.2,2.5-1.8c0.3-0.2,0.5-0.4,0.7-0.6c0.6-0.5,1.2-0.9,1.8-1.4
				c0.2-0.2,0.5-0.4,0.7-0.6c0.8-0.7,1.6-1.3,2.4-2c0,0,0,0,0,0c0.8-0.7,1.5-1.4,2.2-2.1c0.2-0.2,0.4-0.4,0.7-0.7
				c0.5-0.5,1.1-1.1,1.6-1.7c0.2-0.2,0.4-0.5,0.6-0.7c0.7-0.8,1.4-1.6,2-2.4c0,0,0,0,0,0c0.7-0.8,1.3-1.6,1.9-2.4
				c0.2-0.2,0.4-0.5,0.6-0.8c0.5-0.6,0.9-1.2,1.3-1.9c0.2-0.3,0.4-0.5,0.5-0.8c0.6-0.9,1.2-1.7,1.7-2.6c0,0,0,0,0,0
				c0.5-0.9,1.1-1.8,1.6-2.7c0.2-0.3,0.3-0.6,0.4-0.8c0.4-0.7,0.7-1.4,1.1-2.1c0.1-0.3,0.3-0.6,0.4-0.8c0.5-1,0.9-1.9,1.3-2.9
				c3.7-8.7,5.7-18.2,5.7-28.2C156.5,44,124,11.5,84,11.5z M58.6,138h-2.2c-0.2,0-0.3-0.1-0.4-0.3l-0.2-2.6h-1.5l-0.2,2.6
				c0,0.2-0.2,0.3-0.4,0.3h-2.2c-0.2,0-0.3-0.1-0.3-0.3l1.8-16.1c0-0.2,0.2-0.3,0.4-0.3h3.2c0.2,0,0.4,0.1,0.4,0.3l1.8,16.1
				C58.9,137.9,58.8,138,58.6,138z M64.8,137.7c0,0.2-0.2,0.3-0.4,0.3h-2.1c-0.2,0-0.4-0.1-0.4-0.3l-2.8-16.1c0-0.2,0.1-0.3,0.3-0.3
				H62c0.2,0,0.3,0.1,0.4,0.3l1,10.2h0.1l1-10.2c0-0.2,0.2-0.3,0.4-0.3h2.6c0.2,0,0.3,0.1,0.3,0.3L64.8,137.7z M75.3,138h-2.2
				c-0.2,0-0.3-0.1-0.4-0.3l-0.2-2.6h-1.5l-0.2,2.6c0,0.2-0.2,0.3-0.4,0.3h-2.2c-0.2,0-0.3-0.1-0.3-0.3l1.8-16.1
				c0-0.2,0.2-0.3,0.4-0.3h3.2c0.2,0,0.4,0.1,0.4,0.3l1.8,16.1C75.7,137.9,75.6,138,75.3,138z M83.4,137.7c0,0.2-0.1,0.3-0.3,0.3
				h-3.2h0h0h-2.1c-0.2,0-0.3-0.1-0.3-0.3v-16.1c0-0.2,0.1-0.3,0.3-0.3h2.1c0.2,0,0.3,0.1,0.3,0.3v13.7h3c0.2,0,0.3,0.1,0.3,0.3
				V137.7z M91.8,138h-2.2c-0.2,0-0.3-0.1-0.4-0.3l-0.2-2.6h-1.5l-0.2,2.6c0,0.2-0.2,0.3-0.4,0.3h-2.2c-0.2,0-0.3-0.1-0.3-0.3
				l1.8-16.1c0-0.2,0.2-0.3,0.4-0.3h3.2c0.2,0,0.4,0.1,0.4,0.3l1.8,16.1C92.1,137.9,92,138,91.8,138z M100.6,126.6
				c0,0.7-0.2,1.4-0.7,1.8c-0.2,0.3-0.5,0.5-0.9,0.6c0.4,0.1,0.6,0.3,0.9,0.5c0.2,0.2,0.4,0.5,0.5,0.8c0.1,0.3,0.2,0.6,0.2,1v3.6
				c0,0.4-0.1,0.8-0.2,1.2s-0.4,0.7-0.6,1c-0.3,0.3-0.6,0.5-1,0.6c-0.4,0.2-0.8,0.2-1.2,0.2H94c-0.2,0-0.3-0.1-0.3-0.3v-16.1
				c0-0.2,0.1-0.3,0.3-0.3h3.6c0.4,0,0.8,0.1,1.2,0.2c0.4,0.2,0.7,0.4,1,0.6c0.3,0.3,0.5,0.6,0.6,1s0.2,0.8,0.2,1.2V126.6z
				 M108.7,137.7c0,0.2-0.1,0.3-0.3,0.3h-3.2h0h0h-2.1c-0.2,0-0.3-0.1-0.3-0.3v-16.1c0-0.2,0.1-0.3,0.3-0.3h2.1
				c0.2,0,0.3,0.1,0.3,0.3v13.7h3c0.2,0,0.3,0.1,0.3,0.3V137.7z M116.2,123.7c0,0.2-0.1,0.3-0.3,0.3h-2.7v3.5h2.4
				c0.2,0,0.3,0.1,0.3,0.3v2.1c0,0.2-0.1,0.3-0.3,0.3h-2.4v4.9h2.7c0.2,0,0.3,0.1,0.3,0.3v2.1c0,0.2-0.1,0.3-0.3,0.3h-5.2
				c-0.2,0-0.3-0.1-0.3-0.3v-16.1c0-0.2,0.1-0.3,0.3-0.3h5.2c0.2,0,0.3,0.1,0.3,0.3V123.7z M149.8,112H18.2
				c-3.7-8.6-5.7-18.1-5.7-28c0-39.4,32.1-71.5,71.5-71.5s71.5,32.1,71.5,71.5C155.5,93.9,153.5,103.4,149.8,112z"/>
		</g>
		<path fill="#2CB0D9" d="M134.7,279.6V165.5c-13,8.1-27.6,12.9-42.8,14.2l-8,7.8l-7.6-7.8c-15.3-1.2-30-6-43-14.2v114.1
			c6.2,3,10.1,9.3,10.1,16.3s-3.9,13.2-10.1,16.3v5.2l50.6,36.8l50.8-36.8v-5.2c-6.2-3-10.1-9.3-10.1-16.3S128.5,282.6,134.7,279.6z
			 M84.3,200.2c0-0.5,0.3-0.8,0.8-0.8h12.7c0.5,0,0.8,0.3,0.8,0.8v5.2c0,0.5-0.3,0.8-0.8,0.8h-6.7v8.4H97c0.5,0,0.8,0.3,0.8,0.8v5.2
			c0,0.5-0.3,0.8-0.8,0.8h-5.8v12h6.7c0.5,0,0.8,0.3,0.8,0.8v5.2c0,0.5-0.3,0.8-0.8,0.8H85.1c-0.5,0-0.8-0.3-0.8-0.8V200.2z
			 M66.5,200.2c0-0.5,0.3-0.8,0.8-0.8H80c0.5,0,0.8,0.3,0.8,0.8v5.2c0,0.5-0.3,0.8-0.8,0.8h-6.7v8.4h5.8c0.5,0,0.8,0.3,0.8,0.8v5.2
			c0,0.5-0.3,0.8-0.8,0.8h-5.8v12H80c0.5,0,0.8,0.3,0.8,0.8v5.2c0,0.5-0.3,0.8-0.8,0.8H67.3c-0.5,0-0.8-0.3-0.8-0.8V200.2z
			 M46.3,206.4c0-1,0.2-2,0.6-2.9c0.4-0.9,0.9-1.7,1.6-2.3c0.7-0.7,1.4-1.2,2.3-1.6c0.9-0.4,1.9-0.6,2.9-0.6h2.2c1,0,2,0.2,2.9,0.6
			c0.9,0.4,1.7,0.9,2.3,1.6c0.7,0.7,1.2,1.4,1.6,2.3c0.4,0.9,0.6,1.9,0.6,2.9v1.9c0,0.5-0.3,0.9-0.8,1.1l-5.3,1.9
			c-0.5,0.2-0.8,0-0.8-0.6v-4c0-0.4-0.1-0.7-0.4-1c-0.3-0.3-0.6-0.4-1-0.4h-0.5c-0.4,0-0.7,0.1-1,0.4c-0.3,0.3-0.4,0.6-0.4,1v26.4
			c0,0.4,0.1,0.7,0.4,1c0.3,0.3,0.6,0.4,1,0.4H55c0.4,0,0.7-0.1,1-0.4c0.3-0.3,0.4-0.6,0.4-1v-10.4h-1.6V216h7.7
			c0.5,0,0.8,0.3,0.8,0.8v16.6c0,1-0.2,2-0.6,2.9c-0.4,0.9-0.9,1.7-1.6,2.3c-0.7,0.7-1.4,1.2-2.3,1.6c-0.9,0.4-1.9,0.6-2.9,0.6h-2.2
			c-1,0-2-0.2-2.9-0.6c-0.9-0.4-1.7-0.9-2.3-1.6c-0.7-0.7-1.2-1.4-1.6-2.3c-0.4-0.9-0.6-1.9-0.6-2.9V206.4z M88.2,328.8l-4.2-2.9
			l-4.2,2.9l1.5-4.9l-4.1-3.1l5.2-0.1l1.7-4.9l1.7,4.9l5.2,0.1l-4.1,3.1L88.2,328.8z M110.2,297.6H57.5v-1.5h17.6l8.8-8.8l8.8,8.8
			h17.5V297.6z M121.7,275.2H46.3V247h75.4V275.2z M121.8,200.2l-7.8,17.3l7.7,22c0.1,0.2,0.1,0.4-0.1,0.6c-0.1,0.2-0.3,0.3-0.5,0.3
			h-5.8c-0.2,0-0.4-0.1-0.6-0.2c-0.2-0.1-0.3-0.3-0.4-0.5l-4.3-13.2l-1,2.5v10.6c0,0.5-0.3,0.8-0.8,0.8H103c-0.5,0-0.8-0.3-0.8-0.8
			v-39.3c0-0.5,0.3-0.8,0.8-0.8h5.2c0.5,0,0.8,0.3,0.8,0.8v12.6l5.4-12.7c0.2-0.5,0.6-0.7,1.1-0.7h5.8c0.2,0,0.4,0.1,0.5,0.3
			C121.9,199.9,121.9,200.1,121.8,200.2z"/>
		<path fill="none" d="M48.5,238.6c0.7,0.7,1.4,1.2,2.3,1.6c0.9,0.4,1.9,0.6,2.9,0.6h2.2c1,0,2-0.2,2.9-0.6c0.9-0.4,1.7-0.9,2.3-1.6
			c0.7-0.7,1.2-1.4,1.6-2.3c0.4-0.9,0.6-1.9,0.6-2.9v-16.6c0-0.5-0.3-0.8-0.8-0.8h-7.7v6.7h1.6v10.4c0,0.4-0.1,0.7-0.4,1
			c-0.3,0.3-0.6,0.4-1,0.4h-0.5c-0.4,0-0.7-0.1-1-0.4c-0.3-0.3-0.4-0.6-0.4-1v-26.4c0-0.4,0.1-0.7,0.4-1c0.3-0.3,0.6-0.4,1-0.4H55
			c0.4,0,0.7,0.1,1,0.4c0.3,0.3,0.4,0.6,0.4,1v4c0,0.5,0.3,0.7,0.8,0.6l5.3-1.9c0.5-0.2,0.8-0.5,0.8-1.1v-1.9c0-1-0.2-2-0.6-2.9
			c-0.4-0.9-0.9-1.7-1.6-2.3c-0.7-0.7-1.4-1.2-2.3-1.6c-0.9-0.4-1.9-0.6-2.9-0.6h-2.2c-1,0-2,0.2-2.9,0.6c-0.9,0.4-1.7,0.9-2.3,1.6
			c-0.7,0.7-1.2,1.4-1.6,2.3c-0.4,0.9-0.6,1.9-0.6,2.9v27c0,1,0.2,2,0.6,2.9C47.3,237.2,47.8,238,48.5,238.6z"/>
		<path fill="none" d="M67.3,240.4H80c0.5,0,0.8-0.3,0.8-0.8v-5.2c0-0.5-0.3-0.8-0.8-0.8h-6.7v-12h5.8c0.5,0,0.8-0.3,0.8-0.8v-5.2
			c0-0.5-0.3-0.8-0.8-0.8h-5.8v-8.4H80c0.5,0,0.8-0.3,0.8-0.8v-5.2c0-0.5-0.3-0.8-0.8-0.8H67.3c-0.5,0-0.8,0.3-0.8,0.8v39.3
			C66.5,240.1,66.8,240.4,67.3,240.4z"/>
		<path fill="none" d="M97.8,199.4H85.1c-0.5,0-0.8,0.3-0.8,0.8v39.3c0,0.5,0.3,0.8,0.8,0.8h12.7c0.5,0,0.8-0.3,0.8-0.8v-5.2
			c0-0.5-0.3-0.8-0.8-0.8h-6.7v-12H97c0.5,0,0.8-0.3,0.8-0.8v-5.2c0-0.5-0.3-0.8-0.8-0.8h-5.8v-8.4h6.7c0.5,0,0.8-0.3,0.8-0.8v-5.2
			C98.6,199.7,98.4,199.4,97.8,199.4z"/>
		<path fill="none" d="M121.3,199.4h-5.8c-0.5,0-0.9,0.2-1.1,0.7l-5.4,12.7v-12.6c0-0.5-0.3-0.8-0.8-0.8H103c-0.5,0-0.8,0.3-0.8,0.8
			v39.3c0,0.5,0.3,0.8,0.8,0.8h5.2c0.5,0,0.8-0.3,0.8-0.8v-10.6l1-2.5l4.3,13.2c0.1,0.2,0.2,0.4,0.4,0.5c0.2,0.1,0.4,0.2,0.6,0.2
			h5.8c0.2,0,0.4-0.1,0.5-0.3c0.1-0.2,0.1-0.4,0.1-0.6l-7.7-22l7.8-17.3c0.1-0.2,0.1-0.4,0-0.6C121.7,199.5,121.6,199.4,121.3,199.4
			z"/>
		<path opacity="0.15" fill="#FFFFFF" d="M83.9,356.6l-52.6-38.2v-7.6c5.9-2.4,10.1-8.2,10.1-15s-4.2-12.6-10.1-15V161.8
			C46.8,172.3,65.1,178,84,178v-6c-22.5,0-43.1-8.5-58.7-22.5v136.2c5.6,0,10.1,4.5,10.1,10.1S30.9,306,25.3,306v15.5L83.9,364
			l0.1-0.1L83.9,356.6L83.9,356.6z"/>
		<path opacity="0.15" fill="#FFFFFF" d="M60.8,264.4c0-5.6-7.8-3.9-7.8-7c0-1.3,1.4-1.8,2.9-1.8c0.8,0,1.6,0.1,2,0.2v2h2.5v-3.6
			c-1.2-0.4-3-0.8-4.7-0.8c-2.9,0-5.5,1.2-5.5,4.2c0,5.4,7.8,3.6,7.8,6.9c0,1.4-1.5,1.8-3,1.8c-1.1,0-2-0.2-2.5-0.3v-1.9h-2.5v3.6
			c1.4,0.4,3.3,0.8,5.2,0.8C58.2,268.7,60.8,267.6,60.8,264.4z"/>
		<polygon opacity="0.15" fill="#FFFFFF" points="69.4,266.2 67.4,266.2 67.4,262.2 74.4,262.2 74.4,266.2 72.4,266.2 72.4,268.4 
			79.1,268.4 79.1,266.2 77.2,266.2 77.2,256 79.1,256 79.1,253.8 72.4,253.8 72.4,256 74.4,256 74.4,259.9 67.4,259.9 67.4,256 
			69.4,256 69.4,253.8 62.7,253.8 62.7,256 64.7,256 64.7,266.2 62.7,266.2 62.7,268.4 69.4,268.4 		"/>
		<polygon opacity="0.15" fill="#FFFFFF" points="81,253.8 81,256 83,256 83,266.2 81,266.2 81,268.4 84,268.4 84,253.8 		"/>
		<path opacity="0.15" fill="#FFFFFF" d="M79.8,328.8l1.5-4.9l-4.1-3.1l5.2-0.1l1.7-4.9v-18.2H57.5v-1.5h17.6l8.8-8.8l0.1,0.1v-12.3
			H46.3V247H84v-59.6l-0.1,0.1l-7.6-7.8c-15.3-1.2-30-6-43-14.2v114.1c6.2,3,10.1,9.3,10.1,16.3s-3.9,13.2-10.1,16.3v5.2l50.6,36.8
			l0.1-0.1v-28.2L79.8,328.8z M66.5,200.2c0-0.5,0.3-0.8,0.8-0.8H80c0.5,0,0.8,0.3,0.8,0.8v5.2c0,0.5-0.3,0.8-0.8,0.8h-6.7v8.4h5.8
			c0.5,0,0.8,0.3,0.8,0.8v5.2c0,0.5-0.3,0.8-0.8,0.8h-5.8v12H80c0.5,0,0.8,0.3,0.8,0.8v5.2c0,0.5-0.3,0.8-0.8,0.8H67.3
			c-0.5,0-0.8-0.3-0.8-0.8V200.2z M46.3,206.4c0-1,0.2-2,0.6-2.9c0.4-0.9,0.9-1.7,1.6-2.3c0.7-0.7,1.4-1.2,2.3-1.6
			c0.9-0.4,1.9-0.6,2.9-0.6h2.2c1,0,2,0.2,2.9,0.6c0.9,0.4,1.7,0.9,2.3,1.6c0.7,0.7,1.2,1.4,1.6,2.3c0.4,0.9,0.6,1.9,0.6,2.9v1.9
			c0,0.5-0.3,0.9-0.8,1.1l-5.3,1.9c-0.5,0.2-0.8,0-0.8-0.6v-4c0-0.4-0.1-0.7-0.4-1c-0.3-0.3-0.6-0.4-1-0.4h-0.5
			c-0.4,0-0.7,0.1-1,0.4c-0.3,0.3-0.4,0.6-0.4,1v26.4c0,0.4,0.1,0.7,0.4,1c0.3,0.3,0.6,0.4,1,0.4H55c0.4,0,0.7-0.1,1-0.4
			c0.3-0.3,0.4-0.6,0.4-1v-10.4h-1.6V216h7.7c0.5,0,0.8,0.3,0.8,0.8v16.6c0,1-0.2,2-0.6,2.9c-0.4,0.9-0.9,1.7-1.6,2.3
			c-0.7,0.7-1.4,1.2-2.3,1.6c-0.9,0.4-1.9,0.6-2.9,0.6h-2.2c-1,0-2-0.2-2.9-0.6c-0.9-0.4-1.7-0.9-2.3-1.6c-0.7-0.7-1.2-1.4-1.6-2.3
			c-0.4-0.9-0.6-1.9-0.6-2.9V206.4z"/>
	</g>
</g>
</svg>
