<?xml version="1.0" encoding="utf-8"?>
<!-- Generator: Adobe Illustrator 19.2.1, SVG Export Plug-In . SVG Version: 6.00 Build 0)  -->
<svg version="1.1" id="Ebene_1" xmlns="http://www.w3.org/2000/svg" xmlns:xlink="http://www.w3.org/1999/xlink" x="0px" y="0px"
	 viewBox="0 0 167.7 280" enable-background="new 0 0 167.7 280" xml:space="preserve">
<g>
	<path fill="#FFFFFF" d="M167.7,168.2V0H0v168.2c8,0,14.5,6.5,14.5,14.5S8,197.1,0,197.1v22.1L83.7,280l84-60.8v-22.1
		c-8,0-14.5-6.5-14.5-14.5S159.7,168.2,167.7,168.2z M159.3,203.9v11l-75.6,54.7L8.4,214.9v-11c8.5-3.4,14.5-11.6,14.5-21.3
		c0-9.6-6-17.9-14.5-21.3V8.4h150.9v153c-8.5,3.4-14.5,11.6-14.5,21.3C144.8,192.3,150.8,200.6,159.3,203.9z"/>
	<g>
		<polygon fill="#FFFFFF" points="117,119.2 120.8,119.2 120.8,133.5 117.8,133.5 117.8,136.6 127.7,136.6 127.7,133.5 124.7,133.5 
			124.7,119.2 128.5,119.2 128.5,122.3 132,122.3 132,116.1 113.5,116.1 113.5,122.3 117,122.3 		"/>
		<polygon fill="#FFFFFF" points="89.9,133.5 87.1,133.5 87.1,119.2 89.9,119.2 89.9,116.1 80.5,116.1 80.5,119.2 83.2,119.2 
			83.2,133.5 80.5,133.5 80.5,136.6 89.9,136.6 		"/>
		<path fill="#FFFFFF" d="M102,133.5h-2.8v-4.4h3.7l4.2,7.5h5.2v-3.1h-2.5l-3.1-5.4c2.8-0.9,4.1-3.1,4.1-5.5c0-3.1-2.3-6.4-8.3-6.4
			h-9.9v3.1h2.8v14.3h-2.8v3.1h9.4V133.5z M99.2,119.2h3.3c3.2,0,4.3,1.6,4.3,3.4s-1.1,3.4-4.3,3.4h-3.3V119.2z"/>
		<path fill="#FFFFFF" d="M124.8,89.7h0.7c0.5,0,1-0.2,1.4-0.6c0.4-0.4,0.6-0.8,0.6-1.4V51c0-0.5-0.2-1-0.6-1.4
			c-0.4-0.4-0.8-0.6-1.4-0.6h-0.7c-0.5,0-1,0.2-1.4,0.6c-0.4,0.4-0.6,0.8-0.6,1.4v36.8c0,0.5,0.2,1,0.6,1.4
			C123.8,89.6,124.2,89.7,124.8,89.7z"/>
		<path fill="#FFFFFF" d="M66.3,89.7h0.7c0.5,0,1-0.2,1.4-0.6c0.4-0.4,0.6-0.8,0.6-1.4V51c0-0.5-0.2-1-0.6-1.4
			c-0.4-0.4-0.8-0.6-1.4-0.6h-0.7c-0.5,0-1,0.2-1.4,0.6c-0.4,0.4-0.6,0.8-0.6,1.4v36.8c0,0.5,0.2,1,0.6,1.4
			C65.2,89.6,65.7,89.7,66.3,89.7z"/>
		<path fill="#FFFFFF" d="M52.2,131.1c0-7.8-11-5.4-11-9.8c0-1.9,2-2.5,4-2.5c1.1,0,2.2,0.2,2.9,0.3v2.8h3.6v-5
			c-1.7-0.6-4.2-1.1-6.5-1.1c-4,0-7.6,1.6-7.6,5.9c0,7.5,11,5,11,9.7c0,2-2,2.6-4.2,2.6c-1.5,0-2.8-0.3-3.5-0.4v-2.7h-3.5v5.1
			c1.9,0.5,4.6,1.1,7.2,1.1C48.5,137,52.2,135.5,52.2,131.1z"/>
		<path fill="#FFFFFF" d="M156,159.2V11.7H96.4L83.8,24.3L71.3,11.7H11.7v147.5c8.9,4.4,14.5,13.4,14.5,23.4c0,10-5.6,19-14.5,23.4
			v7.1l72,52.3l72.2-52.3v-7.1c-8.9-4.4-14.5-13.4-14.5-23.4C141.5,172.6,147.1,163.6,156,159.2z M113.3,50.6c0-1.4,0.3-2.7,0.8-4
			c0.5-1.2,1.3-2.3,2.2-3.3c0.9-0.9,2-1.7,3.3-2.2c1.2-0.5,2.6-0.8,4-0.8h3.1c1.4,0,2.7,0.3,4,0.8c1.2,0.5,2.3,1.3,3.3,2.2
			c0.9,0.9,1.7,2,2.2,3.3c0.5,1.2,0.8,2.6,0.8,4v37.6c0,1.4-0.3,2.7-0.8,4c-0.5,1.2-1.3,2.3-2.2,3.3c-0.9,0.9-2,1.7-3.3,2.2
			c-1.2,0.5-2.6,0.8-4,0.8h-3.1c-1.4,0-2.7-0.3-4-0.8c-1.2-0.5-2.3-1.3-3.3-2.2c-0.9-0.9-1.7-2-2.2-3.3c-0.5-1.2-0.8-2.6-0.8-4V50.6
			z M84.1,50.6c0-1.4,0.3-2.7,0.8-4c0.5-1.2,1.3-2.3,2.2-3.3c0.9-0.9,2-1.7,3.3-2.2c1.2-0.5,2.6-0.8,4-0.8h3.1c1.4,0,2.7,0.3,4,0.8
			c1.2,0.5,2.3,1.3,3.3,2.2c0.9,0.9,1.7,2,2.2,3.3c0.5,1.2,0.8,2.6,0.8,4v2.6c0,0.8-0.4,1.2-1.1,1.5l-7.4,2.7
			c-0.7,0.2-1.1-0.1-1.1-0.8V51c0-0.5-0.2-1-0.6-1.4c-0.4-0.4-0.8-0.6-1.4-0.6h-0.7c-0.5,0-1,0.2-1.4,0.6c-0.4,0.4-0.6,0.8-0.6,1.4
			v36.8c0,0.5,0.2,1,0.6,1.4c0.4,0.4,0.8,0.6,1.4,0.6h0.7c0.5,0,1-0.2,1.4-0.6c0.4-0.4,0.6-0.8,0.6-1.4V73.3h-2.3v-9.3h10.7
			c0.8,0,1.1,0.4,1.1,1.1v23c0,1.4-0.3,2.7-0.8,4c-0.5,1.2-1.3,2.3-2.2,3.3c-0.9,0.9-2,1.7-3.3,2.2c-1.2,0.5-2.6,0.8-4,0.8h-3.1
			c-1.4,0-2.7-0.3-4-0.8c-1.2-0.5-2.3-1.3-3.3-2.2c-0.9-0.9-1.7-2-2.2-3.3c-0.5-1.2-0.8-2.6-0.8-4V50.6z M54.8,50.6
			c0-1.4,0.3-2.7,0.8-4c0.5-1.2,1.3-2.3,2.2-3.3c0.9-0.9,2-1.7,3.3-2.2c1.2-0.5,2.6-0.8,4-0.8h3.1c1.4,0,2.7,0.3,4,0.8
			c1.2,0.5,2.3,1.3,3.3,2.2c0.9,0.9,1.7,2,2.2,3.3c0.5,1.2,0.8,2.6,0.8,4v37.6c0,1.4-0.3,2.7-0.8,4c-0.5,1.2-1.3,2.3-2.2,3.3
			c-0.9,0.9-2,1.7-3.3,2.2c-1.2,0.5-2.6,0.8-4,0.8H65c-1.4,0-2.7-0.3-4-0.8c-1.2-0.5-2.3-1.3-3.3-2.2c-0.9-0.9-1.7-2-2.2-3.3
			c-0.5-1.2-0.8-2.6-0.8-4V50.6z M30.4,42.1c0-0.8,0.4-1.1,1.1-1.1h7.2c0.8,0,1.1,0.4,1.1,1.1v46.3H50c0.8,0,1.1,0.4,1.1,1.1v7.2
			c0,0.8-0.4,1.1-1.1,1.1H39h-0.2h-0.1h-7.2c-0.8,0-1.1-0.4-1.1-1.1V42.1z M90.4,229.8l-6.1-4.2l-6.1,4.2l2.1-7l-5.9-4.4l7.4-0.2
			l2.4-7l2.4,7l7.4,0.2l-5.9,4.4L90.4,229.8z M121.8,185.2H46.5v-2.1h25.2l12.6-12.6l12.6,12.6h25V185.2z M137.3,144.9H30.4v-37.7
			h106.9V144.9z"/>
		<polygon fill="#FFFFFF" points="64.3,133.5 61.5,133.5 61.5,128 71.2,128 71.2,133.5 68.4,133.5 68.4,136.6 77.8,136.6 
			77.8,133.5 75.1,133.5 75.1,119.2 77.8,119.2 77.8,116.1 68.4,116.1 68.4,119.2 71.2,119.2 71.2,124.8 61.5,124.8 61.5,119.2 
			64.3,119.2 64.3,116.1 54.8,116.1 54.8,119.2 57.6,119.2 57.6,133.5 54.8,133.5 54.8,136.6 64.3,136.6 		"/>
	</g>
</g>
</svg>
