<?xml version="1.0" encoding="utf-8"?>
<!-- Generator: Adobe Illustrator 19.2.1, SVG Export Plug-In . SVG Version: 6.00 Build 0)  -->
<svg version="1.1" id="Ebene_1" xmlns="http://www.w3.org/2000/svg" xmlns:xlink="http://www.w3.org/1999/xlink" x="0px" y="0px"
	 viewBox="0 0 168 364" enable-background="new 0 0 168 364" xml:space="preserve">
<g>
	<path fill="#F26651" d="M113.6,205.8h-0.5c-0.4,0-0.7,0.1-1,0.4c-0.3,0.3-0.4,0.6-0.4,1v26c0,0.4,0.1,0.7,0.4,1
		c0.3,0.3,0.6,0.4,1,0.4h0.5c0.4,0,0.7-0.1,1-0.4c0.3-0.3,0.4-0.6,0.4-1v-26c0-0.4-0.1-0.7-0.4-1C114.3,206,114,205.8,113.6,205.8z"
		/>
	<path fill="#F26651" d="M72.1,205.8h-0.5c-0.4,0-0.7,0.1-1,0.4c-0.3,0.3-0.4,0.6-0.4,1v26c0,0.4,0.1,0.7,0.4,1
		c0.3,0.3,0.6,0.4,1,0.4h0.5c0.4,0,0.7-0.1,1-0.4c0.3-0.3,0.4-0.6,0.4-1v-26c0-0.4-0.1-0.7-0.4-1C72.9,206,72.5,205.8,72.1,205.8z"
		/>
	<g>
		<path fill="#F26651" d="M84,6c43,0,78,35,78,78s-35,78-78,78S6,127,6,84S41,6,84,6 M84,0C37.6,0,0,37.6,0,84s37.6,84,84,84
			s84-37.6,84-84S130.4,0,84,0L84,0z"/>
	</g>
	<g>
		<path fill="#F26651" d="M142.7,285.7V149.5c-15.6,14-36.2,22.5-58.7,22.5s-43.1-8.5-58.7-22.5v136.2c5.6,0,10.1,4.5,10.1,10.1
			S30.9,306,25.3,306v15.5L83.9,364l58.8-42.6V306c-5.6,0-10.1-4.5-10.1-10.1S137.1,285.7,142.7,285.7z M136.7,310.8v7.6l-52.8,38.2
			l-52.6-38.2v-7.6c5.9-2.4,10.1-8.2,10.1-15s-4.2-12.6-10.1-15V161.8C46.8,172.3,65.1,178,84,178s37.2-5.7,52.7-16.2v119.1
			c-5.9,2.4-10.1,8.2-10.1,15S130.8,308.4,136.7,310.8z"/>
		<g>
			<path fill="#F26651" d="M50.1,267.9v-3.6h2.5v1.9c0.5,0.1,1.4,0.3,2.5,0.3c1.6,0,3-0.4,3-1.8c0-3.3-7.8-1.5-7.8-6.9
				c0-3.1,2.6-4.2,5.5-4.2c1.7,0,3.5,0.4,4.7,0.8v3.6h-2.5v-2c-0.5-0.1-1.3-0.2-2-0.2c-1.4,0-2.9,0.4-2.9,1.8c0,3.1,7.8,1.4,7.8,7
				c0,3.2-2.6,4.2-5.5,4.2C53.3,268.7,51.5,268.2,50.1,267.9z"/>
			<path fill="#F26651" d="M62.7,266.2h2V256h-2v-2.2h6.7v2.2h-2v4h6.9v-4h-2v-2.2h6.7v2.2h-2v10.2h2v2.2h-6.7v-2.2h2v-3.9h-6.9v3.9
				h2v2.2h-6.7V266.2z"/>
			<path fill="#F26651" d="M81,266.2h2V256h-2v-2.2h6.7v2.2h-2v10.2h2v2.2H81V266.2z"/>
			<path fill="#F26651" d="M89.7,266.2h2V256h-2v-2.2h7.1c4.3,0,6,2.4,6,4.6c0,1.7-1,3.3-3,3.9l2.2,3.9h1.8v2.2h-3.7l-3-5.4h-2.6
				v3.1h2v2.2h-6.7V266.2z M96.8,260.9c2.3,0,3.1-1.2,3.1-2.4s-0.8-2.4-3.1-2.4h-2.4v4.9H96.8z"/>
			<path fill="#F26651" d="M107.7,266.2h2.2V256h-2.7v2.2h-2.5v-4.4h13.3v4.4h-2.5V256h-2.7v10.2h2.2v2.2h-7.1V266.2z"/>
		</g>
		<path fill="#F26651" d="M134.7,279.6V165.5c-13,8.1-27.6,12.9-42.8,14.2l-8,7.8l-7.6-7.8c-15.3-1.2-30-6-43-14.2v114.1
			c6.2,3,10.1,9.3,10.1,16.3s-3.9,13.2-10.1,16.3v5.2l50.6,36.8l50.8-36.8v-5.2c-6.2-3-10.1-9.3-10.1-16.3S128.5,282.6,134.7,279.6z
			 M84.3,206.9c0-1,0.2-1.9,0.6-2.8c0.4-0.9,0.9-1.6,1.6-2.3c0.7-0.7,1.4-1.2,2.3-1.6c0.9-0.4,1.8-0.6,2.8-0.6h2.2
			c1,0,1.9,0.2,2.8,0.6c0.9,0.4,1.7,0.9,2.3,1.6c0.7,0.7,1.2,1.4,1.6,2.3c0.4,0.9,0.6,1.8,0.6,2.8v1.8c0,0.5-0.3,0.9-0.7,1l-5.2,1.9
			c-0.5,0.2-0.7,0-0.7-0.6v-3.9c0-0.4-0.1-0.7-0.4-1c-0.3-0.3-0.6-0.4-1-0.4h-0.5c-0.4,0-0.7,0.1-1,0.4c-0.3,0.3-0.4,0.6-0.4,1v26
			c0,0.4,0.1,0.7,0.4,1c0.3,0.3,0.6,0.4,1,0.4h0.5c0.4,0,0.7-0.1,1-0.4c0.3-0.3,0.4-0.6,0.4-1V223h-1.6v-6.6h7.5
			c0.5,0,0.8,0.3,0.8,0.8v16.3c0,1-0.2,1.9-0.6,2.8c-0.4,0.9-0.9,1.7-1.6,2.3c-0.7,0.7-1.4,1.2-2.3,1.6s-1.8,0.6-2.8,0.6h-2.2
			c-1,0-1.9-0.2-2.8-0.6s-1.6-0.9-2.3-1.6c-0.7-0.7-1.2-1.4-1.6-2.3c-0.4-0.9-0.6-1.8-0.6-2.8V206.9z M63.6,206.9
			c0-1,0.2-1.9,0.6-2.8c0.4-0.9,0.9-1.6,1.6-2.3c0.7-0.7,1.4-1.2,2.3-1.6c0.9-0.4,1.8-0.6,2.8-0.6H73c1,0,1.9,0.2,2.8,0.6
			c0.9,0.4,1.6,0.9,2.3,1.6c0.7,0.7,1.2,1.4,1.6,2.3c0.4,0.9,0.6,1.8,0.6,2.8v26.6c0,1-0.2,1.9-0.6,2.8c-0.4,0.9-0.9,1.7-1.6,2.3
			c-0.7,0.7-1.4,1.2-2.3,1.6c-0.9,0.4-1.8,0.6-2.8,0.6h-2.2c-1,0-1.9-0.2-2.8-0.6s-1.7-0.9-2.3-1.6c-0.7-0.7-1.2-1.4-1.6-2.3
			c-0.4-0.9-0.6-1.8-0.6-2.8V206.9z M46.3,200.9c0-0.5,0.3-0.8,0.8-0.8h5.1c0.5,0,0.8,0.3,0.8,0.8v32.7h7.1c0.5,0,0.8,0.3,0.8,0.8
			v5.1c0,0.5-0.3,0.8-0.8,0.8h-7.8h-0.1h-0.1h-5.1c-0.5,0-0.8-0.3-0.8-0.8V200.9z M88.2,328.8l-4.2-2.9l-4.2,2.9l1.5-4.9l-4.1-3.1
			l5.2-0.1l1.7-4.9l1.7,4.9l5.2,0.1l-4.1,3.1L88.2,328.8z M110.4,297.6H57.6v-1.5h17.6l8.8-8.8l8.8,8.8h17.5V297.6z M121.7,275.2
			H46.3V247h75.4V275.2z M121.7,233.5c0,1-0.2,1.9-0.6,2.8c-0.4,0.9-0.9,1.7-1.6,2.3c-0.7,0.7-1.4,1.2-2.3,1.6s-1.8,0.6-2.8,0.6
			h-2.2c-1,0-1.9-0.2-2.8-0.6s-1.6-0.9-2.3-1.6c-0.7-0.7-1.2-1.4-1.6-2.3c-0.4-0.9-0.6-1.8-0.6-2.8v-26.6c0-1,0.2-1.9,0.6-2.8
			c0.4-0.9,0.9-1.6,1.6-2.3c0.7-0.7,1.4-1.2,2.3-1.6c0.9-0.4,1.8-0.6,2.8-0.6h2.2c1,0,1.9,0.2,2.8,0.6c0.9,0.4,1.7,0.9,2.3,1.6
			c0.7,0.7,1.2,1.4,1.6,2.3c0.4,0.9,0.6,1.8,0.6,2.8V233.5z"/>
	</g>
	<polygon fill="none" points="84,325.9 88.2,328.8 86.7,323.9 90.8,320.8 85.7,320.7 84,315.8 84,315.8 84,325.9 	"/>
	<path opacity="0.1" fill="#FFFFFF" d="M83.9,356.6l-52.6-38.2v-7.6c5.9-2.4,10.1-8.2,10.1-15s-4.2-12.6-10.1-15V161.8
		C46.8,172.3,65.1,178,84,178v-6c-22.5,0-43.1-8.5-58.7-22.5v136.2c5.6,0,10.1,4.5,10.1,10.1S30.9,306,25.3,306v15.5L83.9,364
		l0.1-0.1L83.9,356.6L83.9,356.6z"/>
	<path opacity="0.1" fill="#FFFFFF" d="M60.8,264.4c0-5.6-7.8-3.9-7.8-7c0-1.3,1.4-1.8,2.9-1.8c0.8,0,1.6,0.1,2,0.2v2h2.5v-3.6
		c-1.2-0.4-3-0.8-4.7-0.8c-2.9,0-5.5,1.2-5.5,4.2c0,5.4,7.8,3.6,7.8,6.9c0,1.4-1.5,1.8-3,1.8c-1.1,0-2-0.2-2.5-0.3v-1.9h-2.5v3.6
		c1.4,0.4,3.3,0.8,5.2,0.8C58.2,268.7,60.8,267.6,60.8,264.4z"/>
	<polygon opacity="0.1" fill="#FFFFFF" points="69.4,266.2 67.4,266.2 67.4,262.2 74.4,262.2 74.4,266.2 72.4,266.2 72.4,268.4 
		79.1,268.4 79.1,266.2 77.2,266.2 77.2,256 79.1,256 79.1,253.8 72.4,253.8 72.4,256 74.4,256 74.4,259.9 67.4,259.9 67.4,256 
		69.4,256 69.4,253.8 62.7,253.8 62.7,256 64.7,256 64.7,266.2 62.7,266.2 62.7,268.4 69.4,268.4 	"/>
	<polygon opacity="0.1" fill="#FFFFFF" points="81,253.8 81,256 83,256 83,266.2 81,266.2 81,268.4 84,268.4 84,253.8 	"/>
	<path opacity="0.1" fill="#FFFFFF" d="M79.8,328.8l1.5-4.9l-4.1-3.1l5.2-0.1l1.7-4.9v-18.2H57.6v-1.5h17.6l8.7-8.7v-12.3H46.3V247
		H84v-59.6l-0.1,0.1l-7.6-7.8c-15.3-1.2-30-6-43-14.2v114.1c6.2,3,10.1,9.3,10.1,16.3s-3.9,13.2-10.1,16.3v5.2l50.6,36.8l0.1-0.1
		v-28.2L79.8,328.8z M63.6,206.9c0-1,0.2-1.9,0.6-2.8c0.4-0.9,0.9-1.6,1.6-2.3c0.7-0.7,1.4-1.2,2.3-1.6c0.9-0.4,1.8-0.6,2.8-0.6H73
		c1,0,1.9,0.2,2.8,0.6c0.9,0.4,1.6,0.9,2.3,1.6c0.7,0.7,1.2,1.4,1.6,2.3c0.4,0.9,0.6,1.8,0.6,2.8v26.6c0,1-0.2,1.9-0.6,2.8
		c-0.4,0.9-0.9,1.7-1.6,2.3c-0.7,0.7-1.4,1.2-2.3,1.6c-0.9,0.4-1.8,0.6-2.8,0.6h-2.2c-1,0-1.9-0.2-2.8-0.6s-1.7-0.9-2.3-1.6
		c-0.7-0.7-1.2-1.4-1.6-2.3c-0.4-0.9-0.6-1.8-0.6-2.8V206.9z M46.3,200.9c0-0.5,0.3-0.8,0.8-0.8h5.1c0.5,0,0.8,0.3,0.8,0.8v32.7h7.1
		c0.5,0,0.8,0.3,0.8,0.8v5.1c0,0.5-0.3,0.8-0.8,0.8h-7.8h-0.1h-0.1h-5.1c-0.5,0-0.8-0.3-0.8-0.8V200.9z"/>
	<g>
		<g>
			<path fill="#F26651" d="M100.6,123.2h-0.8v4.3h0.8c0.2,0,0.3-0.1,0.4-0.2c0.1-0.1,0.2-0.3,0.2-0.4v-3c0-0.2-0.1-0.3-0.2-0.4
				C100.9,123.2,100.8,123.2,100.6,123.2z"/>
			<polygon fill="#F26651" points="68.9,125.4 68.4,132.2 69.6,132.2 69.1,125.4 			"/>
			<path fill="#F26651" d="M100.6,130.2h-0.8v5.2h0.8c0.2,0,0.3-0.1,0.4-0.2c0.1-0.1,0.2-0.3,0.2-0.4v-4c0-0.2-0.1-0.3-0.2-0.4
				C100.9,130.2,100.8,130.2,100.6,130.2z"/>
			<polygon fill="#F26651" points="91.2,125.4 90.8,132.2 91.9,132.2 91.4,125.4 			"/>
			<path fill="#F26651" d="M17.1,112c11,26.1,36.8,44.5,66.9,44.5s55.9-18.4,66.9-44.5H17.1z M55.2,138h-2.3c-0.2,0-0.3-0.1-0.4-0.3
				l-0.2-2.7h-1.5l-0.2,2.7c0,0.2-0.2,0.3-0.4,0.3h-2.3c-0.2,0-0.3-0.1-0.3-0.3l1.9-16.8c0-0.2,0.2-0.3,0.4-0.3h3.3
				c0.2,0,0.4,0.1,0.4,0.3l1.9,16.8C55.5,137.9,55.4,138,55.2,138z M61.7,137.7c0,0.2-0.2,0.3-0.4,0.3h-2.2c-0.2,0-0.4-0.1-0.4-0.3
				l-2.9-16.8c0-0.2,0.1-0.3,0.3-0.3h2.7c0.2,0,0.3,0.1,0.4,0.3l1,10.6h0.1l1-10.6c0-0.2,0.2-0.3,0.4-0.3h2.7c0.2,0,0.3,0.1,0.3,0.3
				L61.7,137.7z M72.6,138h-2.3c-0.2,0-0.3-0.1-0.4-0.3l-0.2-2.7h-1.5l-0.2,2.7c0,0.2-0.2,0.3-0.4,0.3h-2.3c-0.2,0-0.3-0.1-0.3-0.3
				l1.9-16.8c0-0.2,0.2-0.3,0.4-0.3h3.3c0.2,0,0.4,0.1,0.4,0.3l1.9,16.8C73,137.9,72.9,138,72.6,138z M77.5,137.7
				c0,0.2-0.1,0.3-0.3,0.3h-2.2c-0.2,0-0.3-0.1-0.3-0.3v-16.8c0-0.2,0.1-0.3,0.3-0.3h2.2c0.2,0,0.3,0.1,0.3,0.3V137.7z M86.3,137.7
				c0,0.2-0.1,0.3-0.3,0.3h-3.4h-0.1h0h-2.2c-0.2,0-0.3-0.1-0.3-0.3v-16.8c0-0.2,0.1-0.3,0.3-0.3h2.2c0.2,0,0.3,0.1,0.3,0.3v14.2
				h3.1c0.2,0,0.3,0.1,0.3,0.3V137.7z M95,138h-2.3c-0.2,0-0.3-0.1-0.4-0.3l-0.2-2.7h-1.5l-0.2,2.7c0,0.2-0.2,0.3-0.4,0.3h-2.3
				c-0.2,0-0.3-0.1-0.3-0.3l1.9-16.8c0-0.2,0.2-0.3,0.4-0.3H93c0.2,0,0.4,0.1,0.4,0.3l1.9,16.8C95.3,137.9,95.2,138,95,138z
				 M104.2,126.2c0,0.8-0.2,1.4-0.7,1.9c-0.3,0.3-0.5,0.5-0.9,0.6c0.4,0.1,0.7,0.3,0.9,0.6s0.4,0.5,0.5,0.8c0.1,0.3,0.2,0.7,0.2,1.1
				v3.7c0,0.4-0.1,0.8-0.3,1.2c-0.2,0.4-0.4,0.7-0.7,1c-0.3,0.3-0.6,0.5-1,0.7c-0.4,0.2-0.8,0.3-1.2,0.3h-3.8
				c-0.2,0-0.3-0.1-0.3-0.3v-16.8c0-0.2,0.1-0.3,0.3-0.3h3.8c0.4,0,0.8,0.1,1.2,0.3c0.4,0.2,0.7,0.4,1,0.7c0.3,0.3,0.5,0.6,0.7,1
				c0.2,0.4,0.3,0.8,0.3,1.2V126.2z M112.5,137.7c0,0.2-0.1,0.3-0.3,0.3h-3.4h-0.1h0h-2.2c-0.2,0-0.3-0.1-0.3-0.3v-16.8
				c0-0.2,0.1-0.3,0.3-0.3h2.2c0.2,0,0.3,0.1,0.3,0.3v14.2h3.1c0.2,0,0.3,0.1,0.3,0.3V137.7z M120.4,123.1c0,0.2-0.1,0.3-0.3,0.3
				h-2.9v3.6h2.5c0.2,0,0.3,0.1,0.3,0.3v2.2c0,0.2-0.1,0.4-0.3,0.4h-2.5v5.1h2.9c0.2,0,0.3,0.1,0.3,0.3v2.2c0,0.2-0.1,0.3-0.3,0.3
				h-5.4c-0.2,0-0.3-0.1-0.3-0.3v-16.8c0-0.2,0.1-0.3,0.3-0.3h5.4c0.2,0,0.3,0.1,0.3,0.3V123.1z"/>
			<polygon fill="#F26651" points="51.4,125.4 51,132.2 52.1,132.2 51.6,125.4 			"/>
		</g>
		<g>
			<path fill="#F26651" d="M84,12.5c39.4,0,71.5,32.1,71.5,71.5s-32.1,71.5-71.5,71.5S12.5,123.4,12.5,84S44.6,12.5,84,12.5
				 M84,11.5C44,11.5,11.5,44,11.5,84c0,40,32.5,72.5,72.5,72.5S156.5,124,156.5,84C156.5,44,124,11.5,84,11.5L84,11.5z"/>
		</g>
	</g>
</g>
</svg>
