<?xml version="1.0" encoding="utf-8"?>
<!-- Generator: Adobe Illustrator 19.2.1, SVG Export Plug-In . SVG Version: 6.00 Build 0)  -->
<svg version="1.1" id="Ebene_1" xmlns="http://www.w3.org/2000/svg" xmlns:xlink="http://www.w3.org/1999/xlink" x="0px" y="0px"
	 viewBox="0 0 167.7 280" enable-background="new 0 0 167.7 280" xml:space="preserve">
<g>
	<path fill="#FFFFFF" d="M167.7,168.2V0H0v168.2c8,0,14.5,6.5,14.5,14.5S8,197.1,0,197.1v22.1L83.7,280l84-60.8v-22.1
		c-8,0-14.5-6.5-14.5-14.5S159.7,168.2,167.7,168.2z M159.3,203.9v11l-75.6,54.7L8.4,214.9v-11c8.5-3.4,14.5-11.6,14.5-21.3
		c0-9.6-6-17.9-14.5-21.3V8.4h150.9v153c-8.5,3.4-14.5,11.6-14.5,21.3C144.8,192.3,150.8,200.6,159.3,203.9z"/>
	<g>
		<polygon fill="#FFFFFF" points="64.3,133.5 61.5,133.5 61.5,128 71.2,128 71.2,133.5 68.4,133.5 68.4,136.6 77.8,136.6 
			77.8,133.5 75.1,133.5 75.1,119.2 77.8,119.2 77.8,116.1 68.4,116.1 68.4,119.2 71.2,119.2 71.2,124.8 61.5,124.8 61.5,119.2 
			64.3,119.2 64.3,116.1 54.8,116.1 54.8,119.2 57.6,119.2 57.6,133.5 54.8,133.5 54.8,136.6 64.3,136.6 		"/>
		<polygon fill="#FFFFFF" points="117,119.2 120.8,119.2 120.8,133.5 117.8,133.5 117.8,136.6 127.7,136.6 127.7,133.5 124.7,133.5 
			124.7,119.2 128.5,119.2 128.5,122.3 132,122.3 132,116.1 113.5,116.1 113.5,122.3 117,122.3 		"/>
		<path fill="#FFFFFF" d="M102,133.5h-2.8v-4.4h3.7l4.2,7.5h5.2v-3.1h-2.5l-3.1-5.4c2.8-0.9,4.1-3.1,4.1-5.5c0-3.1-2.3-6.4-8.3-6.4
			h-9.9v3.1h2.8v14.3h-2.8v3.1h9.4V133.5z M99.2,119.2h3.3c3.2,0,4.3,1.6,4.3,3.4s-1.1,3.4-4.3,3.4h-3.3V119.2z"/>
		<polygon fill="#FFFFFF" points="89.9,133.5 87.1,133.5 87.1,119.2 89.9,119.2 89.9,116.1 80.5,116.1 80.5,119.2 83.2,119.2 
			83.2,133.5 80.5,133.5 80.5,136.6 89.9,136.6 		"/>
		<path fill="#FFFFFF" d="M156,159.2V11.7H96.4L83.8,24.3L71.3,11.7H11.7v147.5c8.9,4.4,14.5,13.4,14.5,23.4c0,10-5.6,19-14.5,23.4
			v7.1l72,52.3l72.2-52.3v-7.1c-8.9-4.4-14.5-13.4-14.5-23.4C141.5,172.6,147.1,163.6,156,159.2z M85.3,43.7c0-0.7,0.4-1.1,1.1-1.1
			h16.9c0.7,0,1.1,0.4,1.1,1.1v6.9c0,0.7-0.4,1.1-1.1,1.1h-8.9V63h7.7c0.7,0,1.1,0.4,1.1,1.1V71c0,0.7-0.4,1.1-1.1,1.1h-7.7v16h8.9
			c0.7,0,1.1,0.4,1.1,1.1v6.9c0,0.7-0.4,1.1-1.1,1.1H86.4c-0.7,0-1.1-0.4-1.1-1.1V43.7z M59.6,43.7c0-0.7,0.4-1.1,1.1-1.1h16.9
			c0.7,0,1.1,0.4,1.1,1.1v6.9c0,0.7-0.4,1.1-1.1,1.1h-8.9V63h7.7c0.7,0,1.1,0.4,1.1,1.1V71c0,0.7-0.4,1.1-1.1,1.1h-7.7v16h8.9
			c0.7,0,1.1,0.4,1.1,1.1v6.9c0,0.7-0.4,1.1-1.1,1.1H60.7c-0.7,0-1.1-0.4-1.1-1.1V43.7z M30.7,51.9c0-1.4,0.3-2.6,0.8-3.8
			c0.5-1.2,1.2-2.2,2.1-3.1c0.9-0.9,1.9-1.6,3.1-2.1s2.5-0.8,3.8-0.8h3c1.4,0,2.6,0.3,3.8,0.8c1.2,0.5,2.2,1.2,3.1,2.1
			c0.9,0.9,1.6,1.9,2.1,3.1c0.5,1.2,0.8,2.5,0.8,3.8v2.5c0,0.7-0.3,1.2-1,1.4l-7.1,2.6c-0.7,0.2-1-0.1-1-0.8v-5.3
			c0-0.5-0.2-1-0.5-1.3c-0.4-0.4-0.8-0.5-1.3-0.5h-0.6c-0.5,0-1,0.2-1.3,0.5c-0.4,0.4-0.5,0.8-0.5,1.3v35.3c0,0.5,0.2,1,0.5,1.3
			c0.4,0.4,0.8,0.5,1.3,0.5h0.6c0.5,0,1-0.2,1.3-0.5c0.4-0.4,0.5-0.8,0.5-1.3V73.7H42v-8.9h10.2c0.7,0,1.1,0.4,1.1,1.1V88
			c0,1.4-0.3,2.6-0.8,3.8C52,93,51.3,94,50.4,94.9c-0.9,0.9-1.9,1.6-3.1,2.1c-1.2,0.5-2.5,0.8-3.8,0.8h-3c-1.4,0-2.6-0.3-3.8-0.8
			c-1.2-0.5-2.2-1.2-3.1-2.1C32.7,94,32,93,31.5,91.8c-0.5-1.2-0.8-2.5-0.8-3.8V51.9z M90.4,229.8l-6.1-4.2l-6.1,4.2l2.1-7l-5.9-4.4
			l7.4-0.2l2.4-7l2.4,7l7.4,0.2l-5.9,4.4L90.4,229.8z M121.8,185.2H46.5v-2.1h25.2l12.6-12.6l12.6,12.6h25V185.2z M137.3,144.9H30.4
			v-37.7h106.9V144.9z M137.3,43.7l-10.5,23l10.3,29.4c0.1,0.3,0.1,0.5-0.1,0.7c-0.2,0.2-0.4,0.4-0.7,0.4h-7.7
			c-0.3,0-0.6-0.1-0.9-0.3c-0.3-0.2-0.4-0.4-0.5-0.7l-5.7-17.6l-1.3,3.3v14.2c0,0.7-0.4,1.1-1.1,1.1h-6.9c-0.7,0-1.1-0.4-1.1-1.1
			V43.7c0-0.7,0.4-1.1,1.1-1.1h6.9c0.7,0,1.1,0.4,1.1,1.1v16.8l7.2-16.9c0.3-0.6,0.8-0.9,1.5-0.9h7.8c0.3,0,0.5,0.1,0.6,0.4
			C137.5,43.2,137.5,43.4,137.3,43.7z"/>
		<path fill="#FFFFFF" d="M52.2,131.1c0-7.8-11-5.4-11-9.8c0-1.9,2-2.5,4-2.5c1.1,0,2.2,0.2,2.9,0.3v2.8h3.6v-5
			c-1.7-0.6-4.2-1.1-6.5-1.1c-4,0-7.6,1.6-7.6,5.9c0,7.5,11,5,11,9.7c0,2-2,2.6-4.2,2.6c-1.5,0-2.8-0.3-3.5-0.4v-2.7h-3.5v5.1
			c1.9,0.5,4.6,1.1,7.2,1.1C48.5,137,52.2,135.5,52.2,131.1z"/>
	</g>
</g>
</svg>
