<?xml version="1.0" encoding="utf-8"?>
<!-- Generator: Adobe Illustrator 19.2.1, SVG Export Plug-In . SVG Version: 6.00 Build 0)  -->
<svg version="1.1" id="Ebene_1" xmlns="http://www.w3.org/2000/svg" xmlns:xlink="http://www.w3.org/1999/xlink" x="0px" y="0px"
	 viewBox="0 0 280 56" enable-background="new 0 0 280 56" xml:space="preserve">
<g>
	<g>
		<path fill="#FFFFFF" d="M155,25.1V0h-30v25.1c1.4,0,2.6,1.2,2.6,2.6c0,1.4-1.2,2.6-2.6,2.6v4l15,10.9l15-10.9v-4
			c-1.4,0-2.6-1.2-2.6-2.6C152.4,26.2,153.6,25.1,155,25.1z M147.6,28.4h-14.9c-0.3,0-0.6-0.3-0.6-0.6c0-0.3,0.3-0.6,0.6-0.6h14.9
			c0.3,0,0.6,0.3,0.6,0.6C148.2,28.1,147.9,28.4,147.6,28.4z M134.1,17.3l0.2-3l5.4,1.7c0.2,0,0.3,0.1,0.5,0.1s0.3,0,0.5-0.1
			l5.4-1.7l0.2,3c0.1,1.3-2.7,2.4-6,2.4S134,18.6,134.1,17.3z M150.6,11.6l-10.5,3.3c0,0-0.1,0-0.1,0s-0.1,0-0.1,0l-6.1-1.9
			c-0.5,0.4-0.9,1.5-1,2.7c0.4,0.2,0.6,0.6,0.6,1c0,0.4-0.2,0.8-0.5,1l0.5,4.1c0,0.1,0,0.2-0.1,0.2c-0.1,0.1-0.1,0.1-0.2,0.1h-1.8
			c-0.1,0-0.2,0-0.2-0.1c-0.1-0.1-0.1-0.1-0.1-0.2l0.5-4.1c-0.3-0.2-0.5-0.6-0.5-1c0-0.4,0.3-0.8,0.6-1c0.1-1.1,0.3-2.3,0.9-3.1
			l-3.1-1c-0.1,0-0.2-0.2-0.2-0.3s0.1-0.2,0.2-0.3L140,7.7c0,0,0.1,0,0.1,0s0.1,0,0.1,0l10.5,3.3c0.1,0,0.2,0.2,0.2,0.3
			S150.8,11.5,150.6,11.6z"/>
	</g>
	<g>
		<g>
			<rect x="161.8" fill="#FFFFFF" width="118.2" height="1"/>
		</g>
		<g>
			<rect x="0" fill="#FFFFFF" width="117.9" height="1"/>
		</g>
	</g>
</g>
</svg>
