<?xml version="1.0" encoding="utf-8"?>
<!-- Generator: Adobe Illustrator 19.2.1, SVG Export Plug-In . SVG Version: 6.00 Build 0)  -->
<svg version="1.1" id="Ebene_1" xmlns="http://www.w3.org/2000/svg" xmlns:xlink="http://www.w3.org/1999/xlink" x="0px" y="0px"
	 viewBox="0 0 280 56" enable-background="new 0 0 280 56" xml:space="preserve">
<g>
	<g>
		<path fill="#232323" d="M158.6,31.2V0h-37.3v31.2c1.8,0,3.2,1.4,3.2,3.2c0,1.8-1.4,3.2-3.2,3.2v4.9L140,56l18.7-13.5v-4.9
			c-1.8,0-3.2-1.4-3.2-3.2C155.4,32.6,156.9,31.2,158.6,31.2z M128.2,9.9c0-0.4,0.4-0.8,0.8-0.8h3.2c0.8,0,0.9,1,1,1.6h15
			c0.4,0,0.8,0.4,0.8,0.8v6.4c0,0.4-0.3,0.7-0.7,0.8l-13,1.5c0.1,0.3,0.2,0.6,0.2,0.9c0,0.3-0.2,0.5-0.3,0.8h11.5
			c0.4,0,0.8,0.4,0.8,0.8s-0.4,0.8-0.8,0.8h-0.8c0.9,0,1.6,0.7,1.6,1.6s-0.7,1.6-1.6,1.6c-0.9,0-1.6-0.7-1.6-1.6s0.7-1.6,1.6-1.6
			h-11.2c0.9,0,1.6,0.7,1.6,1.6s-0.7,1.6-1.6,1.6S133,26,133,25.1s0.7-1.6,1.6-1.6h-0.8c-0.4,0-0.8-0.4-0.8-0.8
			c0-0.4,0.6-1.3,0.8-1.7l-2.2-10.3H129C128.5,10.7,128.2,10.4,128.2,9.9z M149.4,35.2h-18.5c-0.4,0-0.7-0.3-0.7-0.7
			c0-0.4,0.3-0.7,0.7-0.7h18.5c0.4,0,0.7,0.3,0.7,0.7C150.2,34.9,149.9,35.2,149.4,35.2z"/>
	</g>
	<g>
		<g>
			<rect x="161.8" y="0" fill="#232323" width="118.2" height="1"/>
		</g>
		<g>
			<rect x="0" y="0" fill="#232323" width="117.9" height="1"/>
		</g>
	</g>
</g>
</svg>
