<?xml version="1.0" encoding="utf-8"?>
<!-- Generator: Adobe Illustrator 19.2.1, SVG Export Plug-In . SVG Version: 6.00 Build 0)  -->
<svg version="1.1" id="Ebene_1" xmlns="http://www.w3.org/2000/svg" xmlns:xlink="http://www.w3.org/1999/xlink" x="0px" y="0px"
	 viewBox="0 0 280 56" enable-background="new 0 0 280 56" xml:space="preserve">
<g>
	<g>
		<path fill="#232323" d="M158.6,31.2V0h-37.3v31.2c1.8,0,3.2,1.4,3.2,3.2c0,1.8-1.4,3.2-3.2,3.2v4.9L140,56l18.7-13.5v-4.9
			c-1.8,0-3.2-1.4-3.2-3.2C155.4,32.6,156.9,31.2,158.6,31.2z M149.4,35.2h-18.5c-0.4,0-0.7-0.3-0.7-0.7c0-0.4,0.3-0.7,0.7-0.7h18.5
			c0.4,0,0.7,0.3,0.7,0.7C150.2,34.9,149.9,35.2,149.4,35.2z M132.6,21.4l0.2-3.7l6.7,2.1c0.2,0.1,0.4,0.1,0.6,0.1s0.4,0,0.6-0.1
			l6.7-2.1l0.2,3.7c0.1,1.6-3.3,3-7.4,3C136,24.4,132.5,23.1,132.6,21.4z M153.2,14.3l-13,4.1c0,0-0.1,0-0.1,0s-0.1,0-0.1,0
			l-7.6-2.4c-0.7,0.5-1.1,1.8-1.2,3.4c0.4,0.3,0.7,0.7,0.7,1.3c0,0.5-0.3,1-0.7,1.2l0.7,5c0,0.1,0,0.2-0.1,0.3
			c-0.1,0.1-0.2,0.1-0.3,0.1h-2.2c-0.1,0-0.2,0-0.3-0.1c-0.1-0.1-0.1-0.2-0.1-0.3l0.7-5c-0.4-0.3-0.7-0.7-0.7-1.2
			c0-0.6,0.3-1,0.8-1.3c0.1-1.4,0.4-2.8,1.1-3.8l-3.9-1.2c-0.2-0.1-0.3-0.2-0.3-0.4s0.1-0.3,0.3-0.4l13-4.1c0,0,0.1,0,0.1,0
			s0.1,0,0.1,0l13,4.1c0.2,0.1,0.3,0.2,0.3,0.4S153.4,14.3,153.2,14.3z"/>
	</g>
	<g>
		<g>
			<rect x="161.8" fill="#232323" width="118.2" height="1"/>
		</g>
		<g>
			<rect x="0" fill="#232323" width="117.9" height="1"/>
		</g>
	</g>
</g>
</svg>
