<?xml version="1.0" encoding="utf-8"?>
<!-- Generator: Adobe Illustrator 19.2.1, SVG Export Plug-In . SVG Version: 6.00 Build 0)  -->
<svg version="1.1" id="Ebene_1" xmlns="http://www.w3.org/2000/svg" xmlns:xlink="http://www.w3.org/1999/xlink" x="0px" y="0px"
	 viewBox="0 0 280 56" enable-background="new 0 0 280 56" xml:space="preserve">
<g>
	<g>
		<path fill="#232323" d="M155,25.1V0h-30v25.1c1.4,0,2.6,1.2,2.6,2.6c0,1.4-1.2,2.6-2.6,2.6v4l15,10.9l15-10.9v-4
			c-1.4,0-2.6-1.2-2.6-2.6C152.4,26.2,153.6,25.1,155,25.1z M130.5,8c0-0.4,0.3-0.6,0.6-0.6h2.6c0.7,0,0.7,0.8,0.8,1.3h12.1
			c0.4,0,0.6,0.3,0.6,0.6v5.1c0,0.3-0.3,0.6-0.6,0.6l-10.5,1.2c0.1,0.2,0.1,0.5,0.1,0.7c0,0.2-0.1,0.4-0.2,0.6h9.2
			c0.4,0,0.6,0.3,0.6,0.6s-0.3,0.6-0.6,0.6h-0.6c0.7,0,1.3,0.6,1.3,1.3s-0.6,1.3-1.3,1.3s-1.3-0.6-1.3-1.3s0.6-1.3,1.3-1.3h-9
			c0.7,0,1.3,0.6,1.3,1.3s-0.6,1.3-1.3,1.3s-1.3-0.6-1.3-1.3s0.6-1.3,1.3-1.3H135c-0.4,0-0.6-0.3-0.6-0.6c0-0.3,0.5-1.1,0.6-1.4
			l-1.8-8.3h-2C130.8,8.6,130.5,8.3,130.5,8z M147.6,28.4h-14.9c-0.3,0-0.6-0.3-0.6-0.6c0-0.3,0.3-0.6,0.6-0.6h14.9
			c0.3,0,0.6,0.3,0.6,0.6C148.2,28.1,147.9,28.4,147.6,28.4z"/>
	</g>
	<g>
		<g>
			<rect x="161.8" y="0" fill="#232323" width="118.2" height="1"/>
		</g>
		<g>
			<rect x="0" y="0" fill="#232323" width="117.9" height="1"/>
		</g>
	</g>
</g>
</svg>
