<?xml version="1.0" encoding="utf-8"?>
<!-- Generator: Adobe Illustrator 19.2.1, SVG Export Plug-In . SVG Version: 6.00 Build 0)  -->
<svg version="1.1" id="Ebene_1" xmlns="http://www.w3.org/2000/svg" xmlns:xlink="http://www.w3.org/1999/xlink" x="0px" y="0px"
	 viewBox="0 0 280 56" enable-background="new 0 0 280 56" xml:space="preserve">
<g>
	<g>
		<g>
			<rect x="161.8" y="0" fill="#FFFFFF" width="118.2" height="1"/>
		</g>
		<g>
			<rect x="0" y="0" fill="#FFFFFF" width="117.9" height="1"/>
		</g>
	</g>
	<g>
		<path fill="#FFFFFF" d="M155,25.1V0h-30v25.1c1.4,0,2.6,1.2,2.6,2.6c0,1.4-1.2,2.6-2.6,2.6v4l15,10.9l15-10.9v-4
			c-1.4,0-2.6-1.2-2.6-2.6C152.4,26.2,153.6,25.1,155,25.1z M133.3,8.8c0.2-0.3,0.5-0.4,0.9-0.4h11.5c0.3,0,0.6,0.1,0.9,0.4
			s0.4,0.5,0.4,0.9c0,0.4-0.1,0.8-0.4,1.2s-0.6,0.7-1,1c-2,1.4-3.2,2.2-3.7,2.5c-0.1,0-0.2,0.1-0.3,0.2s-0.3,0.2-0.4,0.3
			s-0.2,0.2-0.4,0.3s-0.3,0.2-0.4,0.2s-0.3,0.1-0.4,0.1h0h0c-0.1,0-0.3,0-0.4-0.1s-0.3-0.1-0.4-0.2s-0.3-0.2-0.4-0.3
			s-0.3-0.2-0.4-0.3s-0.3-0.2-0.3-0.2c-0.5-0.3-1.2-0.8-2-1.4s-1.4-1-1.6-1.1c-0.3-0.2-0.6-0.5-0.9-0.9s-0.4-0.7-0.4-1.1
			C133,9.4,133.1,9.1,133.3,8.8z M133,12c0.2,0.3,0.5,0.5,0.8,0.7c1.9,1.3,3.2,2.2,3.9,2.7c0.3,0.2,0.5,0.4,0.7,0.5s0.4,0.2,0.7,0.4
			s0.6,0.2,0.9,0.2h0h0c0.3,0,0.6-0.1,0.9-0.2s0.6-0.3,0.7-0.4s0.4-0.3,0.7-0.5c0.9-0.6,2.2-1.5,3.9-2.7c0.3-0.2,0.6-0.4,0.8-0.7
			v6.2c0,0.3-0.1,0.6-0.4,0.9s-0.5,0.4-0.9,0.4h-11.5c-0.3,0-0.6-0.1-0.9-0.4s-0.4-0.5-0.4-0.9V12z M147.6,28.4h-14.9
			c-0.3,0-0.6-0.3-0.6-0.6c0-0.3,0.3-0.6,0.6-0.6h14.9c0.3,0,0.6,0.3,0.6,0.6C148.2,28.1,147.9,28.4,147.6,28.4z"/>
	</g>
</g>
</svg>
