<?xml version="1.0" encoding="utf-8"?>
<!-- Generator: Adobe Illustrator 19.2.1, SVG Export Plug-In . SVG Version: 6.00 Build 0)  -->
<svg version="1.1" id="Ebene_1" xmlns="http://www.w3.org/2000/svg" xmlns:xlink="http://www.w3.org/1999/xlink" x="0px" y="0px"
	 viewBox="0 0 370 56" enable-background="new 0 0 370 56" xml:space="preserve">
<g>
	<g>
		<g>
			<rect x="206.8" y="0" fill="#F2F2F2" width="153.2" height="1"/>
		</g>
		<g>
			<rect x="10" y="0" fill="#F2F2F2" width="152.9" height="1"/>
		</g>
	</g>
	<g>
		<path fill="#F2F2F2" d="M203.6,31.2V0h-37.3v31.2c1.8,0,3.2,1.4,3.2,3.2c0,1.8-1.4,3.2-3.2,3.2v4.9L185,56l18.7-13.5v-4.9
			c-1.8,0-3.2-1.4-3.2-3.2C200.4,32.6,201.9,31.2,203.6,31.2z M176.7,11c0.3-0.3,0.7-0.5,1.1-0.5h14.3c0.4,0,0.8,0.2,1.1,0.5
			c0.3,0.3,0.5,0.7,0.5,1.1c0,0.5-0.2,1-0.5,1.5c-0.3,0.5-0.7,0.9-1.2,1.2c-2.4,1.7-3.9,2.7-4.5,3.2c-0.1,0-0.2,0.1-0.4,0.3
			c-0.2,0.2-0.4,0.3-0.5,0.4c-0.1,0.1-0.3,0.2-0.5,0.3c-0.2,0.1-0.4,0.2-0.6,0.3c-0.2,0.1-0.3,0.1-0.5,0.1h0h0c-0.1,0-0.3,0-0.5-0.1
			c-0.2-0.1-0.4-0.1-0.6-0.3c-0.2-0.1-0.4-0.2-0.5-0.3c-0.1-0.1-0.3-0.2-0.5-0.4c-0.2-0.2-0.3-0.3-0.4-0.3c-0.6-0.4-1.4-1-2.5-1.8
			c-1.1-0.8-1.8-1.2-2-1.4c-0.4-0.3-0.8-0.6-1.1-1.1c-0.4-0.5-0.5-0.9-0.5-1.3C176.3,11.7,176.5,11.3,176.7,11z M176.3,14.9
			c0.3,0.3,0.6,0.6,1,0.8c2.3,1.6,3.9,2.7,4.8,3.3c0.4,0.3,0.7,0.5,0.9,0.6c0.2,0.2,0.5,0.3,0.9,0.5c0.4,0.2,0.7,0.2,1.1,0.2h0h0
			c0.3,0,0.7-0.1,1.1-0.2c0.4-0.2,0.7-0.3,0.9-0.5c0.2-0.2,0.5-0.4,0.9-0.6c1.1-0.8,2.7-1.9,4.8-3.3c0.4-0.3,0.7-0.5,1-0.8v7.7
			c0,0.4-0.2,0.8-0.5,1.1c-0.3,0.3-0.7,0.5-1.1,0.5h-14.3c-0.4,0-0.8-0.2-1.1-0.5c-0.3-0.3-0.5-0.7-0.5-1.1V14.9z M194.4,35.2h-18.5
			c-0.4,0-0.7-0.3-0.7-0.7c0-0.4,0.3-0.7,0.7-0.7h18.5c0.4,0,0.7,0.3,0.7,0.7C195.2,34.9,194.9,35.2,194.4,35.2z"/>
	</g>
</g>
</svg>
