<?xml version="1.0" encoding="utf-8"?>
<!-- Generator: Adobe Illustrator 19.2.1, SVG Export Plug-In . SVG Version: 6.00 Build 0)  -->
<svg version="1.1" id="Ebene_1" xmlns="http://www.w3.org/2000/svg" xmlns:xlink="http://www.w3.org/1999/xlink" x="0px" y="0px"
	 viewBox="0 0 112 56" enable-background="new 0 0 112 56" xml:space="preserve">
<path fill="#F2F2F2" d="M36.1,12h-4.5c-0.5,1.5-1.9,2.5-3.6,2.5s-3.1-1-3.6-2.5h-4.5l-7.2,3.5l2.2,5.8h3.6v10.2
	c0.9,0,1.6,0.7,1.6,1.6c0,0.9-0.7,1.6-1.6,1.6v2.5L28,44l9.5-6.7v-2.5c-0.9,0-1.6-0.7-1.6-1.6c0-0.9,0.7-1.6,1.6-1.6V21.3h3.6
	l2.2-5.8L36.1,12z M31.1,31.5L28,29.3l-3.1,2.2l1.1-3.6l-3-2.3l3.8-0.1l1.2-3.6l1.2,3.6l3.8,0.1l-3,2.3L31.1,31.5z"/>
<g>
	<polygon fill="#FAB117" points="56,0 56,31.5 99.9,0 	"/>
	<polygon fill="#F26651" points="99.9,0 56,31.5 56,56 67.3,56 112,24 112,0 	"/>
	<polygon fill="#2CB0D9" points="112,56 112,24 67.3,56 	"/>
</g>
<path fill="#FFFFFF" d="M92.1,12h-4.5c-0.5,1.5-1.9,2.5-3.6,2.5s-3.1-1-3.6-2.5h-4.5l-7.2,3.5l2.2,5.8h3.6v10.2
	c0.9,0,1.6,0.7,1.6,1.6c0,0.9-0.7,1.6-1.6,1.6v2.5L84,44l9.5-6.7v-2.5c-0.9,0-1.6-0.7-1.6-1.6c0-0.9,0.7-1.6,1.6-1.6V21.3h3.6
	l2.2-5.8L92.1,12z M87.1,31.5L84,29.3l-3.1,2.2l1.1-3.6l-3-2.3l3.8-0.1l1.2-3.6l1.2,3.6l3.8,0.1l-3,2.3L87.1,31.5z"/>
</svg>
