<?xml version="1.0" encoding="utf-8"?>
<!-- Generator: Adobe Illustrator 19.2.1, SVG Export Plug-In . SVG Version: 6.00 Build 0)  -->
<svg version="1.1" id="Ebene_1" xmlns="http://www.w3.org/2000/svg" xmlns:xlink="http://www.w3.org/1999/xlink" x="0px" y="0px"
	 viewBox="0 0 234.4 340.2" enable-background="new 0 0 234.4 340.2" xml:space="preserve">
<g>
	<path opacity="0.5" fill="#FFFFFF" d="M135.9,0l-0.7,2l-1.4,4c-2.5,6.9-9.1,11.5-16.4,11.5c-7.3,0-13.9-4.6-16.4-11.5l-1.4-4
		l-0.7-2H59L0,28.9l20.2,53.6h22.5V207l74.7,53.1L192,207V82.5h22.5l20.2-53.6L175.7,0H135.9z"/>
	<polygon fill="#121212" points="116.9,71.8 115.4,94 119.2,94 117.6,71.8 	"/>
	<path fill="#121212" d="M145.7,64.6h-2.6V81h2.6c0.5,0,1-0.2,1.4-0.6c0.4-0.4,0.6-0.8,0.6-1.4V66.5c0-0.5-0.2-1-0.6-1.4
		C146.7,64.8,146.2,64.6,145.7,64.6z"/>
	<path fill="#121212" d="M173.6,9h-31.4c-3.7,10.2-13.4,17.4-24.9,17.4S96.2,19.2,92.5,9H61.1L11.3,33.4l15.1,40.1h25.2v88.9
		c6.3,0,11.3,5.1,11.3,11.3c0,6.3-5.1,11.3-11.3,11.3v17.3l65.7,46.7l65.7-46.7V185c-6.3,0-11.3-5.1-11.3-11.3
		c0-6.3,5.1-11.3,11.3-11.3V73.5h25.2l15.1-40.1L173.6,9z M205.1,68.9h-26.6v89.5c-6.5,2-11.3,8-11.3,15.2c0,7.2,4.8,13.3,11.3,15.2
		V200l-61.1,43.4L56.2,200v-11.1c6.5-2,11.3-8,11.3-15.2c0-7.2-4.8-13.3-11.3-15.2v-85v-4.5h-4.5H29.6L17,35.6l45.2-22.1h27.3
		c5.1,10.6,16,17.4,27.9,17.4s22.7-6.9,27.9-17.4h27.3l45.2,22.1L205.1,68.9z"/>
	<g>
		<path fill="#121212" d="M124.8,152.4h3.8c0.3,0,0.5-0.1,0.6-0.4v-10.7l3.1,10.5c0.1,0.2,0.2,0.3,0.3,0.4c0.2,0.1,0.3,0.2,0.5,0.2
			h3.9c0.4,0,0.5-0.2,0.4-0.6l-3.8-12.2c0.9-0.5,1.6-1.1,2.1-1.9c0.5-0.8,0.8-1.8,0.8-2.8v-7c0-0.7-0.1-1.4-0.4-2.1
			c-0.3-0.7-0.7-1.2-1.2-1.7c-0.5-0.5-1.1-0.9-1.7-1.2c-0.7-0.3-1.4-0.4-2.1-0.4h-6.4c-0.4,0-0.6,0.2-0.6,0.6v28.8
			C124.2,152.2,124.4,152.4,124.8,152.4z M129.2,127h1.4c0.3,0,0.5,0.1,0.7,0.3c0.2,0.2,0.3,0.4,0.3,0.7v6.5c0,0.3-0.1,0.5-0.3,0.7
			c-0.2,0.2-0.4,0.3-0.7,0.3h-1.4V127z"/>
		<path fill="#121212" d="M136.4,184.7h0.8c0.2,0,0.4-0.1,0.6-0.2s0.2-0.4,0.2-0.6v-3.3c0-0.2-0.1-0.4-0.2-0.6s-0.4-0.2-0.6-0.2
			h-0.8c-0.2,0-0.4,0.1-0.6,0.2s-0.2,0.4-0.2,0.6v3.3c0,0.2,0.1,0.4,0.2,0.6S136.1,184.7,136.4,184.7z"/>
		<path fill="#121212" d="M138.3,127.5h3v24.4c0,0.2,0.1,0.3,0.2,0.4c0.1,0.1,0.3,0.2,0.4,0.2h3.8c0.4,0,0.6-0.2,0.6-0.6v-24.4h3
			c0.4,0,0.6-0.2,0.6-0.6V123c0-0.4-0.2-0.6-0.6-0.6h-11c-0.4,0-0.6,0.2-0.6,0.6v3.8C137.7,127.3,137.9,127.5,138.3,127.5z"/>
		<path fill="#121212" d="M101.4,152.4h3.8c0.4,0,0.6-0.2,0.6-0.6v-12.2h2.8v12.2c0,0.4,0.2,0.6,0.6,0.6h3.8c0.4,0,0.6-0.2,0.6-0.6
			V123c0-0.4-0.2-0.6-0.6-0.6h-3.8c-0.4,0-0.6,0.2-0.6,0.6v11.5h-2.8V123c0-0.4-0.2-0.6-0.6-0.6h-3.8c-0.4,0-0.6,0.2-0.6,0.6v28.8
			C100.8,152.2,101,152.4,101.4,152.4z"/>
		<path fill="#121212" d="M172.2,15h-26c-4.1,7.8-11.3,13.6-19.6,16.1h0.3l-9.4,9.4l-9.4-9.4h0.3c-8.3-2.5-15.5-8.2-19.6-16.1h-26
			L18.9,36.4l11.7,31h21.1h3.8L57.7,50v18.9v4.5v83.9c6.7,2.5,11.3,9.1,11.3,16.3c0,7.2-4.6,13.8-11.3,16.3v9.2l11.2,8l14.5,5.5
			l33.9,24.2l33.9-24.2l14.5-5.5l11.2-8V190c-6.7-2.5-11.3-9.1-11.3-16.3c0-7.2,4.6-13.8,11.3-16.3V73.5V50l2.3,17.4h24.8l11.7-31
			L172.2,15z M133.5,56.9c0-0.8,0.4-1.1,1.1-1.1h12.3c1.4,0,2.8,0.3,4,0.8c1.3,0.5,2.3,1.3,3.3,2.2c0.9,0.9,1.7,2,2.2,3.3
			c0.5,1.3,0.8,2.6,0.8,4v13.4c0,1.4-0.3,2.8-0.8,4c-0.5,1.3-1.3,2.3-2.2,3.3c-0.9,0.9-2,1.7-3.3,2.2c-1.3,0.5-2.6,0.8-4,0.8h-3.9
			V112c0,0.8-0.4,1.1-1.1,1.1h-7.3c-0.8,0-1.1-0.4-1.1-1.1V56.9z M104.4,112l6.1-55.1c0.1-0.8,0.5-1.1,1.3-1.1h10.8
			c0.8,0,1.2,0.4,1.3,1.1l6.1,55.1c0.1,0.8-0.2,1.1-1,1.1h-7.5c-0.7,0-1.1-0.4-1.2-1.1l-0.7-8.8h-5.1l-0.7,8.8
			c-0.1,0.8-0.5,1.1-1.2,1.1h-7.5C104.6,113.1,104.3,112.8,104.4,112z M77.7,93c0-0.8,0.4-1.3,1.1-1.5l7.5-2
			c0.7-0.2,1.1,0.1,1.1,0.8V103c0,0.5,0.2,1,0.6,1.4c0.4,0.4,0.8,0.6,1.4,0.6h0.7c0.5,0,1-0.2,1.4-0.6c0.4-0.4,0.6-0.8,0.6-1.4v-46
			c0-0.8,0.4-1.1,1.1-1.1h7.3c0.8,0,1.1,0.4,1.1,1.1v46.4c0,1.4-0.3,2.8-0.8,4c-0.5,1.3-1.3,2.3-2.2,3.3c-0.9,0.9-2,1.7-3.3,2.2
			c-1.3,0.5-2.6,0.8-4,0.8H88c-1.4,0-2.8-0.3-4-0.8c-1.3-0.5-2.3-1.3-3.3-2.2c-0.9-0.9-1.7-2-2.2-3.3c-0.5-1.3-0.8-2.6-0.8-4V93z
			 M85.1,181.4c0.7,0.1,1.2,0.3,1.6,0.5c0.4,0.2,0.7,0.5,0.9,0.7c0.2,0.3,0.3,0.5,0.4,0.8c0.1,0.3,0.1,0.5,0.1,0.6
			c0,0.3-0.1,0.6-0.2,0.9c-0.1,0.3-0.3,0.5-0.6,0.7c-0.2,0.2-0.5,0.4-0.8,0.5c-0.3,0.1-0.7,0.2-1.1,0.2c-0.4,0-0.8,0-1.1-0.1
			c-0.3-0.1-0.6-0.2-0.8-0.3v0.4h-1.6v-2.5h1.6c0.1,0.2,0.3,0.3,0.4,0.4c0.1,0.1,0.3,0.2,0.4,0.3c0.1,0.1,0.3,0.1,0.5,0.2
			c0.2,0,0.4,0.1,0.6,0.1c0.3,0,0.5-0.1,0.7-0.2c0.2-0.1,0.3-0.3,0.3-0.5c0-0.2-0.1-0.3-0.2-0.4c-0.1-0.1-0.2-0.2-0.4-0.3
			c-0.2-0.1-0.3-0.2-0.5-0.2c-0.2-0.1-0.4-0.1-0.6-0.1c-0.7-0.1-1.2-0.3-1.6-0.5c-0.4-0.2-0.7-0.4-0.9-0.7c-0.2-0.2-0.4-0.5-0.4-0.8
			c-0.1-0.3-0.1-0.5-0.1-0.7c0-0.3,0.1-0.6,0.2-0.9c0.1-0.3,0.3-0.5,0.6-0.8c0.2-0.2,0.5-0.4,0.8-0.5c0.3-0.1,0.7-0.2,1-0.2
			c0.4,0,0.7,0,1,0.1c0.3,0.1,0.6,0.2,0.8,0.3v-0.4H88v2.5h-1.6c-0.1-0.1-0.3-0.3-0.4-0.4c-0.1-0.1-0.3-0.2-0.4-0.3
			c-0.1-0.1-0.3-0.1-0.5-0.2c-0.2,0-0.4-0.1-0.6-0.1c-0.3,0-0.6,0.1-0.8,0.2c-0.2,0.2-0.3,0.3-0.3,0.5
			C83.5,180.9,84,181.2,85.1,181.4z M152.1,193.2H81.9v-1h70.2V193.2z M90,179.8v-1.6h3.3v1.6h-0.8v4.9h0.8v1.6H90v-1.6h0.8v-4.9H90
			z M95.1,179.8v-1.6h2.5l3.2,5.1v-3.5H100v-1.6h3.3v1.6h-0.8v6.5h-1.6l-3.2-5.1v3.5h0.8v1.6h-3.3v-1.6H96v-4.9H95.1z M109.8,180
			c-0.2-0.2-0.4-0.2-0.6-0.2h-1.6c-0.2,0-0.4,0.1-0.6,0.2c-0.2,0.2-0.2,0.4-0.2,0.6v3.3c0,0.2,0.1,0.4,0.2,0.6
			c0.2,0.2,0.4,0.2,0.6,0.2h1.6c0.2,0,0.4-0.1,0.6-0.2c0.2-0.2,0.2-0.4,0.2-0.6v-0.4h1.6v0.4c0,0.3-0.1,0.7-0.2,1
			c-0.1,0.3-0.3,0.6-0.5,0.8c-0.2,0.2-0.5,0.4-0.8,0.5c-0.3,0.1-0.6,0.2-1,0.2h-1.6c-0.3,0-0.7-0.1-1-0.2c-0.3-0.1-0.6-0.3-0.8-0.5
			c-0.2-0.2-0.4-0.5-0.5-0.8c-0.1-0.3-0.2-0.6-0.2-1v-3.3c0-0.3,0.1-0.7,0.2-1c0.1-0.3,0.3-0.6,0.5-0.8c0.2-0.2,0.5-0.4,0.8-0.5
			c0.3-0.1,0.6-0.2,1-0.2h1.6c0.3,0,0.7,0.1,1,0.2c0.3,0.1,0.6,0.3,0.8,0.5c0.2,0.2,0.4,0.5,0.5,0.8c0.1,0.3,0.2,0.6,0.2,1v0.4H110
			v-0.4C110,180.3,110,180.1,109.8,180z M113.5,179.8v-1.6h5.7v2.5h-1.6v-0.8H116v1.6h1.6v1.6H116v1.6h1.6v-0.8h1.6v2.5h-5.7v-1.6
			h0.8v-4.9H113.5z M130.1,180c-0.2-0.2-0.4-0.2-0.6-0.2h-0.8c-0.2,0-0.4,0.1-0.6,0.2c-0.2,0.2-0.2,0.4-0.2,0.6h-1.6
			c0-0.3,0.1-0.7,0.2-1c0.1-0.3,0.3-0.6,0.5-0.8c0.2-0.2,0.5-0.4,0.8-0.5c0.3-0.1,0.6-0.2,1-0.2h0.8c0.3,0,0.7,0.1,1,0.2
			c0.3,0.1,0.6,0.3,0.8,0.5c0.2,0.2,0.4,0.5,0.5,0.8c0.1,0.3,0.2,0.6,0.2,1c0,0.2,0,0.4-0.1,0.6c-0.1,0.2-0.1,0.3-0.2,0.5
			c-0.1,0.2-0.2,0.3-0.4,0.5c-0.1,0.2-0.3,0.3-0.5,0.5c-0.1,0.1-0.2,0.2-0.3,0.3c-0.1,0.1-0.3,0.3-0.5,0.5c-0.2,0.2-0.4,0.4-0.6,0.6
			c-0.2,0.2-0.5,0.4-0.7,0.7h1.7v-0.8h1.6v2.5h-5.7v-1.6l3.4-3.2c0.2-0.1,0.3-0.3,0.4-0.4c0.1-0.1,0.1-0.2,0.2-0.2
			c0-0.1,0.1-0.1,0.1-0.2s0-0.1,0-0.1C130.4,180.3,130.3,180.1,130.1,180z M133.9,183.8v-3.3c0-0.3,0.1-0.7,0.2-1
			c0.1-0.3,0.3-0.6,0.5-0.8c0.2-0.2,0.5-0.4,0.8-0.5c0.3-0.1,0.6-0.2,1-0.2h0.8c0.3,0,0.7,0.1,1,0.2c0.3,0.1,0.6,0.3,0.8,0.5
			c0.2,0.2,0.4,0.5,0.5,0.8c0.1,0.3,0.2,0.6,0.2,1v3.3c0,0.3-0.1,0.7-0.2,1c-0.1,0.3-0.3,0.6-0.5,0.8c-0.2,0.2-0.5,0.4-0.8,0.5
			c-0.3,0.1-0.6,0.2-1,0.2h-0.8c-0.3,0-0.7-0.1-1-0.2c-0.3-0.1-0.6-0.3-0.8-0.5c-0.2-0.2-0.4-0.5-0.5-0.8
			C134,184.5,133.9,184.2,133.9,183.8z M141.5,179.8v-1.6h2.5v6.5h0.8v1.6h-3.3v-1.6h0.8v-4.9H141.5z M151.9,184.7
			c-0.1,0.3-0.3,0.6-0.6,0.8c-0.2,0.2-0.5,0.4-0.8,0.6c-0.3,0.1-0.7,0.2-1,0.2h-0.4c-0.3,0-0.7-0.1-1-0.2c-0.3-0.1-0.6-0.3-0.8-0.5
			c-0.2-0.2-0.4-0.5-0.5-0.8c-0.1-0.3-0.2-0.6-0.2-1h1.6c0,0.2,0.1,0.4,0.2,0.6s0.4,0.2,0.6,0.2h0.4c0.3,0,0.5-0.1,0.7-0.3
			c0.2-0.2,0.3-0.4,0.3-0.7c0-0.3-0.1-0.5-0.3-0.7c-0.2-0.2-0.4-0.3-0.7-0.3h-2.9v-4.6h5.3v2.5h-1.6v-0.8h-2v1.3h1.2
			c0.4,0,0.7,0.1,1,0.2c0.3,0.1,0.6,0.3,0.8,0.6c0.2,0.2,0.4,0.5,0.6,0.8c0.1,0.3,0.2,0.7,0.2,1C152.1,184,152,184.4,151.9,184.7z
			 M152.3,172.8H82.1v-1h70.2V172.8z M157.5,156.7h-80v-38.3h80V156.7z"/>
		<path fill="#121212" d="M87.8,151.1c0.5,0.5,1.1,0.9,1.7,1.2s1.4,0.4,2.1,0.4h1.6c0.7,0,1.4-0.1,2.1-0.4c0.7-0.3,1.2-0.7,1.7-1.2
			c0.5-0.5,0.9-1.1,1.2-1.7c0.3-0.7,0.4-1.4,0.4-2.1V140c-0.1-0.5-0.2-1-0.3-1.4c-0.1-0.4-0.4-0.8-0.9-1.2l-5.6-4.2
			c-0.2-0.2-0.4-0.5-0.5-0.7c-0.1-0.2-0.1-0.5-0.2-0.8v-3.9c0-0.3,0.1-0.5,0.3-0.7c0.2-0.2,0.4-0.3,0.7-0.3h0.3
			c0.3,0,0.5,0.1,0.7,0.3c0.2,0.2,0.3,0.4,0.3,0.7v2.8c0,0.4,0.2,0.5,0.6,0.4l3.9-1c0.4-0.1,0.6-0.4,0.6-0.8v-1.6
			c0-0.7-0.1-1.4-0.4-2.1c-0.3-0.7-0.7-1.2-1.2-1.7c-0.5-0.5-1.1-0.9-1.7-1.2c-0.7-0.3-1.4-0.4-2.1-0.4h-1.6c-0.7,0-1.4,0.1-2.1,0.4
			s-1.2,0.7-1.7,1.2c-0.5,0.5-0.9,1.1-1.2,1.7c-0.3,0.7-0.4,1.4-0.4,2.1v5.1c0,0.7,0.1,1.2,0.3,1.6c0.2,0.4,0.5,0.8,0.9,1.2l5.5,4.2
			c0.3,0.2,0.4,0.5,0.5,0.8c0.1,0.3,0.1,0.6,0.2,1v5.7c0,0.3-0.1,0.5-0.3,0.7c-0.2,0.2-0.4,0.3-0.7,0.3h-0.3c-0.3,0-0.5-0.1-0.7-0.3
			c-0.2-0.2-0.3-0.4-0.3-0.7v-5.3c0-0.4-0.2-0.5-0.6-0.4l-3.9,1c-0.4,0.1-0.6,0.4-0.6,0.8v4.1c0,0.7,0.1,1.4,0.4,2.1
			C87,150.1,87.3,150.6,87.8,151.1z"/>
		<path fill="#121212" d="M117,152.4h3.8c0.4,0,0.6-0.2,0.6-0.6V123c0-0.4-0.2-0.6-0.6-0.6H117c-0.4,0-0.6,0.2-0.6,0.6v28.8
			C116.4,152.2,116.6,152.4,117,152.4z"/>
	</g>
	<path fill="none" d="M131.3,135.3c0.2-0.2,0.3-0.4,0.3-0.7v-6.5c0-0.3-0.1-0.5-0.3-0.7c-0.2-0.2-0.4-0.3-0.7-0.3h-1.4v8.6h1.4
		C130.8,135.6,131.1,135.5,131.3,135.3z"/>
	<rect x="117.4" y="181.4" fill="none" width="0.2" height="1.6"/>
	<path fill="none" d="M138.9,178.8c-0.2-0.2-0.5-0.4-0.8-0.5c-0.3-0.1-0.6-0.2-1-0.2h-0.8c-0.3,0-0.7,0.1-1,0.2
		c-0.3,0.1-0.6,0.3-0.8,0.5c-0.2,0.2-0.4,0.5-0.5,0.8c-0.1,0.3-0.2,0.6-0.2,1v3.3c0,0.3,0.1,0.7,0.2,1c0.1,0.3,0.3,0.6,0.5,0.8
		c0.2,0.2,0.5,0.4,0.8,0.5c0.3,0.1,0.6,0.2,1,0.2h0.8c0.3,0,0.7-0.1,1-0.2c0.3-0.1,0.6-0.3,0.8-0.5c0.2-0.2,0.4-0.5,0.5-0.8
		c0.1-0.3,0.2-0.6,0.2-1v-3.3c0-0.3-0.1-0.7-0.2-1C139.3,179.3,139.1,179.1,138.9,178.8z M138,183.8c0,0.2-0.1,0.4-0.2,0.6
		c-0.2,0.2-0.4,0.2-0.6,0.2h-0.8c-0.2,0-0.4-0.1-0.6-0.2c-0.2-0.2-0.2-0.4-0.2-0.6v-3.3c0-0.2,0.1-0.4,0.2-0.6
		c0.2-0.2,0.4-0.2,0.6-0.2h0.8c0.2,0,0.4,0.1,0.6,0.2c0.2,0.2,0.2,0.4,0.2,0.6V183.8z"/>
	<polygon fill="#FF4E50" points="121.6,217 117.4,214.1 113.1,217 114.6,212.1 110.5,209 115.7,208.9 117.4,204.1 119,208.9 
		124.2,209 120.1,212.1 	"/>
	<polygon opacity="0.5" fill="#FFFFFF" points="64.7,237.6 64.7,265.2 117.4,302.6 170,265.2 170,237.6 117.4,275 	"/>
	<polygon opacity="0.5" fill="#FFFFFF" points="72.8,285.2 72.8,308.6 117.4,340.2 161.9,308.6 161.9,285.2 117.4,316.9 	"/>
</g>
</svg>
