<?xml version="1.0" encoding="utf-8"?>
<!-- Generator: Adobe Illustrator 19.2.1, SVG Export Plug-In . SVG Version: 6.00 Build 0)  -->
<svg version="1.1" id="Ebene_1" xmlns="http://www.w3.org/2000/svg" xmlns:xlink="http://www.w3.org/1999/xlink" x="0px" y="0px"
	 viewBox="0 0 247.4 280" enable-background="new 0 0 247.4 280" xml:space="preserve">
<g>
	<polygon fill="#1E1E1E" points="123.2,73.2 121.4,99.1 125.8,99.1 124,73.2 	"/>
	<path fill="#1E1E1E" d="M156.8,64.8h-3.1V84h3.1c0.6,0,1.2-0.2,1.6-0.7c0.4-0.4,0.7-1,0.7-1.6V67.1c0-0.6-0.2-1.2-0.7-1.6
		C158,65.1,157.4,64.8,156.8,64.8z"/>
	<path fill="#1E1E1E" d="M189.3,0h-36.6c-4.3,11.9-15.7,20.4-29,20.4S99,11.9,94.7,0H58.1L0,28.5l17.6,46.7h29.5v103.7
		c7.3,0,13.2,5.9,13.2,13.2c0,7.3-5.9,13.2-13.2,13.2v20.2l76.6,54.5l76.6-54.5v-20.2c-7.3,0-13.2-5.9-13.2-13.2
		c0-7.3,5.9-13.2,13.2-13.2V75.2h29.5l17.6-46.7L189.3,0z M226.1,69.9h-31.1v104.5c-7.6,2.3-13.2,9.4-13.2,17.7s5.6,15.5,13.2,17.7
		v13l-71.3,50.6l-71.3-50.6v-13c7.6-2.3,13.2-9.4,13.2-17.7s-5.6-15.5-13.2-17.7V75.2v-5.3h-5.3H21.3L6.6,31.1L59.3,5.3h31.9
		c6,12.3,18.6,20.4,32.5,20.4s26.5-8,32.5-20.4h31.9l52.7,25.8L226.1,69.9z"/>
	<g>
		<path fill="#1E1E1E" d="M145.9,204.9h1c0.3,0,0.5-0.1,0.7-0.3c0.2-0.2,0.3-0.4,0.3-0.7v-3.8c0-0.3-0.1-0.5-0.3-0.7
			c-0.2-0.2-0.4-0.3-0.7-0.3h-1c-0.3,0-0.5,0.1-0.7,0.3c-0.2,0.2-0.3,0.4-0.3,0.7v3.8c0,0.3,0.1,0.5,0.3,0.7
			C145.4,204.8,145.6,204.9,145.9,204.9z"/>
		<path fill="#1E1E1E" d="M187.7,7.1h-30.4c-4.8,9.2-13.2,15.9-22.9,18.8h0.3l-11,11l-11-11h0.3c-9.7-2.9-18.1-9.6-22.9-18.8H59.7
			L8.9,32l13.6,36.2h24.6h4.4l2.6-20.3v22v5.3v97.9c7.9,2.9,13.2,10.6,13.2,19c0,8.5-5.4,16.1-13.2,19v10.8l13.1,9.3l16.9,6.4
			l39.6,28.3l39.6-28.3l16.9-6.4l13.1-9.3v-10.8c-7.9-2.9-13.2-10.6-13.2-19c0-8.5,5.4-16.1,13.2-19V75.2V47.9l2.6,20.3h29L238.6,32
			L187.7,7.1z M142.5,55.9c0-0.9,0.4-1.3,1.3-1.3h14.3c1.7,0,3.2,0.3,4.7,1c1.5,0.6,2.7,1.5,3.8,2.6c1.1,1.1,1.9,2.4,2.6,3.8
			c0.6,1.5,1,3,1,4.7v15.6c0,1.7-0.3,3.2-1,4.7c-0.6,1.5-1.5,2.7-2.6,3.8c-1.1,1.1-2.4,1.9-3.8,2.6c-1.5,0.6-3,1-4.7,1h-4.5v25.9
			c0,0.9-0.4,1.3-1.3,1.3h-8.5c-0.9,0-1.3-0.4-1.3-1.3V55.9z M108.6,120.2l7.2-64.2c0.1-0.9,0.6-1.3,1.5-1.3h12.6
			c0.9,0,1.4,0.4,1.5,1.3l7.2,64.2c0.1,0.9-0.3,1.3-1.1,1.3h-8.7c-0.8,0-1.3-0.4-1.4-1.3l-0.8-10.3h-5.9l-0.8,10.3
			c-0.1,0.9-0.6,1.3-1.4,1.3h-8.7C108.9,121.5,108.5,121.1,108.6,120.2z M77.5,98c0-0.9,0.4-1.5,1.2-1.7l8.7-2.3
			c0.8-0.3,1.2,0.1,1.2,1v14.7c0,0.6,0.2,1.2,0.7,1.6c0.4,0.4,1,0.7,1.6,0.7h0.8c0.6,0,1.2-0.2,1.6-0.7c0.4-0.4,0.7-1,0.7-1.6V55.9
			c0-0.9,0.4-1.3,1.3-1.3h8.5c0.9,0,1.3,0.4,1.3,1.3v54.2c0,1.7-0.3,3.2-1,4.7c-0.6,1.5-1.5,2.7-2.6,3.8c-1.1,1.1-2.4,1.9-3.8,2.6
			c-1.5,0.6-3,1-4.7,1h-3.6c-1.7,0-3.2-0.3-4.7-1c-1.5-0.6-2.7-1.5-3.8-2.6c-1.1-1.1-1.9-2.4-2.6-3.8c-0.6-1.5-1-3-1-4.7V98z
			 M86.1,201.1c0.8,0.1,1.4,0.3,1.9,0.6s0.8,0.6,1.1,0.9c0.2,0.3,0.4,0.6,0.5,0.9c0.1,0.3,0.1,0.6,0.1,0.7c0,0.4-0.1,0.7-0.2,1.1
			c-0.2,0.3-0.4,0.6-0.7,0.8c-0.3,0.2-0.6,0.4-1,0.6c-0.4,0.1-0.8,0.2-1.2,0.2c-0.5,0-0.9,0-1.2-0.1c-0.4-0.1-0.7-0.2-1-0.4v0.4
			h-1.9V204h1.9c0.2,0.2,0.3,0.3,0.5,0.5c0.2,0.1,0.3,0.2,0.5,0.3c0.2,0.1,0.4,0.2,0.6,0.2c0.2,0,0.4,0.1,0.7,0.1
			c0.3,0,0.6-0.1,0.9-0.2c0.2-0.1,0.3-0.3,0.3-0.6c0-0.2-0.1-0.4-0.2-0.5c-0.1-0.1-0.3-0.3-0.5-0.4c-0.2-0.1-0.4-0.2-0.6-0.2
			c-0.2-0.1-0.4-0.1-0.7-0.1c-0.8-0.1-1.4-0.3-1.9-0.5c-0.5-0.2-0.8-0.5-1.1-0.8c-0.2-0.3-0.4-0.6-0.5-0.9c-0.1-0.3-0.1-0.6-0.1-0.8
			c0-0.4,0.1-0.8,0.2-1.1c0.2-0.3,0.4-0.6,0.7-0.9c0.3-0.2,0.6-0.4,1-0.6s0.8-0.2,1.2-0.2c0.5,0,0.9,0,1.2,0.1
			c0.3,0.1,0.7,0.2,0.9,0.4v-0.4h1.9v2.9h-1.9c-0.2-0.2-0.3-0.3-0.4-0.5c-0.1-0.1-0.3-0.2-0.5-0.3c-0.2-0.1-0.3-0.2-0.5-0.2
			c-0.2,0-0.4-0.1-0.7-0.1c-0.4,0-0.7,0.1-0.9,0.3c-0.2,0.2-0.3,0.4-0.3,0.6C84.2,200.6,84.8,201,86.1,201.1z M164.2,214.9H82.4
			v-1.1h81.9V214.9z M91.8,199.2v-1.9h3.8v1.9h-1v5.7h1v1.9h-3.8v-1.9h1v-5.7H91.8z M97.8,199.2v-1.9h2.9l3.7,5.9v-4h-1v-1.9h3.8
			v1.9h-1v7.6h-1.9l-3.7-5.9v4h1v1.9h-3.8v-1.9h1v-5.7H97.8z M114.9,199.5c-0.2-0.2-0.4-0.3-0.7-0.3h-1.9c-0.3,0-0.5,0.1-0.7,0.3
			s-0.3,0.4-0.3,0.7v3.8c0,0.3,0.1,0.5,0.3,0.7c0.2,0.2,0.4,0.3,0.7,0.3h1.9c0.3,0,0.5-0.1,0.7-0.3c0.2-0.2,0.3-0.4,0.3-0.7v-0.5
			h1.9v0.5c0,0.4-0.1,0.8-0.2,1.1c-0.1,0.3-0.4,0.6-0.6,0.9c-0.3,0.3-0.6,0.5-0.9,0.6c-0.3,0.1-0.7,0.2-1.1,0.2h-1.9
			c-0.4,0-0.8-0.1-1.1-0.2c-0.3-0.1-0.6-0.4-0.9-0.6c-0.3-0.3-0.5-0.6-0.6-0.9c-0.2-0.3-0.2-0.7-0.2-1.1v-3.8c0-0.4,0.1-0.8,0.2-1.1
			c0.1-0.3,0.4-0.7,0.6-0.9c0.3-0.3,0.6-0.5,0.9-0.6c0.3-0.1,0.7-0.2,1.1-0.2h1.9c0.4,0,0.8,0.1,1.1,0.2c0.3,0.1,0.7,0.4,0.9,0.6
			c0.3,0.3,0.5,0.6,0.6,0.9c0.1,0.4,0.2,0.7,0.2,1.1v0.5h-1.9v-0.5C115.2,199.9,115.1,199.7,114.9,199.5z M119.2,199.2v-1.9h6.7v2.9
			H124v-1h-1.9v1.9h1.9v1.9h-1.9v1.9h1.9v-1h1.9v2.9h-6.7v-1.9h1v-5.7H119.2z M138.6,199.5c-0.2-0.2-0.4-0.3-0.7-0.3h-1
			c-0.3,0-0.5,0.1-0.7,0.3c-0.2,0.2-0.3,0.4-0.3,0.7h-1.9c0-0.4,0.1-0.8,0.2-1.1c0.1-0.3,0.4-0.7,0.6-0.9c0.3-0.3,0.6-0.5,0.9-0.6
			c0.3-0.1,0.7-0.2,1.1-0.2h1c0.4,0,0.8,0.1,1.1,0.2c0.3,0.1,0.7,0.4,0.9,0.6c0.3,0.3,0.5,0.6,0.6,0.9c0.1,0.4,0.2,0.7,0.2,1.1
			c0,0.2,0,0.5-0.1,0.7c-0.1,0.2-0.1,0.4-0.3,0.6c-0.1,0.2-0.3,0.4-0.4,0.6c-0.2,0.2-0.4,0.4-0.6,0.6c-0.1,0.1-0.2,0.2-0.3,0.3
			c-0.2,0.1-0.4,0.3-0.6,0.5c-0.2,0.2-0.5,0.4-0.7,0.7c-0.3,0.3-0.6,0.5-0.9,0.8h2v-1h1.9v2.9h-6.7v-1.9l4-3.7
			c0.2-0.2,0.3-0.3,0.4-0.4c0.1-0.1,0.2-0.2,0.2-0.3c0-0.1,0.1-0.1,0.1-0.2c0,0,0-0.1,0-0.1C138.9,199.9,138.8,199.7,138.6,199.5z
			 M143,204v-3.8c0-0.4,0.1-0.8,0.2-1.1c0.1-0.3,0.4-0.7,0.6-0.9c0.3-0.3,0.6-0.5,0.9-0.6c0.3-0.1,0.7-0.2,1.1-0.2h1
			c0.4,0,0.8,0.1,1.1,0.2c0.3,0.1,0.7,0.4,0.9,0.6c0.3,0.3,0.5,0.6,0.6,0.9c0.2,0.4,0.2,0.7,0.2,1.1v3.8c0,0.4-0.1,0.8-0.2,1.1
			c-0.2,0.3-0.4,0.6-0.6,0.9c-0.3,0.3-0.6,0.5-0.9,0.6c-0.4,0.1-0.7,0.2-1.1,0.2h-1c-0.4,0-0.8-0.1-1.1-0.2
			c-0.3-0.1-0.6-0.4-0.9-0.6c-0.3-0.3-0.5-0.6-0.6-0.9C143.1,204.7,143,204.4,143,204z M151.8,199.2v-1.9h2.9v7.6h1v1.9h-3.8v-1.9h1
			v-5.7H151.8z M164,205c-0.2,0.4-0.4,0.7-0.7,1c-0.3,0.3-0.6,0.5-1,0.7c-0.4,0.2-0.8,0.2-1.2,0.2h-0.5c-0.4,0-0.8-0.1-1.1-0.2
			c-0.3-0.1-0.6-0.4-0.9-0.6c-0.3-0.3-0.5-0.6-0.6-0.9c-0.1-0.3-0.2-0.7-0.2-1.1h1.9c0,0.3,0.1,0.5,0.3,0.7c0.2,0.2,0.4,0.3,0.7,0.3
			h0.5c0.3,0,0.6-0.1,0.8-0.3c0.2-0.2,0.3-0.5,0.3-0.8c0-0.3-0.1-0.6-0.3-0.8c-0.2-0.2-0.5-0.3-0.8-0.3h-3.3v-5.3h6.2v2.9h-1.9v-1
			h-2.4v1.5h1.4c0.4,0,0.8,0.1,1.2,0.2c0.4,0.2,0.7,0.4,1,0.7c0.3,0.3,0.5,0.6,0.7,1c0.2,0.4,0.2,0.8,0.2,1.2
			C164.3,204.2,164.2,204.6,164,205z M164.4,191.1H82.6v-1.1h81.9V191.1z M170.6,172.4H77.3v-44.7h93.3V172.4z"/>
	</g>
	<path fill="none" d="M140,147.4c0.2-0.2,0.3-0.5,0.3-0.8v-7.6c0-0.3-0.1-0.6-0.3-0.8c-0.2-0.2-0.5-0.3-0.8-0.3h-1.6v10h1.6
		C139.4,147.7,139.7,147.6,140,147.4z"/>
	<rect x="123.7" y="201.1" fill="none" width="0.3" height="1.9"/>
	<polygon fill="none" points="125.9,206.8 125.9,204 124,204 124,204.9 123.7,204.9 123.7,206.8 	"/>
	<path display="none" fill="#FF4E50" d="M118.8,243l1.7-5.7l-4.8-3.6l6-0.1l1.9-5.6v-13H82.4v-1.1h41.3v-6.9h-4.5v-1.9h1v-5.7h-1
		v-1.9h4.5v-6.2H82.6v-1.1h41.1v-17.6H77.3v-44.7h46.4v-17.8h-3.1l-0.8,10.3c-0.1,0.9-0.6,1.3-1.4,1.3h-8.7c-0.9,0-1.3-0.4-1.1-1.3
		l7.2-64.2c0.1-0.9,0.6-1.3,1.5-1.3h6.4V36.8l-11-11h0.3c-9.7-2.9-18.1-9.6-22.9-18.8H59.7L8.9,32l13.6,36.2h29l2.6-20.3v22v103.2
		c7.9,2.9,13.2,10.6,13.2,19c0,8.5-5.4,16.1-13.2,19v10.8l13.1,9.3l16.9,6.4l39.6,28.3v-26.3L118.8,243z M77.5,98
		c0-0.9,0.4-1.5,1.2-1.7l8.7-2.3c0.8-0.3,1.2,0.1,1.2,1v14.7c0,0.6,0.2,1.2,0.7,1.6c0.4,0.4,1,0.7,1.6,0.7h0.8
		c0.6,0,1.2-0.2,1.6-0.7c0.4-0.4,0.7-1,0.7-1.6V55.9c0-0.9,0.4-1.3,1.3-1.3h8.5c0.9,0,1.3,0.4,1.3,1.3v54.2c0,1.7-0.3,3.2-1,4.7
		c-0.6,1.5-1.5,2.7-2.6,3.8c-1.1,1.1-2.4,1.9-3.8,2.6c-1.5,0.6-3,1-4.7,1h-3.6c-1.7,0-3.2-0.3-4.7-1c-1.5-0.6-2.7-1.5-3.8-2.6
		c-1.1-1.1-1.9-2.4-2.6-3.8c-0.6-1.5-1-3-1-4.7V98z M109.5,200.2c0-0.4,0.1-0.8,0.2-1.1c0.1-0.3,0.4-0.7,0.6-0.9
		c0.3-0.3,0.6-0.5,0.9-0.6c0.3-0.1,0.7-0.2,1.1-0.2h1.9c0.4,0,0.8,0.1,1.1,0.2c0.3,0.1,0.7,0.4,0.9,0.6c0.3,0.3,0.5,0.6,0.6,0.9
		c0.1,0.4,0.2,0.7,0.2,1.1v0.5h-1.9v-0.5c0-0.3-0.1-0.5-0.3-0.7c-0.2-0.2-0.4-0.3-0.7-0.3h-1.9c-0.3,0-0.5,0.1-0.7,0.3
		c-0.2,0.2-0.3,0.4-0.3,0.7v3.8c0,0.3,0.1,0.5,0.3,0.7c0.2,0.2,0.4,0.3,0.7,0.3h1.9c0.3,0,0.5-0.1,0.7-0.3c0.2-0.2,0.3-0.4,0.3-0.7
		v-0.5h1.9v0.5c0,0.4-0.1,0.8-0.2,1.1c-0.1,0.3-0.4,0.6-0.6,0.9c-0.3,0.3-0.6,0.5-0.9,0.6c-0.3,0.1-0.7,0.2-1.1,0.2h-1.9
		c-0.4,0-0.8-0.1-1.1-0.2c-0.3-0.1-0.6-0.4-0.9-0.6c-0.3-0.3-0.5-0.6-0.6-0.9c-0.2-0.3-0.2-0.7-0.2-1.1V200.2z M97.8,204.9h1v-5.7
		h-1v-1.9h2.9l3.7,5.9v-4h-1v-1.9h3.8v1.9h-1v7.6h-1.9l-3.7-5.9v4h1v1.9h-3.8V204.9z M91.8,204.9h1v-5.7h-1v-1.9h3.8v1.9h-1v5.7h1
		v1.9h-3.8V204.9z M82.5,198.9c0.2-0.3,0.4-0.6,0.7-0.9c0.3-0.2,0.6-0.4,1-0.6c0.4-0.1,0.8-0.2,1.2-0.2c0.5,0,0.9,0,1.2,0.1
		c0.3,0.1,0.7,0.2,0.9,0.4v-0.4h1.9v2.9h-1.9c-0.2-0.2-0.3-0.3-0.4-0.5c-0.1-0.1-0.3-0.2-0.5-0.3c-0.2-0.1-0.3-0.2-0.5-0.2
		c-0.2,0-0.4-0.1-0.7-0.1c-0.4,0-0.7,0.1-0.9,0.3c-0.2,0.2-0.3,0.4-0.3,0.6c0,0.6,0.6,1,1.9,1.2c0.8,0.1,1.4,0.3,1.9,0.6
		c0.5,0.3,0.8,0.6,1.1,0.9c0.2,0.3,0.4,0.6,0.5,0.9c0.1,0.3,0.1,0.6,0.1,0.7c0,0.4-0.1,0.7-0.2,1.1c-0.2,0.3-0.4,0.6-0.7,0.8
		c-0.3,0.2-0.6,0.4-1,0.6c-0.4,0.1-0.8,0.2-1.2,0.2c-0.5,0-0.9,0-1.2-0.1c-0.4-0.1-0.7-0.2-1-0.4v0.4h-1.9V204h1.9
		c0.2,0.2,0.3,0.3,0.5,0.5c0.2,0.1,0.3,0.2,0.5,0.3c0.2,0.1,0.4,0.2,0.6,0.2c0.2,0,0.4,0.1,0.7,0.1c0.3,0,0.6-0.1,0.9-0.2
		c0.2-0.1,0.3-0.3,0.3-0.6c0-0.2-0.1-0.4-0.2-0.5c-0.1-0.1-0.3-0.3-0.5-0.4c-0.2-0.1-0.4-0.2-0.6-0.2c-0.2-0.1-0.4-0.1-0.7-0.1
		c-0.8-0.1-1.4-0.3-1.9-0.5c-0.5-0.2-0.8-0.5-1.1-0.8c-0.3-0.3-0.4-0.6-0.5-0.9c-0.1-0.3-0.1-0.6-0.1-0.8
		C82.3,199.6,82.4,199.2,82.5,198.9z"/>
	<g>
		<path fill="#1E1E1E" d="M132.4,167.3h4.4c0.4,0,0.6-0.2,0.7-0.5v-12.4l3.6,12.2c0.1,0.2,0.2,0.4,0.4,0.5c0.2,0.1,0.4,0.2,0.6,0.2
			h4.5c0.4,0,0.6-0.2,0.5-0.7l-4.4-14.2c1-0.5,1.9-1.3,2.5-2.3c0.6-1,0.9-2.1,0.9-3.3v-8.1c0-0.9-0.2-1.7-0.5-2.4
			c-0.3-0.8-0.8-1.4-1.3-2c-0.6-0.6-1.2-1-2-1.3c-0.8-0.3-1.6-0.5-2.4-0.5h-7.5c-0.5,0-0.7,0.2-0.7,0.7v33.6
			C131.7,167.1,131.9,167.3,132.4,167.3z M137.5,137.7h1.6c0.3,0,0.6,0.1,0.8,0.3c0.2,0.2,0.3,0.5,0.3,0.8v7.6
			c0,0.3-0.1,0.6-0.3,0.8c-0.2,0.2-0.5,0.4-0.8,0.4h-1.6V137.7z"/>
		<path fill="#1E1E1E" d="M148.2,138.2h3.5v28.4c0,0.2,0.1,0.4,0.2,0.5c0.1,0.1,0.3,0.2,0.5,0.2h4.4c0.5,0,0.7-0.2,0.7-0.7v-28.4
			h3.5c0.5,0,0.7-0.2,0.7-0.7v-4.4c0-0.5-0.2-0.7-0.7-0.7h-12.9c-0.5,0-0.7,0.2-0.7,0.7v4.4C147.5,138,147.7,138.2,148.2,138.2z"/>
		<path fill="#1E1E1E" d="M105.1,167.3h4.4c0.5,0,0.7-0.2,0.7-0.7v-14.3h3.3v14.3c0,0.5,0.2,0.7,0.7,0.7h4.4c0.5,0,0.7-0.2,0.7-0.7
			v-33.6c0-0.5-0.2-0.7-0.7-0.7h-4.4c-0.5,0-0.7,0.2-0.7,0.7v13.4h-3.3v-13.4c0-0.5-0.2-0.7-0.7-0.7h-4.4c-0.5,0-0.7,0.2-0.7,0.7
			v33.6C104.4,167.1,104.6,167.3,105.1,167.3z"/>
		<path fill="#1E1E1E" d="M89.3,165.8c0.6,0.6,1.2,1,2,1.3c0.8,0.3,1.6,0.5,2.4,0.5h1.9c0.9,0,1.7-0.2,2.4-0.5
			c0.8-0.3,1.4-0.8,2-1.3c0.6-0.6,1-1.2,1.3-2c0.3-0.8,0.5-1.6,0.5-2.4v-8.6c-0.1-0.6-0.2-1.1-0.3-1.6c-0.1-0.5-0.5-1-1-1.4
			l-6.5-4.9c-0.3-0.3-0.4-0.5-0.5-0.8c-0.1-0.3-0.2-0.6-0.2-0.9v-4.5c0-0.3,0.1-0.6,0.4-0.8c0.2-0.2,0.5-0.4,0.8-0.4h0.4
			c0.3,0,0.6,0.1,0.8,0.4c0.2,0.2,0.3,0.5,0.3,0.8v3.2c0,0.5,0.2,0.6,0.6,0.5l4.5-1.2c0.4-0.1,0.6-0.4,0.6-0.9v-1.9
			c0-0.9-0.2-1.7-0.5-2.4c-0.3-0.8-0.8-1.4-1.3-2c-0.6-0.6-1.2-1-2-1.3c-0.8-0.3-1.6-0.5-2.4-0.5h-1.9c-0.9,0-1.7,0.2-2.4,0.5
			c-0.8,0.3-1.4,0.8-2,1.3c-0.6,0.6-1,1.2-1.3,2c-0.3,0.8-0.5,1.6-0.5,2.4v6c0,0.8,0.1,1.4,0.3,1.8c0.2,0.5,0.6,0.9,1.1,1.4l6.4,4.9
			c0.3,0.3,0.5,0.6,0.6,0.9c0.1,0.3,0.2,0.7,0.2,1.1v6.6c0,0.3-0.1,0.6-0.3,0.8c-0.2,0.2-0.5,0.4-0.8,0.4h-0.4
			c-0.3,0-0.6-0.1-0.8-0.4c-0.2-0.2-0.4-0.5-0.4-0.8V155c0-0.5-0.2-0.6-0.6-0.5l-4.5,1.2c-0.4,0.1-0.6,0.4-0.6,0.9v4.8
			c0,0.9,0.2,1.7,0.5,2.4C88.2,164.6,88.7,165.3,89.3,165.8z"/>
		<path fill="#1E1E1E" d="M127.8,132.4h-4.1h-0.4c-0.5,0-0.7,0.2-0.7,0.7v33.6c0,0.5,0.2,0.7,0.7,0.7h0.4h4.1c0.5,0,0.7-0.2,0.7-0.7
			v-33.6C128.5,132.6,128.2,132.4,127.8,132.4z"/>
	</g>
	<rect x="77.3" y="127.7" fill="none" width="46.4" height="44.7"/>
	<rect x="123.7" y="127.7" fill="none" width="46.8" height="44.7"/>
	<polygon fill="none" points="125.9,206.8 125.9,204 124,204 124,204.9 123.7,204.9 123.7,206.8 	"/>
	<polygon fill="none" points="124,199.2 124,200.2 125.9,200.2 125.9,197.3 123.7,197.3 123.7,199.2 	"/>
	<rect x="123.7" y="201.1" fill="none" width="0.3" height="1.9"/>
	<polygon fill="none" points="119.2,199.2 120.2,199.2 120.2,204.9 119.2,204.9 119.2,206.8 123.7,206.8 123.7,204.9 122.1,204.9 
		122.1,203 123.7,203 123.7,201.1 122.1,201.1 122.1,199.2 123.7,199.2 123.7,197.3 119.2,197.3 	"/>
	<path fill="none" d="M110.3,206c0.3,0.3,0.6,0.5,0.9,0.6c0.3,0.1,0.7,0.2,1.1,0.2h1.9c0.4,0,0.8-0.1,1.1-0.2
		c0.3-0.1,0.7-0.4,0.9-0.6c0.3-0.3,0.5-0.6,0.6-0.9c0.1-0.3,0.2-0.7,0.2-1.1v-0.5h-1.9v0.5c0,0.3-0.1,0.5-0.3,0.7
		c-0.2,0.2-0.4,0.3-0.7,0.3h-1.9c-0.3,0-0.5-0.1-0.7-0.3c-0.2-0.2-0.3-0.4-0.3-0.7v-3.8c0-0.3,0.1-0.5,0.3-0.7
		c0.2-0.2,0.4-0.3,0.7-0.3h1.9c0.3,0,0.5,0.1,0.7,0.3c0.2,0.2,0.3,0.4,0.3,0.7v0.5h1.9v-0.5c0-0.4-0.1-0.8-0.2-1.1
		c-0.1-0.3-0.4-0.7-0.6-0.9c-0.3-0.3-0.6-0.5-0.9-0.6c-0.3-0.1-0.7-0.2-1.1-0.2h-1.9c-0.4,0-0.8,0.1-1.1,0.2
		c-0.3,0.1-0.6,0.4-0.9,0.6c-0.3,0.3-0.5,0.6-0.6,0.9c-0.2,0.4-0.2,0.7-0.2,1.1v3.8c0,0.4,0.1,0.8,0.2,1.1
		C109.8,205.4,110,205.7,110.3,206z"/>
	<path fill="none" d="M82.9,201.7c0.2,0.3,0.6,0.6,1.1,0.8c0.5,0.2,1.1,0.4,1.9,0.5c0.2,0,0.4,0.1,0.7,0.1c0.2,0.1,0.4,0.1,0.6,0.2
		c0.2,0.1,0.3,0.2,0.5,0.4c0.1,0.1,0.2,0.3,0.2,0.5c0,0.2-0.1,0.4-0.3,0.6c-0.2,0.1-0.5,0.2-0.9,0.2c-0.3,0-0.5,0-0.7-0.1
		c-0.2,0-0.4-0.1-0.6-0.2c-0.2-0.1-0.3-0.2-0.5-0.3c-0.2-0.1-0.3-0.3-0.5-0.5h-1.9v2.9h1.9v-0.4c0.3,0.2,0.6,0.3,1,0.4
		c0.4,0.1,0.8,0.1,1.2,0.1c0.4,0,0.9-0.1,1.2-0.2c0.4-0.1,0.7-0.3,1-0.6c0.3-0.2,0.5-0.5,0.7-0.8c0.2-0.3,0.2-0.7,0.2-1.1
		c0-0.2,0-0.4-0.1-0.7c-0.1-0.3-0.2-0.6-0.5-0.9c-0.2-0.3-0.6-0.6-1.1-0.9c-0.5-0.3-1.1-0.5-1.9-0.6c-1.3-0.2-1.9-0.6-1.9-1.2
		c0-0.2,0.1-0.4,0.3-0.6c0.2-0.2,0.5-0.3,0.9-0.3c0.3,0,0.5,0,0.7,0.1c0.2,0,0.4,0.1,0.5,0.2c0.2,0.1,0.3,0.2,0.5,0.3
		c0.1,0.1,0.3,0.3,0.4,0.5h1.9v-2.9h-1.9v0.4c-0.3-0.2-0.6-0.3-0.9-0.4c-0.3-0.1-0.7-0.1-1.2-0.1c-0.4,0-0.8,0.1-1.2,0.2
		c-0.4,0.1-0.7,0.3-1,0.6c-0.3,0.3-0.5,0.5-0.7,0.9c-0.2,0.3-0.2,0.7-0.2,1.1c0,0.2,0,0.5,0.1,0.8C82.5,201.1,82.7,201.4,82.9,201.7
		z"/>
	<polygon fill="none" points="101.6,204.9 100.7,204.9 100.7,200.9 104.4,206.8 106.3,206.8 106.3,199.2 107.3,199.2 107.3,197.3 
		103.4,197.3 103.4,199.2 104.4,199.2 104.4,203.2 100.7,197.3 97.8,197.3 97.8,199.2 98.8,199.2 98.8,204.9 97.8,204.9 97.8,206.8 
		101.6,206.8 	"/>
	<polygon fill="none" points="95.6,204.9 94.6,204.9 94.6,199.2 95.6,199.2 95.6,197.3 91.8,197.3 91.8,199.2 92.7,199.2 
		92.7,204.9 91.8,204.9 91.8,206.8 95.6,206.8 	"/>
	<path opacity="8.000000e-002" fill="#FFFFFF" d="M82.4,214.9v-1.1h41.3v-6.9h-4.5v-1.9h1v-5.7h-1v-1.9h4.5v-6.2H82.6v-1.1h41.1
		v-17.6H77.3v-44.7h46.4v-17.8h-3.1l-0.8,10.3c-0.1,0.9-0.6,1.3-1.4,1.3h-8.7c-0.9,0-1.3-0.4-1.1-1.3l7.2-64.2
		c0.1-0.9,0.6-1.3,1.5-1.3h6.4V36.8l-11-11h0.3c-9.7-2.9-18.1-9.6-22.9-18.8H59.7L8.9,32l13.6,36.2h24.6h4.4l2.6-20.3v22v5.3v97.9
		c7.9,2.9,13.2,10.6,13.2,19c0,8.5-5.4,16.1-13.2,19v10.8l13.1,9.3l16.9,6.4l39.6,28.3v-51H82.4z M77.5,98c0-0.9,0.4-1.5,1.2-1.7
		l8.7-2.3c0.8-0.3,1.2,0.1,1.2,1v14.7c0,0.6,0.2,1.2,0.7,1.6c0.4,0.4,1,0.7,1.6,0.7h0.8c0.6,0,1.2-0.2,1.6-0.7
		c0.4-0.4,0.7-1,0.7-1.6V55.9c0-0.9,0.4-1.3,1.3-1.3h8.5c0.9,0,1.3,0.4,1.3,1.3v54.2c0,1.7-0.3,3.2-1,4.7c-0.6,1.5-1.5,2.7-2.6,3.8
		c-1.1,1.1-2.4,1.9-3.8,2.6c-1.5,0.6-3,1-4.7,1h-3.6c-1.7,0-3.2-0.3-4.7-1c-1.5-0.6-2.7-1.5-3.8-2.6c-1.1-1.1-1.9-2.4-2.6-3.8
		c-0.6-1.5-1-3-1-4.7V98z M109.5,200.2c0-0.4,0.1-0.8,0.2-1.1c0.1-0.3,0.4-0.7,0.6-0.9c0.3-0.3,0.6-0.5,0.9-0.6
		c0.3-0.1,0.7-0.2,1.1-0.2h1.9c0.4,0,0.8,0.1,1.1,0.2c0.3,0.1,0.7,0.4,0.9,0.6c0.3,0.3,0.5,0.6,0.6,0.9c0.1,0.4,0.2,0.7,0.2,1.1v0.5
		h-1.9v-0.5c0-0.3-0.1-0.5-0.3-0.7c-0.2-0.2-0.4-0.3-0.7-0.3h-1.9c-0.3,0-0.5,0.1-0.7,0.3c-0.2,0.2-0.3,0.4-0.3,0.7v3.8
		c0,0.3,0.1,0.5,0.3,0.7c0.2,0.2,0.4,0.3,0.7,0.3h1.9c0.3,0,0.5-0.1,0.7-0.3c0.2-0.2,0.3-0.4,0.3-0.7v-0.5h1.9v0.5
		c0,0.4-0.1,0.8-0.2,1.1c-0.1,0.3-0.4,0.6-0.6,0.9c-0.3,0.3-0.6,0.5-0.9,0.6c-0.3,0.1-0.7,0.2-1.1,0.2h-1.9c-0.4,0-0.8-0.1-1.1-0.2
		c-0.3-0.1-0.6-0.4-0.9-0.6c-0.3-0.3-0.5-0.6-0.6-0.9c-0.2-0.3-0.2-0.7-0.2-1.1V200.2z M97.8,204.9h1v-5.7h-1v-1.9h2.9l3.7,5.9v-4
		h-1v-1.9h3.8v1.9h-1v7.6h-1.9l-3.7-5.9v4h1v1.9h-3.8V204.9z M91.8,204.9h1v-5.7h-1v-1.9h3.8v1.9h-1v5.7h1v1.9h-3.8V204.9z
		 M82.5,198.9c0.2-0.3,0.4-0.6,0.7-0.9c0.3-0.2,0.6-0.4,1-0.6c0.4-0.1,0.8-0.2,1.2-0.2c0.5,0,0.9,0,1.2,0.1c0.3,0.1,0.7,0.2,0.9,0.4
		v-0.4h1.9v2.9h-1.9c-0.2-0.2-0.3-0.3-0.4-0.5c-0.1-0.1-0.3-0.2-0.5-0.3c-0.2-0.1-0.3-0.2-0.5-0.2c-0.2,0-0.4-0.1-0.7-0.1
		c-0.4,0-0.7,0.1-0.9,0.3c-0.2,0.2-0.3,0.4-0.3,0.6c0,0.6,0.6,1,1.9,1.2c0.8,0.1,1.4,0.3,1.9,0.6c0.5,0.3,0.8,0.6,1.1,0.9
		c0.2,0.3,0.4,0.6,0.5,0.9c0.1,0.3,0.1,0.6,0.1,0.7c0,0.4-0.1,0.7-0.2,1.1c-0.2,0.3-0.4,0.6-0.7,0.8c-0.3,0.2-0.6,0.4-1,0.6
		c-0.4,0.1-0.8,0.2-1.2,0.2c-0.5,0-0.9,0-1.2-0.1c-0.4-0.1-0.7-0.2-1-0.4v0.4h-1.9V204h1.9c0.2,0.2,0.3,0.3,0.5,0.5
		c0.2,0.1,0.3,0.2,0.5,0.3c0.2,0.1,0.4,0.2,0.6,0.2c0.2,0,0.4,0.1,0.7,0.1c0.3,0,0.6-0.1,0.9-0.2c0.2-0.1,0.3-0.3,0.3-0.6
		c0-0.2-0.1-0.4-0.2-0.5c-0.1-0.1-0.3-0.3-0.5-0.4c-0.2-0.1-0.4-0.2-0.6-0.2c-0.2-0.1-0.4-0.1-0.7-0.1c-0.8-0.1-1.4-0.3-1.9-0.5
		c-0.5-0.2-0.8-0.5-1.1-0.8c-0.3-0.3-0.4-0.6-0.5-0.9c-0.1-0.3-0.1-0.6-0.1-0.8C82.3,199.6,82.4,199.2,82.5,198.9z"/>
	<polygon fill="#FF4E50" points="128.6,242.7 123.7,239.3 118.8,242.7 120.5,237 115.8,233.4 121.8,233.3 123.7,227.6 125.7,233.3 
		131.7,233.4 126.9,237 	"/>
</g>
</svg>
