<?xml version="1.0" encoding="utf-8"?>
<!-- Generator: Adobe Illustrator 19.2.1, SVG Export Plug-In . SVG Version: 6.00 Build 0)  -->
<svg version="1.1" id="Ebene_1" xmlns="http://www.w3.org/2000/svg" xmlns:xlink="http://www.w3.org/1999/xlink" x="0px" y="0px"
	 viewBox="0 0 180 162" enable-background="new 0 0 180 162" xml:space="preserve">
<g>
	<path fill="none" d="M83.7,87.7H83v8.9h0.7c0.2,0,0.3-0.1,0.4-0.2c0.1-0.1,0.2-0.2,0.2-0.4v-7.8c0-0.2-0.1-0.3-0.2-0.4
		C84,87.8,83.9,87.7,83.7,87.7z"/>
	<path fill="none" d="M51.4,87.7h-0.7v3.7h0.7c0.2,0,0.3-0.1,0.4-0.2S52,91,52,90.9v-2.6c0-0.2-0.1-0.3-0.2-0.4S51.6,87.7,51.4,87.7
		z"/>
	<g>
		<polygon fill="#F26651" points="40.2,124.8 39.1,141.2 41.8,141.2 40.7,124.8 		"/>
		<path fill="#F26651" d="M177.9,106H2.1h-2v56h179.8v-56H177.9z M27.6,122.2c0,0.6-0.3,0.9-0.8,1.1l-5.5,2c-0.5,0.2-0.8,0-0.8-0.6
			v-4.1c0-0.4-0.1-0.7-0.4-1c-0.3-0.3-0.6-0.4-1-0.4h-0.5c-0.4,0-0.7,0.1-1,0.4c-0.3,0.3-0.4,0.6-0.4,1v27.2c0,0.4,0.1,0.7,0.4,1
			c0.3,0.3,0.6,0.4,1,0.4h0.5c0.4,0,0.7-0.1,1-0.4c0.3-0.3,0.4-0.6,0.4-1v-10.7h-1.7v-6.9h7.9c0.6,0,0.8,0.3,0.8,0.8v17.1
			c0,1-0.2,2-0.6,3c-0.4,0.9-0.9,1.7-1.6,2.4c-0.7,0.7-1.5,1.2-2.4,1.6c-0.9,0.4-1.9,0.6-3,0.6h-2.3c-1,0-2-0.2-3-0.6
			c-0.9-0.4-1.7-0.9-2.4-1.6c-0.7-0.7-1.2-1.5-1.6-2.4c-0.4-0.9-0.6-1.9-0.6-3v-27.8c0-1,0.2-2,0.6-3c0.4-0.9,0.9-1.7,1.6-2.4
			c0.7-0.7,1.5-1.2,2.4-1.6c0.9-0.4,1.9-0.6,3-0.6H20c1,0,2,0.2,3,0.6c0.9,0.4,1.7,0.9,2.4,1.6c0.7,0.7,1.2,1.5,1.6,2.4
			c0.4,0.9,0.6,1.9,0.6,3V122.2z M49.2,155.3h-5.5c-0.5,0-0.8-0.3-0.9-0.8l-0.5-6.5h-3.7l-0.5,6.5c-0.1,0.6-0.4,0.8-0.9,0.8h-5.5
			c-0.6,0-0.8-0.3-0.7-0.8l4.5-40.5c0.1-0.6,0.4-0.8,1-0.8h8c0.6,0,0.9,0.3,1,0.8l4.5,40.5C50,155,49.7,155.3,49.2,155.3z
			 M71.9,155.3h-5.5c-0.2,0-0.5-0.1-0.7-0.2s-0.4-0.4-0.5-0.6l-4.4-14.8v15c-0.1,0.4-0.4,0.6-0.8,0.6h-5.4c-0.6,0-0.8-0.3-0.8-0.8
			v-40.5c0-0.6,0.3-0.8,0.8-0.8h9c1,0,2,0.2,3,0.6c0.9,0.4,1.7,0.9,2.4,1.6c0.7,0.7,1.2,1.5,1.6,2.4c0.4,0.9,0.6,1.9,0.6,3v9.8
			c0,1.5-0.4,2.8-1.1,4c-0.8,1.2-1.8,2.1-3,2.7l5.4,17.2C72.6,155,72.4,155.3,71.9,155.3z M93.3,155.3h-5.5c-0.5,0-0.8-0.3-0.9-0.8
			l-0.5-6.5h-3.7l-0.5,6.5c-0.1,0.6-0.4,0.8-0.9,0.8h-5.5c-0.6,0-0.8-0.3-0.7-0.8l4.5-40.5c0.1-0.6,0.4-0.8,1-0.8h8
			c0.6,0,0.9,0.3,1,0.8l4.5,40.5C94.1,155,93.9,155.3,93.3,155.3z M117.3,154.4c0,0.6-0.3,0.8-0.8,0.8h-3.9c-0.2,0-0.5-0.1-0.7-0.2
			c-0.2-0.2-0.4-0.3-0.5-0.5l-6.4-19.9v19.9c0,0.6-0.3,0.8-0.8,0.8h-5.4c-0.6,0-0.8-0.3-0.8-0.8v-40.5c0-0.6,0.3-0.8,0.8-0.8h4
			c0.2,0,0.5,0.1,0.7,0.2s0.4,0.3,0.5,0.5l6.3,19.3v-19.3c0-0.6,0.3-0.8,0.8-0.8h5.4c0.6,0,0.8,0.3,0.8,0.8V154.4z M138.7,119.3
			c0,0.6-0.3,0.8-0.8,0.8h-4.3v34.3c0,0.6-0.3,0.8-0.8,0.8h-5.4c-0.2,0-0.4-0.1-0.6-0.2c-0.2-0.2-0.3-0.4-0.3-0.6v-34.3h-4.2
			c-0.6,0-0.8-0.3-0.8-0.8v-5.4c0-0.6,0.3-0.8,0.8-0.8h15.5c0.6,0,0.8,0.3,0.8,0.8V119.3z M150,154.4c0,0.6-0.3,0.8-0.8,0.8h-5.4
			c-0.6,0-0.8-0.3-0.8-0.8v-40.5c0-0.6,0.3-0.8,0.8-0.8h5.4c0.6,0,0.8,0.3,0.8,0.8V154.4z M170.2,119.3c0,0.6-0.3,0.8-0.8,0.8h-6.9
			v8.7h6c0.6,0,0.8,0.3,0.8,0.8v5.4c0,0.6-0.3,0.8-0.8,0.8h-6v12.4h6.9c0.6,0,0.8,0.3,0.8,0.8v5.4c0,0.6-0.3,0.8-0.8,0.8h-13.1
			c-0.6,0-0.8-0.3-0.8-0.8v-40.5c0-0.6,0.3-0.8,0.8-0.8h13.1c0.6,0,0.8,0.3,0.8,0.8V119.3z"/>
		<path fill="#F26651" d="M62.8,119.5h-1.9v12.1h1.9c0.4,0,0.7-0.1,1-0.4c0.3-0.3,0.4-0.6,0.4-1V121c0-0.4-0.1-0.7-0.4-1
			C63.5,119.7,63.2,119.5,62.8,119.5z"/>
		<polygon fill="#F26651" points="84.3,124.8 83.2,141.2 85.9,141.2 84.8,124.8 		"/>
	</g>
	<path fill="#1A1A1A" d="M19,96.5h-3l3.2-10.9c0-0.1,0-0.2,0-0.2c-0.1-0.1-0.1-0.1-0.2-0.1h-6c-0.2,0-0.3,0.1-0.3,0.3v1.9
		c0,0.2,0.1,0.3,0.3,0.3h2.9l-3.2,10.9c0,0.1,0,0.2,0,0.2c0.1,0.1,0.1,0.1,0.2,0.1H19c0.2,0,0.3-0.1,0.3-0.3v-1.9
		C19.3,96.6,19.2,96.5,19,96.5z"/>
	<path fill="#1A1A1A" d="M30.9,85.2h-2c-0.2,0-0.3,0.1-0.3,0.3v10.6c0,0.2-0.1,0.3-0.2,0.4s-0.2,0.2-0.4,0.2h-0.2
		c-0.2,0-0.3-0.1-0.4-0.2c-0.1-0.1-0.2-0.2-0.2-0.4V85.6c0-0.2-0.1-0.3-0.3-0.3h-2c-0.2,0-0.3,0.1-0.3,0.3v10.7
		c0,0.4,0.1,0.8,0.2,1.1c0.2,0.4,0.4,0.7,0.6,0.9c0.3,0.3,0.6,0.5,0.9,0.6c0.4,0.2,0.7,0.2,1.1,0.2h0.9c0.4,0,0.8-0.1,1.1-0.2
		c0.4-0.2,0.7-0.4,0.9-0.6c0.3-0.3,0.5-0.6,0.6-0.9c0.2-0.4,0.2-0.7,0.2-1.1V85.6C31.2,85.3,31.1,85.2,30.9,85.2z"/>
	<path fill="#1A1A1A" d="M42.2,85.2h-5c-0.2,0-0.3,0.1-0.3,0.3v13.2c0,0.2,0.1,0.3,0.3,0.3h2c0.2,0,0.3-0.1,0.3-0.3v-5.5h2.3
		c0.2,0,0.3-0.1,0.3-0.3v-2c0-0.2-0.1-0.3-0.3-0.3h-2.3v-2.6h2.6c0.2,0,0.3-0.1,0.3-0.3v-2C42.5,85.3,42.4,85.2,42.2,85.2z"/>
	<path fill="#1A1A1A" d="M54.1,92.5c0.3-0.5,0.5-1,0.5-1.5v-2.8c0-0.4-0.1-0.8-0.2-1.1c-0.2-0.4-0.4-0.7-0.6-0.9s-0.6-0.5-0.9-0.6
		c-0.4-0.2-0.7-0.2-1.1-0.2h-3.4c-0.2,0-0.3,0.1-0.3,0.3v13.2c0,0.2,0.1,0.3,0.3,0.3h2c0.2,0,0.3-0.1,0.3-0.3v-4.3l1.7,4.3
		c0,0.1,0.1,0.2,0.2,0.2s0.2,0.1,0.3,0.1h2.1c0.2,0,0.3-0.1,0.2-0.3l-2.2-5.2C53.4,93.3,53.8,92.9,54.1,92.5z M52,90.9
		c0,0.2-0.1,0.3-0.2,0.4s-0.2,0.2-0.4,0.2h-0.7v-3.7h0.7c0.2,0,0.3,0.1,0.4,0.2s0.2,0.2,0.2,0.4V90.9z"/>
	<path fill="#1A1A1A" d="M62.8,85.2h-2c-0.2,0-0.3,0.1-0.3,0.3v13.2c0,0.2,0.1,0.3,0.3,0.3h2c0.2,0,0.3-0.1,0.3-0.3V85.6
		C63.1,85.3,63,85.2,62.8,85.2z"/>
	<path fill="#1A1A1A" d="M74.2,85.2h-5c-0.2,0-0.3,0.1-0.3,0.3v13.2c0,0.2,0.1,0.3,0.3,0.3h5c0.2,0,0.3-0.1,0.3-0.3v-2
		c0-0.2-0.1-0.3-0.3-0.3h-2.6v-3.1h2.3c0.2,0,0.3-0.1,0.3-0.3v-2c0-0.2-0.1-0.3-0.3-0.3h-2.3v-2.6h2.6c0.2,0,0.3-0.1,0.3-0.3v-2
		C74.6,85.3,74.5,85.2,74.2,85.2z"/>
	<path fill="#1A1A1A" d="M86.1,86.1c-0.3-0.3-0.6-0.5-0.9-0.6c-0.4-0.2-0.7-0.2-1.1-0.2h-3.4c-0.2,0-0.3,0.1-0.3,0.3v13.2
		c0,0.2,0.1,0.3,0.3,0.3h3.4c0.4,0,0.8-0.1,1.1-0.2c0.4-0.2,0.7-0.4,0.9-0.6s0.5-0.6,0.6-0.9c0.2-0.4,0.2-0.7,0.2-1.1v-8
		c0-0.4-0.1-0.8-0.2-1.1C86.6,86.7,86.4,86.4,86.1,86.1z M84.3,96c0,0.2-0.1,0.3-0.2,0.4c-0.1,0.1-0.2,0.2-0.4,0.2H83v-8.9h0.7
		c0.2,0,0.3,0.1,0.4,0.2c0.1,0.1,0.2,0.2,0.2,0.4V96z"/>
	<path fill="#1A1A1A" d="M97.9,85.2h-5c-0.2,0-0.3,0.1-0.3,0.3v13.2c0,0.2,0.1,0.3,0.3,0.3h5c0.2,0,0.3-0.1,0.3-0.3v-2
		c0-0.2-0.1-0.3-0.3-0.3h-2.6v-3.1h2.3c0.2,0,0.3-0.1,0.3-0.3v-2c0-0.2-0.1-0.3-0.3-0.3h-2.3v-2.6h2.6c0.2,0,0.3-0.1,0.3-0.3v-2
		C98.2,85.3,98.1,85.2,97.9,85.2z"/>
	<path fill="#1A1A1A" d="M110.9,85.2h-2c-0.2,0-0.3,0.1-0.3,0.3v6.7l-2.4-6.7c0-0.1-0.1-0.1-0.2-0.2c-0.1-0.1-0.2-0.1-0.3-0.1h-1.5
		c-0.2,0-0.3,0.1-0.3,0.3v13.2c0,0.2,0.1,0.3,0.3,0.3h2c0.2,0,0.3-0.1,0.3-0.3v-6l2.4,6c0,0.1,0.1,0.1,0.2,0.2
		c0.1,0.1,0.2,0.1,0.3,0.1h1.5c0.2,0,0.3-0.1,0.3-0.3V85.6C111.2,85.3,111.1,85.2,110.9,85.2z"/>
	<path fill="#1A1A1A" d="M123.6,85.2h-2c-0.2,0-0.3,0.1-0.3,0.3v5.3h-1.5v-5.3c0-0.2-0.1-0.3-0.3-0.3h-2c-0.2,0-0.3,0.1-0.3,0.3
		v13.2c0,0.2,0.1,0.3,0.3,0.3h2c0.2,0,0.3-0.1,0.3-0.3v-5.2h1.5v5.2c0,0.2,0.1,0.3,0.3,0.3h2c0.2,0,0.3-0.1,0.3-0.3V85.6
		C123.9,85.3,123.8,85.2,123.6,85.2z"/>
	<path fill="#1A1A1A" d="M135.1,85.2h-5c-0.2,0-0.3,0.1-0.3,0.3v13.2c0,0.2,0.1,0.3,0.3,0.3h5c0.2,0,0.3-0.1,0.3-0.3v-2
		c0-0.2-0.1-0.3-0.3-0.3h-2.6v-3.1h2.3c0.2,0,0.3-0.1,0.3-0.3v-2c0-0.2-0.1-0.3-0.3-0.3h-2.3v-2.6h2.6c0.2,0,0.3-0.1,0.3-0.3v-2
		C135.4,85.3,135.3,85.2,135.1,85.2z"/>
	<path fill="#1A1A1A" d="M143.5,85.2h-2c-0.2,0-0.3,0.1-0.3,0.3v13.2c0,0.2,0.1,0.3,0.3,0.3h2c0.2,0,0.3-0.1,0.3-0.3V85.6
		C143.8,85.3,143.7,85.2,143.5,85.2z"/>
	<path fill="#1A1A1A" d="M155.5,85.2h-5.9c-0.2,0-0.3,0.1-0.3,0.3v2c0,0.2,0.1,0.3,0.3,0.3h1.6v10.8c0,0.1,0,0.2,0.1,0.2
		s0.1,0.1,0.2,0.1h2c0.2,0,0.3-0.1,0.3-0.3V87.9h1.6c0.2,0,0.3-0.1,0.3-0.3v-2C155.8,85.3,155.7,85.2,155.5,85.2z"/>
	<path fill="#1A1A1A" d="M166.6,85.9c-0.3-0.3-0.6-0.5-0.9-0.6c-0.4-0.2-0.7-0.2-1.1-0.2h-0.9c-0.4,0-0.8,0.1-1.1,0.2
		c-0.4,0.2-0.7,0.4-0.9,0.6c-0.3,0.3-0.5,0.6-0.6,0.9c-0.2,0.4-0.2,0.7-0.2,1.1V90c0,0.4,0,0.6,0.1,0.9c0.1,0.2,0.3,0.4,0.5,0.6
		l3,2.3c0.1,0.1,0.2,0.3,0.3,0.4s0.1,0.3,0.1,0.5v1.4c0,0.2-0.1,0.3-0.2,0.4s-0.2,0.2-0.4,0.2h-0.2c-0.2,0-0.3-0.1-0.4-0.2
		s-0.2-0.2-0.2-0.4v-1.9c0-0.2-0.1-0.3-0.3-0.2l-2.1,0.6c-0.2,0.1-0.3,0.2-0.3,0.4v1.3c0,0.4,0.1,0.8,0.2,1.1
		c0.2,0.4,0.4,0.7,0.6,0.9c0.3,0.3,0.6,0.5,0.9,0.6c0.4,0.2,0.7,0.2,1.1,0.2h0.9c0.4,0,0.8-0.1,1.1-0.2c0.4-0.2,0.7-0.4,0.9-0.6
		c0.3-0.3,0.5-0.6,0.6-0.9c0.2-0.4,0.2-0.7,0.2-1.1V94c0-0.3-0.1-0.5-0.1-0.7c-0.1-0.2-0.2-0.4-0.5-0.7l-3-2.3
		c-0.1-0.1-0.2-0.2-0.3-0.4c0-0.1-0.1-0.3-0.1-0.4v-1.4c0-0.2,0.1-0.3,0.2-0.4s0.2-0.2,0.4-0.2h0.2c0.2,0,0.3,0.1,0.4,0.2
		s0.2,0.2,0.2,0.4v1.5c0,0.2,0.1,0.3,0.3,0.2l2.1-0.6c0.2-0.1,0.3-0.2,0.3-0.4V88c0-0.4-0.1-0.8-0.2-1.1
		C167.1,86.5,166.9,86.2,166.6,85.9z"/>
	<g>
		<path fill="#1A1A1A" d="M133.7,20.4h-2.5v15.4h2.5c0.5,0,0.9-0.2,1.3-0.5c0.4-0.4,0.5-0.8,0.5-1.3V22.2c0-0.5-0.2-0.9-0.5-1.3
			C134.7,20.5,134.2,20.4,133.7,20.4z"/>
		<path fill="#1A1A1A" d="M0.1,0v78h179.8V0H0.1z M32.5,56.7c0,1.3-0.3,2.6-0.8,3.8c-0.5,1.2-1.2,2.2-2.1,3.1
			c-0.9,0.9-1.9,1.6-3.1,2.1c-1.2,0.5-2.4,0.8-3.8,0.8h-2.9c-1.3,0-2.6-0.3-3.8-0.8c-1.2-0.5-2.2-1.2-3.1-2.1
			c-0.9-0.9-1.6-1.9-2.1-3.1c-0.5-1.2-0.8-2.4-0.8-3.8V13.2c0-0.7,0.4-1.1,1.1-1.1h6.8c0.7,0,1.1,0.4,1.1,1.1v43.1
			c0,0.5,0.2,0.9,0.5,1.3c0.4,0.4,0.8,0.5,1.3,0.5h0.6c0.5,0,0.9-0.2,1.3-0.5c0.4-0.4,0.5-0.8,0.5-1.3V13.2c0-0.7,0.4-1.1,1.1-1.1
			h6.8c0.7,0,1.1,0.4,1.1,1.1V56.7z M63.2,64.8c0,0.7-0.4,1.1-1.1,1.1h-4.9c-0.3,0-0.6-0.1-0.9-0.3c-0.3-0.2-0.5-0.4-0.6-0.7
			l-8.1-25.4v25.3c0,0.7-0.4,1.1-1.1,1.1h-6.8c-0.7,0-1.1-0.4-1.1-1.1V13.2c0-0.7,0.4-1.1,1.1-1.1h5.1c0.3,0,0.6,0.1,0.9,0.3
			c0.3,0.2,0.5,0.4,0.6,0.7l8,24.6V13.2c0-0.7,0.4-1.1,1.1-1.1h6.8c0.7,0,1.1,0.4,1.1,1.1V64.8z M91.2,24.2c0,0.7-0.3,1.2-1,1.4
			l-7,1.8c-0.7,0.2-1,0-1-0.8v-5c0-0.5-0.2-0.9-0.5-1.3c-0.4-0.4-0.8-0.5-1.3-0.5h-0.6c-0.5,0-0.9,0.2-1.3,0.5
			c-0.4,0.4-0.5,0.8-0.5,1.3v7c0,0.6,0.2,1,0.3,1.5c0.2,0.4,0.4,0.8,0.8,1.2l10.1,7.5c0.8,0.7,1.3,1.4,1.6,2.2
			c0.2,0.7,0.4,1.6,0.5,2.5v13.2c0,1.3-0.3,2.6-0.8,3.8c-0.5,1.2-1.2,2.2-2.1,3.1c-0.9,0.9-1.9,1.6-3.1,2.1
			c-1.2,0.5-2.4,0.8-3.8,0.8h-2.9c-1.3,0-2.6-0.3-3.8-0.8c-1.2-0.5-2.2-1.2-3.1-2.1c-0.9-0.9-1.6-1.9-2.1-3.1
			c-0.5-1.2-0.8-2.4-0.8-3.8v-7.4c0-0.7,0.3-1.2,1-1.4l7-1.8c0.7-0.2,1,0.1,1,0.8v9.4c0,0.5,0.2,0.9,0.5,1.3
			c0.4,0.4,0.8,0.5,1.3,0.5h0.6c0.5,0,0.9-0.2,1.3-0.5c0.4-0.4,0.5-0.8,0.5-1.3V46.2c-0.1-0.7-0.2-1.3-0.3-1.8
			c-0.2-0.5-0.5-1-0.9-1.4l-9.9-7.6c-0.8-0.7-1.3-1.4-1.6-2.1c-0.3-0.7-0.5-1.7-0.5-2.8v-9.2c0-1.3,0.3-2.6,0.8-3.8
			c0.5-1.2,1.2-2.2,2.1-3.1c0.9-0.9,1.9-1.6,3.1-2.1c1.2-0.5,2.4-0.8,3.8-0.8h2.9c1.3,0,2.6,0.3,3.8,0.8c1.2,0.5,2.2,1.2,3.1,2.1
			c0.9,0.9,1.6,1.9,2.1,3.1c0.5,1.2,0.8,2.4,0.8,3.8V24.2z M115.8,20c0,0.7-0.4,1.1-1.1,1.1h-8.7v11h7.6c0.7,0,1.1,0.4,1.1,1.1v6.8
			c0,0.7-0.4,1.1-1.1,1.1h-7.6v15.7h8.7c0.7,0,1.1,0.4,1.1,1.1v6.8c0,0.7-0.4,1.1-1.1,1.1H98c-0.7,0-1.1-0.4-1.1-1.1V13.2
			c0-0.7,0.4-1.1,1.1-1.1h16.7c0.7,0,1.1,0.4,1.1,1.1V20z M145.3,65.9h-7c-0.3,0-0.6-0.1-0.9-0.3c-0.3-0.2-0.5-0.5-0.6-0.8L131.3,46
			v19.9l-0.1-0.8c-0.1,0.5-0.4,0.8-1,0.8h-6.8c-0.7,0-1.1-0.4-1.1-1.1V13.2c0-0.7,0.4-1.1,1.1-1.1h11.5c1.3,0,2.6,0.3,3.8,0.8
			c1.2,0.5,2.2,1.2,3.1,2.1c0.9,0.9,1.6,1.9,2.1,3.1c0.5,1.2,0.8,2.4,0.8,3.8v12.5c0,1.9-0.5,3.6-1.5,5.1c-1,1.5-2.3,2.7-3.8,3.5
			l6.8,21.9C146.2,65.5,146,65.9,145.3,65.9z M169.9,20c0,0.7-0.4,1.1-1.1,1.1h-8.7v11h7.6c0.7,0,1.1,0.4,1.1,1.1v6.8
			c0,0.7-0.4,1.1-1.1,1.1h-7.6v15.7h8.7c0.7,0,1.1,0.4,1.1,1.1v6.8c0,0.7-0.4,1.1-1.1,1.1h-16.7c-0.7,0-1.1-0.4-1.1-1.1V13.2
			c0-0.7,0.4-1.1,1.1-1.1h16.7c0.7,0,1.1,0.4,1.1,1.1V20z"/>
	</g>
</g>
</svg>
