<?xml version="1.0" encoding="utf-8"?>
<!-- Generator: Adobe Illustrator 19.2.1, SVG Export Plug-In . SVG Version: 6.00 Build 0)  -->
<svg version="1.1" id="Ebene_1" xmlns="http://www.w3.org/2000/svg" xmlns:xlink="http://www.w3.org/1999/xlink" x="0px" y="0px"
	 viewBox="0 0 190.5 168" enable-background="new 0 0 190.5 168" xml:space="preserve">
<g>
	<path fill="none" d="M75.9,65.6c0.9,0.9,2,1.7,3.2,2.2c1.2,0.5,2.6,0.8,4,0.8h3.1c1.4,0,2.7-0.3,4-0.8c1.2-0.5,2.3-1.3,3.2-2.2
		c0.9-0.9,1.6-2,2.2-3.2c0.5-1.2,0.8-2.6,0.8-4v-14c-0.1-1-0.3-1.9-0.5-2.6c-0.2-0.8-0.8-1.6-1.7-2.3l-10.6-8
		c-0.4-0.4-0.7-0.9-0.9-1.3c-0.2-0.4-0.3-0.9-0.3-1.5v-7.4c0-0.5,0.2-1,0.6-1.4c0.4-0.4,0.8-0.6,1.4-0.6H85c0.5,0,1,0.2,1.4,0.6
		c0.4,0.4,0.6,0.8,0.6,1.4v5.3c0,0.8,0.4,1,1.1,0.8l7.4-1.9c0.7-0.2,1.1-0.7,1.1-1.5v-3.1c0-1.4-0.3-2.7-0.8-4
		c-0.5-1.2-1.3-2.3-2.2-3.2c-0.9-0.9-2-1.7-3.2-2.2c-1.2-0.5-2.6-0.8-4-0.8h-3.1c-1.4,0-2.7,0.3-4,0.8c-1.2,0.5-2.3,1.3-3.2,2.2
		c-0.9,0.9-1.7,2-2.2,3.2c-0.5,1.2-0.8,2.6-0.8,4v9.7c0,1.2,0.2,2.2,0.5,3c0.4,0.8,0.9,1.5,1.7,2.3l10.5,8c0.5,0.4,0.8,0.9,1,1.5
		c0.2,0.5,0.3,1.2,0.3,1.9v10.7c0,0.5-0.2,1-0.6,1.4c-0.4,0.4-0.8,0.6-1.4,0.6h-0.6c-0.5,0-1-0.2-1.4-0.6c-0.4-0.4-0.6-0.8-0.6-1.4
		v-10c0-0.8-0.4-1-1.1-0.8l-7.4,1.9c-0.7,0.2-1.1,0.7-1.1,1.5v7.8c0,1.4,0.3,2.7,0.8,4C74.2,63.6,75,64.6,75.9,65.6z"/>
	<path fill="none" d="M103.7,68h17.6c0.8,0,1.1-0.4,1.1-1.1v-7.2c0-0.8-0.4-1.1-1.1-1.1H112V41.8h8c0.8,0,1.1-0.4,1.1-1.1v-7.2
		c0-0.8-0.4-1.1-1.1-1.1h-8V20.7h9.3c0.8,0,1.1-0.4,1.1-1.1v-7.2c0-0.8-0.4-1.1-1.1-1.1h-17.6c-0.8,0-1.1,0.4-1.1,1.1v54.6
		C102.5,67.6,102.9,68,103.7,68z"/>
	<path fill="none" d="M13.8,65.6c0.9,0.9,2,1.7,3.2,2.2c1.2,0.5,2.6,0.8,4,0.8h3.1c1.4,0,2.7-0.3,4-0.8c1.2-0.5,2.3-1.3,3.2-2.2
		c0.9-0.9,1.7-2,2.2-3.2c0.5-1.2,0.8-2.6,0.8-4v-46c0-0.8-0.4-1.1-1.1-1.1H26c-0.8,0-1.1,0.4-1.1,1.1v45.6c0,0.5-0.2,1-0.6,1.4
		c-0.4,0.4-0.8,0.6-1.4,0.6h-0.7c-0.5,0-1-0.2-1.4-0.6c-0.4-0.4-0.6-0.8-0.6-1.4V12.3c0-0.8-0.4-1.1-1.1-1.1h-7.2
		c-0.8,0-1.1,0.4-1.1,1.1v46c0,1.4,0.3,2.7,0.8,4C12.1,63.6,12.9,64.6,13.8,65.6z"/>
	<path fill="none" d="M42,68h7.2c0.8,0,1.1-0.4,1.1-1.1V40.1l8.6,26.9c0.1,0.3,0.3,0.5,0.6,0.7c0.3,0.2,0.6,0.3,0.9,0.3h5.2
		c0.8,0,1.1-0.4,1.1-1.1V12.3c0-0.8-0.4-1.1-1.1-1.1h-7.2c-0.8,0-1.1,0.4-1.1,1.1v26l-8.4-26.1c-0.1-0.3-0.3-0.5-0.6-0.7
		c-0.3-0.2-0.6-0.3-0.9-0.3H42c-0.8,0-1.1,0.4-1.1,1.1v54.6C40.8,67.6,41.2,68,42,68z"/>
	<path fill="none" d="M88.6,84.8h-0.8v9.4h0.8c0.2,0,0.3-0.1,0.4-0.2c0.1-0.1,0.2-0.3,0.2-0.4v-8.2c0-0.2-0.1-0.3-0.2-0.4
		C88.9,84.8,88.7,84.8,88.6,84.8z"/>
	<path fill="none" d="M161,68h17.6c0.8,0,1.1-0.4,1.1-1.1v-7.2c0-0.8-0.4-1.1-1.1-1.1h-9.3V41.8h8c0.8,0,1.1-0.4,1.1-1.1v-7.2
		c0-0.8-0.4-1.1-1.1-1.1h-8V20.7h9.3c0.8,0,1.1-0.4,1.1-1.1v-7.2c0-0.8-0.4-1.1-1.1-1.1H161c-0.8,0-1.1,0.4-1.1,1.1v54.6
		C159.8,67.6,160.2,68,161,68z"/>
	<path fill="none" d="M54.4,84.8h-0.8v3.9h0.8c0.2,0,0.3-0.1,0.4-0.2c0.1-0.1,0.2-0.3,0.2-0.4v-2.8c0-0.2-0.1-0.3-0.2-0.4
		C54.7,84.8,54.5,84.8,54.4,84.8z"/>
	<path fill="none" d="M130.4,68h7.2c0.6,0,1-0.3,1.1-0.8V47l5.9,19.9c0.1,0.3,0.3,0.6,0.6,0.8c0.3,0.2,0.6,0.3,0.9,0.3h7.4
		c0.7,0,1-0.4,0.8-1.1l-7.2-23.1c1.7-0.9,3-2.1,4.1-3.7c1-1.6,1.5-3.4,1.5-5.4V21.4c0-1.4-0.3-2.7-0.8-4c-0.5-1.2-1.3-2.3-2.2-3.2
		c-0.9-0.9-2-1.7-3.2-2.2c-1.2-0.5-2.6-0.8-4-0.8h-12.2c-0.8,0-1.1,0.4-1.1,1.1v54.6C129.2,67.6,129.6,68,130.4,68z M138.7,19.8h2.6
		c0.5,0,1,0.2,1.4,0.6c0.4,0.4,0.6,0.8,0.6,1.4v12.4c0,0.5-0.2,1-0.6,1.4c-0.4,0.4-0.8,0.6-1.4,0.6h-2.6V19.8z"/>
	<path fill="#1A1A1A" d="M142.7,35.6c0.4-0.4,0.6-0.8,0.6-1.4V21.8c0-0.5-0.2-1-0.6-1.4c-0.4-0.4-0.8-0.6-1.4-0.6h-2.6v16.3h2.6
		C141.9,36.2,142.3,36,142.7,35.6z"/>
	<path fill="#1A1A1A" d="M190.5,76.3V0H0v76.3H190.5z M159.8,12.3c0-0.8,0.4-1.1,1.1-1.1h17.6c0.8,0,1.1,0.4,1.1,1.1v7.2
		c0,0.8-0.4,1.1-1.1,1.1h-9.3v11.7h8c0.8,0,1.1,0.4,1.1,1.1v7.2c0,0.8-0.4,1.1-1.1,1.1h-8v16.6h9.3c0.8,0,1.1,0.4,1.1,1.1v7.2
		c0,0.8-0.4,1.1-1.1,1.1H161c-0.8,0-1.1-0.4-1.1-1.1V12.3z M129.2,12.3c0-0.8,0.4-1.1,1.1-1.1h12.2c1.4,0,2.7,0.3,4,0.8
		c1.2,0.5,2.3,1.3,3.2,2.2c0.9,0.9,1.7,2,2.2,3.2c0.5,1.2,0.8,2.6,0.8,4v13.2c0,2-0.5,3.8-1.5,5.4c-1,1.6-2.4,2.8-4.1,3.7l7.2,23.1
		c0.2,0.8-0.1,1.1-0.8,1.1h-7.4c-0.3,0-0.6-0.1-0.9-0.3c-0.3-0.2-0.5-0.5-0.6-0.8L138.7,47v20.2c-0.2,0.5-0.5,0.8-1.1,0.8h-7.2
		c-0.8,0-1.1-0.4-1.1-1.1V12.3z M102.5,12.3c0-0.8,0.4-1.1,1.1-1.1h17.6c0.8,0,1.1,0.4,1.1,1.1v7.2c0,0.8-0.4,1.1-1.1,1.1H112v11.7
		h8c0.8,0,1.1,0.4,1.1,1.1v7.2c0,0.8-0.4,1.1-1.1,1.1h-8v16.6h9.3c0.8,0,1.1,0.4,1.1,1.1v7.2c0,0.8-0.4,1.1-1.1,1.1h-17.6
		c-0.8,0-1.1-0.4-1.1-1.1V12.3z M72.9,50.5c0-0.8,0.4-1.2,1.1-1.5l7.4-1.9c0.7-0.2,1.1,0.1,1.1,0.8v10c0,0.5,0.2,1,0.6,1.4
		c0.4,0.4,0.8,0.6,1.4,0.6H85c0.5,0,1-0.2,1.4-0.6c0.4-0.4,0.6-0.8,0.6-1.4V47.2c-0.1-0.7-0.2-1.3-0.3-1.9c-0.2-0.5-0.5-1-1-1.5
		l-10.5-8c-0.8-0.8-1.4-1.5-1.7-2.3c-0.4-0.8-0.5-1.8-0.5-3v-9.7c0-1.4,0.3-2.7,0.8-4c0.5-1.2,1.3-2.3,2.2-3.2
		c0.9-0.9,2-1.7,3.2-2.2c1.2-0.5,2.6-0.8,4-0.8h3.1c1.4,0,2.7,0.3,4,0.8c1.2,0.5,2.3,1.3,3.2,2.2c0.9,0.9,1.6,2,2.2,3.2
		c0.5,1.2,0.8,2.6,0.8,4v3.1c0,0.8-0.4,1.2-1.1,1.5L88,27.3c-0.7,0.2-1.1-0.1-1.1-0.8v-5.3c0-0.5-0.2-1-0.6-1.4
		c-0.4-0.4-0.8-0.6-1.4-0.6h-0.6c-0.5,0-1,0.2-1.4,0.6c-0.4,0.4-0.6,0.8-0.6,1.4v7.4c0.1,0.6,0.2,1.1,0.3,1.5
		c0.2,0.4,0.5,0.9,0.9,1.3l10.6,8c0.9,0.8,1.4,1.5,1.7,2.3c0.2,0.8,0.4,1.7,0.5,2.6v14c0,1.4-0.3,2.7-0.8,4
		c-0.5,1.2-1.3,2.3-2.2,3.2c-0.9,0.9-2,1.7-3.2,2.2c-1.2,0.5-2.6,0.8-4,0.8h-3.1c-1.4,0-2.7-0.3-4-0.8c-1.2-0.5-2.3-1.3-3.2-2.2
		c-0.9-0.9-1.7-2-2.2-3.2c-0.5-1.2-0.8-2.6-0.8-4V50.5z M40.8,12.3c0-0.8,0.4-1.1,1.1-1.1h5.4c0.3,0,0.6,0.1,0.9,0.3
		c0.3,0.2,0.5,0.5,0.6,0.7l8.4,26.1v-26c0-0.8,0.4-1.1,1.1-1.1h7.2c0.8,0,1.1,0.4,1.1,1.1v54.6c0,0.8-0.4,1.1-1.1,1.1h-5.2
		c-0.3,0-0.6-0.1-0.9-0.3c-0.3-0.2-0.5-0.5-0.6-0.7l-8.6-26.9v26.8c0,0.8-0.4,1.1-1.1,1.1H42c-0.8,0-1.1-0.4-1.1-1.1V12.3z
		 M10.8,12.3c0-0.8,0.4-1.1,1.1-1.1h7.2c0.8,0,1.1,0.4,1.1,1.1v45.6c0,0.5,0.2,1,0.6,1.4c0.4,0.4,0.8,0.6,1.4,0.6h0.7
		c0.5,0,1-0.2,1.4-0.6c0.4-0.4,0.6-0.8,0.6-1.4V12.3c0-0.8,0.4-1.1,1.1-1.1h7.2c0.8,0,1.1,0.4,1.1,1.1v46c0,1.4-0.3,2.7-0.8,4
		c-0.5,1.2-1.3,2.3-2.2,3.2c-0.9,0.9-2,1.7-3.2,2.2c-1.2,0.5-2.6,0.8-4,0.8H21c-1.4,0-2.7-0.3-4-0.8c-1.2-0.5-2.3-1.3-3.2-2.2
		c-0.9-0.9-1.7-2-2.2-3.2c-0.5-1.2-0.8-2.6-0.8-4V12.3z"/>
	<g>
		<polygon fill="#F26651" points="42.5,125.2 41.3,142.5 44.2,142.5 43,125.2 		"/>
		<path fill="#F26651" d="M188.4,102H2.2H0v66h190.5v-66H188.4z M29.1,122.4c0,0.6-0.3,1-0.8,1.1l-5.8,2.1c-0.6,0.2-0.8,0-0.8-0.6
			v-4.3c0-0.4-0.2-0.8-0.4-1.1c-0.3-0.3-0.7-0.4-1.1-0.4h-0.5c-0.4,0-0.8,0.2-1.1,0.4c-0.3,0.3-0.4,0.7-0.4,1.1v28.9
			c0,0.4,0.1,0.8,0.4,1.1c0.3,0.3,0.7,0.4,1.1,0.4h0.5c0.4,0,0.8-0.1,1.1-0.4c0.3-0.3,0.4-0.7,0.4-1.1v-11.4h-1.8v-7.3h8.4
			c0.6,0,0.9,0.3,0.9,0.9v18.1c0,1.1-0.2,2.1-0.6,3.1c-0.4,1-1,1.8-1.7,2.6c-0.7,0.7-1.6,1.3-2.6,1.7c-1,0.4-2,0.6-3.1,0.6h-2.4
			c-1.1,0-2.1-0.2-3.1-0.6c-1-0.4-1.8-1-2.6-1.7c-0.7-0.7-1.3-1.6-1.7-2.6c-0.4-1-0.6-2-0.6-3.1v-29.5c0-1.1,0.2-2.1,0.6-3.1
			c0.4-1,1-1.8,1.7-2.6c0.7-0.7,1.6-1.3,2.6-1.7c1-0.4,2-0.6,3.1-0.6h2.4c1.1,0,2.1,0.2,3.1,0.6c1,0.4,1.8,1,2.6,1.7
			c0.7,0.7,1.3,1.6,1.7,2.6c0.4,1,0.6,2,0.6,3.1V122.4z M52,157.4h-5.8c-0.6,0-0.9-0.3-1-0.9l-0.5-6.9h-4l-0.5,6.9
			c-0.1,0.6-0.4,0.9-1,0.9h-5.8c-0.6,0-0.9-0.3-0.8-0.9l4.8-42.9c0.1-0.6,0.4-0.9,1-0.9H47c0.6,0,0.9,0.3,1,0.9l4.8,42.9
			C52.8,157.1,52.6,157.4,52,157.4z M76.1,157.4h-5.8c-0.3,0-0.5-0.1-0.7-0.3s-0.4-0.4-0.5-0.6l-4.7-15.6v15.9
			c-0.1,0.4-0.4,0.6-0.9,0.6h-5.7c-0.6,0-0.9-0.3-0.9-0.9v-42.9c0-0.6,0.3-0.9,0.9-0.9h9.6c1.1,0,2.1,0.2,3.1,0.6
			c1,0.4,1.8,1,2.6,1.7c0.7,0.7,1.3,1.6,1.7,2.6c0.4,1,0.6,2,0.6,3.1v10.4c0,1.6-0.4,3-1.2,4.2c-0.8,1.3-1.9,2.2-3.2,2.9l5.7,18.2
			C76.8,157.1,76.6,157.4,76.1,157.4z M98.7,157.4h-5.8c-0.6,0-0.9-0.3-1-0.9l-0.5-6.9h-4l-0.5,6.9c-0.1,0.6-0.4,0.9-1,0.9h-5.8
			c-0.6,0-0.9-0.3-0.8-0.9l4.8-42.9c0.1-0.6,0.4-0.9,1-0.9h8.4c0.6,0,0.9,0.3,1,0.9l4.8,42.9C99.6,157.1,99.3,157.4,98.7,157.4z
			 M124.1,156.5c0,0.6-0.3,0.9-0.9,0.9h-4.1c-0.3,0-0.5-0.1-0.7-0.3c-0.2-0.2-0.4-0.4-0.5-0.6l-6.8-21.1v21.1c0,0.6-0.3,0.9-0.9,0.9
			h-5.7c-0.6,0-0.9-0.3-0.9-0.9v-42.9c0-0.6,0.3-0.9,0.9-0.9h4.2c0.3,0,0.5,0.1,0.7,0.3s0.4,0.4,0.5,0.6l6.6,20.5v-20.4
			c0-0.6,0.3-0.9,0.9-0.9h5.7c0.6,0,0.9,0.3,0.9,0.9V156.5z M146.8,119.3c0,0.6-0.3,0.9-0.9,0.9h-4.5v36.3c0,0.6-0.3,0.9-0.9,0.9
			h-5.7c-0.2,0-0.4-0.1-0.6-0.3c-0.2-0.2-0.3-0.4-0.3-0.6v-36.3h-4.5c-0.6,0-0.9-0.3-0.9-0.9v-5.7c0-0.6,0.3-0.9,0.9-0.9H146
			c0.6,0,0.9,0.3,0.9,0.9V119.3z M158.8,156.5c0,0.6-0.3,0.9-0.9,0.9h-5.7c-0.6,0-0.9-0.3-0.9-0.9v-42.9c0-0.6,0.3-0.9,0.9-0.9h5.7
			c0.6,0,0.9,0.3,0.9,0.9V156.5z M180.2,119.3c0,0.6-0.3,0.9-0.9,0.9H172v9.2h6.3c0.6,0,0.9,0.3,0.9,0.9v5.7c0,0.6-0.3,0.9-0.9,0.9
			H172v13.1h7.3c0.6,0,0.9,0.3,0.9,0.9v5.7c0,0.6-0.3,0.9-0.9,0.9h-13.9c-0.6,0-0.9-0.3-0.9-0.9v-42.9c0-0.6,0.3-0.9,0.9-0.9h13.9
			c0.6,0,0.9,0.3,0.9,0.9V119.3z"/>
		<path fill="#F26651" d="M66.4,119.6h-2v12.8h2c0.4,0,0.8-0.1,1.1-0.4c0.3-0.3,0.4-0.7,0.4-1.1v-9.8c0-0.4-0.1-0.8-0.4-1.1
			C67.2,119.7,66.8,119.6,66.4,119.6z"/>
		<polygon fill="#F26651" points="89.2,125.2 88,142.5 90.9,142.5 89.7,125.2 		"/>
	</g>
	<path fill="#1A1A1A" d="M20,94.1h-3.2l3.4-11.5c0-0.1,0-0.2,0-0.2c-0.1-0.1-0.1-0.1-0.2-0.1h-6.4c-0.2,0-0.3,0.1-0.3,0.3v2
		c0,0.2,0.1,0.3,0.3,0.3h3.1l-3.4,11.5c0,0.1,0,0.2,0,0.2c0.1,0.1,0.1,0.1,0.2,0.1H20c0.2,0,0.3-0.1,0.3-0.3v-2
		C20.3,94.2,20.2,94.1,20,94.1z"/>
	<path fill="#1A1A1A" d="M32.6,82.2h-2.2c-0.2,0-0.3,0.1-0.3,0.3v11.3c0,0.2-0.1,0.3-0.2,0.4s-0.3,0.2-0.4,0.2h-0.2
		c-0.2,0-0.3-0.1-0.4-0.2c-0.1-0.1-0.2-0.3-0.2-0.4V82.5c0-0.2-0.1-0.3-0.3-0.3h-2.2c-0.2,0-0.3,0.1-0.3,0.3v11.4
		c0,0.4,0.1,0.8,0.2,1.2c0.2,0.4,0.4,0.7,0.7,1c0.3,0.3,0.6,0.5,1,0.7c0.4,0.2,0.8,0.2,1.2,0.2h0.9c0.4,0,0.8-0.1,1.2-0.2
		c0.4-0.2,0.7-0.4,1-0.7c0.3-0.3,0.5-0.6,0.7-1c0.2-0.4,0.2-0.8,0.2-1.2V82.5C33,82.3,32.9,82.2,32.6,82.2z"/>
	<path fill="#1A1A1A" d="M44.6,82.2h-5.3c-0.2,0-0.3,0.1-0.3,0.3v13.9c0,0.2,0.1,0.3,0.3,0.3h2.2c0.2,0,0.3-0.1,0.3-0.3v-5.8h2.4
		c0.2,0,0.3-0.1,0.3-0.3v-2.2c0-0.2-0.1-0.3-0.3-0.3h-2.4V85h2.8c0.2,0,0.3-0.1,0.3-0.3v-2.2C44.9,82.3,44.8,82.2,44.6,82.2z"/>
	<path fill="#1A1A1A" d="M57.3,89.9c0.4-0.5,0.5-1,0.5-1.6v-3c0-0.4-0.1-0.8-0.2-1.2c-0.2-0.4-0.4-0.7-0.7-1c-0.3-0.3-0.6-0.5-1-0.7
		c-0.4-0.2-0.8-0.2-1.2-0.2h-3.7c-0.2,0-0.3,0.1-0.3,0.3v13.9c0,0.2,0.1,0.3,0.3,0.3h2.2c0.2,0,0.4-0.1,0.4-0.3v-4.5l1.8,4.5
		c0,0.1,0.1,0.2,0.2,0.2c0.1,0.1,0.2,0.1,0.3,0.1H58c0.2,0,0.3-0.1,0.2-0.3L56,91C56.5,90.7,56.9,90.3,57.3,89.9z M54.9,88.1
		c0,0.2-0.1,0.3-0.2,0.4c-0.1,0.1-0.3,0.2-0.4,0.2h-0.8v-3.9h0.8c0.2,0,0.3,0.1,0.4,0.2c0.1,0.1,0.2,0.3,0.2,0.4V88.1z"/>
	<path fill="#1A1A1A" d="M66.4,82.2h-2.2c-0.2,0-0.3,0.1-0.3,0.3v13.9c0,0.2,0.1,0.3,0.3,0.3h2.2c0.2,0,0.3-0.1,0.3-0.3V82.5
		C66.7,82.3,66.6,82.2,66.4,82.2z"/>
	<path fill="#1A1A1A" d="M78.5,82.2h-5.3c-0.2,0-0.3,0.1-0.3,0.3v13.9c0,0.2,0.1,0.3,0.3,0.3h5.3c0.2,0,0.3-0.1,0.3-0.3v-2.2
		c0-0.2-0.1-0.3-0.3-0.3h-2.8v-3.3h2.4c0.2,0,0.3-0.1,0.3-0.3v-2.2c0-0.2-0.1-0.3-0.3-0.3h-2.4V85h2.8c0.2,0,0.3-0.1,0.3-0.3v-2.2
		C78.9,82.3,78.8,82.2,78.5,82.2z"/>
	<path fill="#1A1A1A" d="M91.1,83.1c-0.3-0.3-0.6-0.5-1-0.7c-0.4-0.2-0.8-0.2-1.2-0.2h-3.7c-0.2,0-0.3,0.1-0.3,0.3v13.9
		c0,0.2,0.1,0.3,0.3,0.3h3.7c0.4,0,0.8-0.1,1.2-0.2c0.4-0.2,0.7-0.4,1-0.7c0.3-0.3,0.5-0.6,0.7-1c0.2-0.4,0.2-0.8,0.2-1.2v-8.5
		c0-0.4-0.1-0.8-0.2-1.2C91.6,83.7,91.4,83.3,91.1,83.1z M89.2,93.6c0,0.2-0.1,0.3-0.2,0.4c-0.1,0.1-0.3,0.2-0.4,0.2h-0.8v-9.4h0.8
		c0.2,0,0.3,0.1,0.4,0.2c0.1,0.1,0.2,0.3,0.2,0.4V93.6z"/>
	<path fill="#1A1A1A" d="M103.6,82.2h-5.3c-0.2,0-0.3,0.1-0.3,0.3v13.9c0,0.2,0.1,0.3,0.3,0.3h5.3c0.2,0,0.3-0.1,0.3-0.3v-2.2
		c0-0.2-0.1-0.3-0.3-0.3h-2.8v-3.3h2.4c0.2,0,0.3-0.1,0.3-0.3v-2.2c0-0.2-0.1-0.3-0.3-0.3h-2.4V85h2.8c0.2,0,0.3-0.1,0.3-0.3v-2.2
		C103.9,82.3,103.8,82.2,103.6,82.2z"/>
	<path fill="#1A1A1A" d="M117.3,82.2h-2.2c-0.2,0-0.3,0.1-0.3,0.3v7.1l-2.5-7.1c0-0.1-0.1-0.2-0.2-0.2c-0.1-0.1-0.2-0.1-0.3-0.1
		h-1.6c-0.2,0-0.3,0.1-0.3,0.3v13.9c0,0.2,0.1,0.3,0.3,0.3h2.2c0.2,0,0.3-0.1,0.3-0.3v-6.3l2.6,6.4c0,0.1,0.1,0.2,0.2,0.2
		c0.1,0.1,0.2,0.1,0.3,0.1h1.6c0.2,0,0.3-0.1,0.3-0.3V82.5C117.7,82.3,117.6,82.2,117.3,82.2z"/>
	<path fill="#1A1A1A" d="M130.8,82.2h-2.2c-0.2,0-0.3,0.1-0.3,0.3v5.6h-1.6v-5.6c0-0.2-0.1-0.3-0.3-0.3h-2.2c-0.2,0-0.3,0.1-0.3,0.3
		v13.9c0,0.2,0.1,0.3,0.3,0.3h2.2c0.2,0,0.3-0.1,0.3-0.3v-5.5h1.6v5.5c0,0.2,0.1,0.3,0.3,0.3h2.2c0.2,0,0.3-0.1,0.3-0.3V82.5
		C131.2,82.3,131,82.2,130.8,82.2z"/>
	<path fill="#1A1A1A" d="M143,82.2h-5.3c-0.2,0-0.3,0.1-0.3,0.3v13.9c0,0.2,0.1,0.3,0.3,0.3h5.3c0.2,0,0.3-0.1,0.3-0.3v-2.2
		c0-0.2-0.1-0.3-0.3-0.3h-2.8v-3.3h2.4c0.2,0,0.3-0.1,0.3-0.3v-2.2c0-0.2-0.1-0.3-0.3-0.3h-2.4V85h2.8c0.2,0,0.3-0.1,0.3-0.3v-2.2
		C143.3,82.3,143.2,82.2,143,82.2z"/>
	<path fill="#1A1A1A" d="M151.9,82.2h-2.2c-0.2,0-0.3,0.1-0.3,0.3v13.9c0,0.2,0.1,0.3,0.3,0.3h2.2c0.2,0,0.3-0.1,0.3-0.3V82.5
		C152.2,82.3,152.1,82.2,151.9,82.2z"/>
	<path fill="#1A1A1A" d="M164.6,82.2h-6.3c-0.2,0-0.3,0.1-0.3,0.3v2.2c0,0.2,0.1,0.3,0.3,0.3h1.7v11.4c0,0.1,0,0.2,0.1,0.2
		c0.1,0.1,0.1,0.1,0.2,0.1h2.2c0.2,0,0.3-0.1,0.3-0.3V85h1.7c0.2,0,0.3-0.1,0.3-0.3v-2.2C164.9,82.3,164.8,82.2,164.6,82.2z"/>
	<path fill="#1A1A1A" d="M176.4,82.9c-0.3-0.3-0.6-0.5-1-0.7c-0.4-0.2-0.8-0.2-1.2-0.2h-0.9c-0.4,0-0.8,0.1-1.2,0.2
		c-0.4,0.2-0.7,0.4-1,0.7c-0.3,0.3-0.5,0.6-0.7,1c-0.2,0.4-0.2,0.8-0.2,1.2v2.2c0,0.4,0.1,0.7,0.2,0.9c0.1,0.2,0.3,0.5,0.5,0.7
		l3.1,2.4c0.1,0.1,0.2,0.3,0.3,0.4s0.1,0.3,0.1,0.6v1.5c0,0.2-0.1,0.3-0.2,0.4s-0.3,0.2-0.4,0.2h-0.2c-0.2,0-0.3-0.1-0.4-0.2
		s-0.2-0.3-0.2-0.4v-2c0-0.2-0.1-0.3-0.3-0.2l-2.2,0.6c-0.2,0.1-0.3,0.2-0.3,0.4v1.4c0,0.4,0.1,0.8,0.2,1.2c0.2,0.4,0.4,0.7,0.7,1
		c0.3,0.3,0.6,0.5,1,0.7c0.4,0.2,0.8,0.2,1.2,0.2h0.9c0.4,0,0.8-0.1,1.2-0.2c0.4-0.2,0.7-0.4,1-0.7c0.3-0.3,0.5-0.6,0.7-1
		c0.2-0.4,0.2-0.8,0.2-1.2v-2.5c0-0.3-0.1-0.6-0.2-0.8c-0.1-0.2-0.2-0.5-0.5-0.7l-3.2-2.4c-0.1-0.1-0.2-0.3-0.3-0.4
		c0-0.1-0.1-0.3-0.1-0.5v-1.5c0-0.2,0.1-0.3,0.2-0.4c0.1-0.1,0.3-0.2,0.4-0.2h0.2c0.2,0,0.3,0.1,0.4,0.2c0.1,0.1,0.2,0.3,0.2,0.4
		v1.6c0,0.2,0.1,0.3,0.3,0.2l2.2-0.6c0.2-0.1,0.3-0.2,0.3-0.4v-0.9c0-0.4-0.1-0.8-0.2-1.2C176.9,83.5,176.7,83.2,176.4,82.9z"/>
</g>
</svg>
