<?xml version="1.0" encoding="utf-8"?>
<!-- Generator: Adobe Illustrator 19.2.1, SVG Export Plug-In . SVG Version: 6.00 Build 0)  -->
<svg version="1.1" id="Ebene_1" xmlns="http://www.w3.org/2000/svg" xmlns:xlink="http://www.w3.org/1999/xlink" x="0px" y="0px"
	 viewBox="0 0 22.1 32" enable-background="new 0 0 22.1 32" xml:space="preserve">
<path fill="#121212" d="M22.1,17.3V0H0v17.3c1.1,0,1.9,0.9,1.9,1.9S1.1,21.1,0,21.1V24l11,8l11.1-8v-2.9c-1.1,0-1.9-0.9-1.9-1.9
	S21,17.3,22.1,17.3z M9.7,8.1l1.4-3.9l1.3,3.9l4.1,0.1l-3.3,2.5l1.2,4l-3.4-2.4l-3.4,2.4l1.2-4L5.6,8.2L9.7,8.1z M17.1,19.7h-12v-1
	h12V19.7z"/>
</svg>
